<svg width="213" height="202" viewBox="0 0 213 202" fill="none" xmlns="http://www.w3.org/2000/svg">
<rect x="212.047" y="0.801147" width="200.246" height="211.848" rx="7.5" transform="rotate(90 212.047 0.801147)" fill="#FF385C"/>
<path d="M51.2711 35.0553L79.1941 35.0553L73.0433 27.9769H79.8776L86.0284 35.0553V41.4015L51.2711 41.4015V35.0553ZM50.9783 61.7913C50.9783 55.6404 54.8836 50.9052 61.7179 50.9052C64.2075 50.9052 66.4531 51.5886 70.5536 53.6389L86.0284 61.2055V68.0886L71.5788 60.8149C71.9693 61.6448 72.1158 62.5723 72.1158 63.451C72.1158 68.1374 68.2593 72.6285 61.8155 72.6285C55.03 72.6285 50.9783 67.9421 50.9783 61.7913ZM56.6898 61.7913C56.6898 64.3785 58.5448 66.2824 61.7667 66.2824C64.8421 66.2824 66.8436 64.4762 66.8436 61.7913C66.8436 59.1552 64.9886 57.2513 61.7667 57.2513C58.5448 57.2513 56.6898 59.1552 56.6898 61.7913ZM51.2711 79.3755L69.6721 88.085V90.7211L51.2711 82.0116V79.3755ZM60.1873 79.1688C60.1873 77.153 61.3761 75.4214 63.728 75.4214H66.2865C68.6383 75.4214 69.8271 77.153 69.8271 79.1688C69.8271 81.1846 68.6383 82.9162 66.2865 82.9162H63.728C61.3761 82.9162 60.1873 81.1846 60.1873 79.1688ZM62.3582 79.1688C62.3582 79.97 62.8493 80.4868 63.8572 80.4868H66.1573C67.1652 80.4868 67.6304 79.97 67.6304 79.1688C67.6304 78.3935 67.1652 77.8766 66.1573 77.8766H63.8572C62.8493 77.8766 62.3582 78.3935 62.3582 79.1688ZM51.1161 90.902C51.1161 88.8861 52.3049 87.1546 54.6567 87.1546H57.2153C59.5671 87.1546 60.7559 88.8861 60.7559 90.902C60.7559 92.9178 59.5671 94.6493 57.2153 94.6493H54.6567C52.3049 94.6493 51.1161 92.9178 51.1161 90.902ZM53.3128 90.902C53.3128 91.7031 53.778 92.22 54.7859 92.22H57.086C58.094 92.22 58.585 91.7031 58.585 90.902C58.585 90.1266 58.094 89.5839 57.086 89.5839H54.7859C53.778 89.5839 53.3128 90.1266 53.3128 90.902Z" fill="white"/>
<rect opacity="0.6" x="34.8649" y="22.9489" width="106.887" height="12.5183" rx="6.25915" transform="rotate(90 34.8649 22.9489)" fill="white"/>
<path d="M158.787 181.869C159.308 181.652 159.872 181.435 160.349 181.218C161.13 180.871 161.867 180.524 162.561 180.22L162.605 180.177C169.111 177.184 175.704 173.974 182.211 170.591L182.471 170.461C183.121 170.114 183.815 169.767 184.509 169.42C185.29 168.986 186.114 168.552 186.895 167.858C188.63 166.47 189.584 164.475 189.584 162.349C189.584 160.181 188.63 158.229 186.982 156.797C186.201 156.147 185.377 155.67 184.596 155.236C183.902 154.889 183.208 154.542 182.558 154.195L182.297 154.065C175.791 150.725 169.198 147.472 162.691 144.479L162.605 144.435C161.911 144.132 161.173 143.785 160.392 143.438C159.915 143.221 159.395 143.004 158.831 142.787C157.226 142.223 155.708 142.05 154.146 142.266C150.893 142.744 148.16 144.912 146.946 147.905C146.469 149.033 146.252 150.204 146.252 151.419C146.252 151.766 146.295 152.199 146.339 152.546C146.512 153.978 146.989 155.453 147.813 156.884C148.811 158.663 150.242 160.354 152.324 162.263C150.242 164.171 148.811 165.906 147.813 167.641C146.989 169.073 146.512 170.548 146.339 171.979C146.295 172.326 146.252 172.76 146.252 173.107C146.252 174.321 146.469 175.536 146.946 176.62C148.16 179.656 150.936 181.782 154.146 182.259C155.664 182.606 157.183 182.433 158.787 181.869ZM156.532 162.306C159.482 159.964 162.258 158.446 164.6 157.925C165.598 157.708 166.465 157.665 167.246 157.795C167.94 157.882 168.547 158.142 169.068 158.489C170.239 159.313 170.976 160.701 170.976 162.306C170.976 163.911 170.282 165.342 169.068 166.123C168.547 166.47 167.94 166.73 167.246 166.817C166.465 166.947 165.554 166.904 164.6 166.687C162.301 166.167 159.525 164.648 156.532 162.306ZM154.493 179.613C152.238 179.309 150.286 177.791 149.418 175.666C148.985 174.625 148.854 173.497 148.985 172.369C149.115 171.285 149.462 170.201 150.112 169.073C150.98 167.511 152.324 165.95 154.32 164.128C157.833 166.991 161.043 168.726 163.906 169.376C165.251 169.68 166.465 169.723 167.593 169.593C168.677 169.42 169.675 169.029 170.542 168.422C172.494 167.077 173.622 164.822 173.622 162.306C173.622 159.79 172.451 157.535 170.542 156.19C169.675 155.583 168.677 155.192 167.593 155.019C166.465 154.845 165.207 154.889 163.906 155.236C161.043 155.886 157.79 157.665 154.276 160.484C152.281 158.706 150.936 157.101 150.069 155.539C149.418 154.412 149.071 153.327 148.941 152.243C148.811 151.072 148.985 149.944 149.375 148.946C150.242 146.821 152.194 145.303 154.45 144.999C155.534 144.869 156.619 144.956 157.833 145.389C158.267 145.52 158.701 145.736 159.221 145.953C159.915 146.257 160.653 146.604 161.39 146.951L161.477 146.994C167.94 149.987 174.533 153.197 180.953 156.537L181.213 156.667C181.864 157.014 182.558 157.361 183.208 157.708C183.902 158.055 184.553 158.446 185.117 158.923C186.158 159.834 186.722 161.048 186.722 162.393C186.722 163.737 186.158 164.952 185.117 165.863C184.553 166.34 183.902 166.73 183.208 167.077C182.558 167.424 181.864 167.771 181.213 168.118L180.953 168.249C174.49 171.545 167.896 174.755 161.433 177.748H161.39C160.696 178.095 159.915 178.399 159.221 178.746C158.701 178.962 158.267 179.179 157.833 179.309C156.705 179.656 155.621 179.787 154.493 179.613Z" fill="white"/>
</svg>
