<svg width="212" height="212" viewBox="0 0 212 212" fill="none" xmlns="http://www.w3.org/2000/svg">
<g opacity="0.9">
<rect width="211.848" height="211.848" rx="7.5" fill="#000021"/>
<path d="M35.2794 161.069C29.6166 161.069 24.2957 158.091 24.198 150.817H30.5442C30.6418 153.942 32.7897 155.357 35.2794 155.357C37.9643 155.357 39.9657 153.697 39.9657 150.524C39.9657 147.644 38.2083 145.74 35.0841 145.74H34.1566V140.224H35.0841C38.2083 140.224 39.4776 138.32 39.4776 135.879C39.4776 132.951 37.5249 131.437 35.2305 131.437C32.8385 131.437 31.0811 132.999 30.9347 135.635H24.5886C24.7838 129.387 29.3726 125.726 35.2305 125.726C41.3814 125.726 45.8237 129.777 45.8237 135.684C45.8237 139.443 44.1151 141.591 41.8208 142.811C44.3592 144.129 46.3119 146.473 46.3119 150.72C46.3119 157.652 41.235 161.069 35.2794 161.069ZM60.9413 161.069C55.3274 161.069 50.397 157.359 50.397 150.72V136.075C50.397 129.436 55.3274 125.726 60.9413 125.726C66.604 125.726 71.5345 129.436 71.5345 136.075V150.72C71.5345 157.359 66.604 161.069 60.9413 161.069ZM60.9413 155.357C63.4798 155.357 65.1884 153.6 65.1884 150.671V136.172C65.1884 133.243 63.4798 131.437 60.9413 131.437C58.4517 131.437 56.7431 133.243 56.7431 136.172V150.671C56.7431 153.6 58.4517 155.357 60.9413 155.357ZM78.5744 160.776L87.2839 142.375H89.9199L81.2105 160.776H78.5744ZM78.3677 151.86C76.3518 151.86 74.6203 150.671 74.6203 148.319V145.761C74.6203 143.409 76.3518 142.22 78.3677 142.22C80.3835 142.22 82.1151 143.409 82.1151 145.761V148.319C82.1151 150.671 80.3835 151.86 78.3677 151.86ZM78.3677 149.689C79.1688 149.689 79.6857 149.198 79.6857 148.19V145.89C79.6857 144.882 79.1688 144.417 78.3677 144.417C77.5924 144.417 77.0755 144.882 77.0755 145.89V148.19C77.0755 149.198 77.5924 149.689 78.3677 149.689ZM90.1008 160.931C88.085 160.931 86.3535 159.742 86.3535 157.39V154.832C86.3535 152.48 88.085 151.291 90.1008 151.291C92.1167 151.291 93.8482 152.48 93.8482 154.832V157.39C93.8482 159.742 92.1167 160.931 90.1008 160.931ZM90.1008 158.734C90.902 158.734 91.4189 158.269 91.4189 157.261V154.961C91.4189 153.953 90.902 153.462 90.1008 153.462C89.3255 153.462 88.7828 153.953 88.7828 154.961V157.261C88.7828 158.269 89.3255 158.734 90.1008 158.734Z" fill="white"/>
<rect opacity="0.4" x="22.1478" y="177.182" width="147.331" height="12.5183" rx="6.25915" fill="white"/>
<path d="M56.4737 66.9834C54.1203 69.2842 51.5237 68.9255 49.0488 67.8407C46.4175 66.7341 44.012 66.6641 41.2331 67.8407C37.7725 69.3454 35.9358 68.908 33.8516 66.9834C22.0847 54.7799 23.8215 36.1903 37.195 35.4904C40.4385 35.6654 42.7094 37.2969 44.6199 37.4325C47.4596 36.8508 50.1777 35.1842 53.2171 35.4029C56.8688 35.7004 59.5999 37.1526 61.4236 39.7639C53.9118 44.3128 55.6921 54.2856 62.5916 57.085C61.2108 60.7373 59.4393 64.3459 56.4693 67.0141L56.4737 66.9834ZM44.3594 35.3592C44.0076 29.9354 48.3714 25.4739 53.3908 25.0365C54.0812 31.2914 47.7461 35.9716 44.3594 35.3592Z" fill="white"/>
</g>
</svg>
