<svg width="70" height="62" viewBox="0 0 70 62" fill="none" xmlns="http://www.w3.org/2000/svg">
<g clip-path="url(#clip0_929_2177)">
<path d="M24.5287 18.0731H46.0181C46.563 18.0766 47.096 18.2328 47.5566 18.5239C48.0172 18.8151 48.3869 19.2295 48.6239 19.7202L51.5481 25.5944C51.6593 25.8421 51.7476 26.0995 51.8119 26.3632L66.1435 22.1812C64.7322 19.7891 62.7221 17.8061 60.3111 16.4274C57.9001 15.0487 55.1715 14.322 52.3942 14.3189H17.6057C14.6164 14.3158 11.6863 15.1517 9.14855 16.7315C6.6108 18.3112 4.56731 20.5714 3.25047 23.2551C1.93364 25.9387 1.39632 28.938 1.69963 31.9118C2.00294 34.8857 3.13471 37.7147 4.96621 40.0772L13.5684 37.5487C16.0744 32.4465 22.576 19.2119 22.576 19.1797C22.7775 18.8417 23.0635 18.5619 23.4058 18.3679C23.7482 18.1739 24.1352 18.0723 24.5287 18.0731Z" fill="#CA1517"/>
<path d="M17.6059 46.2895H52.3944C55.216 46.2923 57.9881 45.5475 60.4284 44.131C62.8688 42.7145 64.8904 40.6768 66.2874 38.2253C67.6845 35.7738 68.4071 32.9959 68.3819 30.1743C68.3567 27.3528 67.5844 24.5883 66.1438 22.1621L4.96643 40.0775C6.45785 42.0106 8.37284 43.5758 10.5641 44.6528C12.7553 45.7297 15.1644 46.2896 17.6059 46.2895Z" fill="white"/>
<path d="M1.61742 30.3074C1.62253 26.0686 3.30865 22.0048 6.30595 19.0075C9.30325 16.0102 13.367 14.3241 17.6058 14.319H52.3942C56.6338 14.319 60.6997 16.0031 63.6975 19.0009C66.6953 21.9987 68.3794 26.0646 68.3794 30.3042C68.3794 34.5437 66.6953 38.6096 63.6975 41.6074C60.6997 44.6052 56.6338 46.2893 52.3942 46.2893H17.6058C13.3678 46.2851 9.30458 44.6001 6.30728 41.604C3.30998 38.6079 1.62338 34.5453 1.61742 30.3074ZM17.6058 13.6016C15.3927 13.5709 13.1955 13.9802 11.1419 14.8059C9.08838 15.6316 7.21936 16.8571 5.64347 18.4113C4.06758 19.9655 2.81624 21.8173 1.96214 23.8592C1.10804 25.9011 0.668213 28.0924 0.668213 30.3058C0.668213 32.5191 1.10804 34.7104 1.96214 36.7523C2.81624 38.7942 4.06758 40.646 5.64347 42.2002C7.21936 43.7544 9.08838 44.9799 11.1419 45.8056C13.1955 46.6313 15.3927 47.0406 17.6058 47.0099H52.3942C54.6074 47.0406 56.8046 46.6313 58.8581 45.8056C60.9117 44.9799 62.7807 43.7544 64.3566 42.2002C65.9325 40.646 67.1838 38.7942 68.0379 36.7523C68.892 34.7104 69.3318 32.5191 69.3318 30.3058C69.3318 28.0924 68.892 25.9011 68.0379 23.8592C67.1838 21.8173 65.9325 19.9655 64.3566 18.4113C62.7807 16.8571 60.9117 15.6316 58.8581 14.8059C56.8046 13.9802 54.6074 13.5709 52.3942 13.6016H17.6058Z" fill="#050703"/>
<path d="M41.3118 27.3381C41.2635 27.4411 39.8191 30.4104 38.8991 32.3052C38.172 30.7707 36.9882 28.2743 36.4059 27.0518H41.1638C41.4244 27.0518 41.3601 27.2352 41.3118 27.3381ZM26.2917 33.1416C26.5362 32.5497 27.0734 31.2339 27.437 30.3428L28.579 33.1416H26.2917ZM58.4004 39.4243L56.3029 35.001C56.1325 34.5998 55.8474 34.2579 55.4835 34.0181C55.1195 33.7783 54.6928 33.6513 54.2569 33.6531H49.4057C49.3713 33.6591 49.3358 33.6552 49.3035 33.6417C49.2712 33.6282 49.2434 33.6058 49.2234 33.577C49.2035 33.5483 49.1922 33.5144 49.1908 33.4794C49.1895 33.4445 49.1982 33.4098 49.2159 33.3796L49.8915 31.9416L51.5933 28.3483C51.799 27.9444 51.909 27.4986 51.915 27.0454C51.9048 26.5396 51.784 26.0422 51.5611 25.5881L48.6176 19.7203C48.3806 19.2297 48.0109 18.8152 47.5503 18.5241C47.0897 18.233 46.5567 18.0768 46.0118 18.0732H24.5288C24.1382 18.0773 23.7552 18.1822 23.4171 18.3778C23.0789 18.5734 22.797 18.853 22.5986 19.1895C22.56 19.2121 12.5874 39.5369 12.5874 39.5369C12.4069 39.8477 12.3118 40.2006 12.3118 40.5599C12.3118 40.9193 12.4069 41.2722 12.5874 41.5829C12.7789 41.8811 13.0428 42.1259 13.3544 42.2946C13.666 42.4634 14.0152 42.5505 14.3696 42.548H20.054C21.5949 42.548 22.174 41.4736 22.4796 40.9042C23.2517 39.5498 23.3482 39.3697 23.4447 39.2442C23.5412 39.1187 23.6281 39.122 23.8629 39.122H31.0979C31.3327 39.122 31.455 39.1477 31.5161 39.2442C31.5772 39.3407 31.6962 39.5659 32.4812 40.9042C32.7836 41.4736 33.3659 42.548 34.9068 42.548H56.4606C56.8191 42.5451 57.171 42.4512 57.4833 42.2751C57.7956 42.099 58.058 41.8464 58.246 41.5411C58.4458 41.2286 58.5654 40.8716 58.594 40.5017C58.6226 40.1319 58.5594 39.7607 58.4101 39.4211" fill="#050703"/>
<path d="M29.605 33.8622C29.5985 33.8755 29.5885 33.8867 29.576 33.8947C29.5635 33.9026 29.5491 33.907 29.5343 33.9072H25.3522C25.3378 33.907 25.3237 33.9029 25.3113 33.8956C25.2989 33.8883 25.2886 33.8779 25.2814 33.8654C25.2727 33.8485 25.2681 33.8298 25.2681 33.8107C25.2681 33.7917 25.2727 33.7729 25.2814 33.756L27.3532 28.4352C27.3569 28.4162 27.3672 28.3991 27.3821 28.3868C27.3971 28.3745 27.4158 28.3678 27.4352 28.3678C27.4545 28.3678 27.4733 28.3745 27.4882 28.3868C27.5032 28.3991 27.5134 28.4162 27.5172 28.4352L29.6179 33.756C29.6259 33.7726 29.63 33.7907 29.63 33.8091C29.63 33.8275 29.6259 33.8456 29.6179 33.8622M28.1864 28.1714C28.1282 28.0193 28.0252 27.8885 27.8911 27.7962C27.757 27.7039 27.598 27.6544 27.4352 27.6544C27.2724 27.6544 27.1134 27.7039 26.9793 27.7962C26.8451 27.8885 26.7422 28.0193 26.684 28.1714L24.5866 33.4922C24.5375 33.6168 24.5188 33.7512 24.5323 33.8844C24.5457 34.0176 24.5908 34.1457 24.6638 34.2579C24.7366 34.3708 24.8366 34.4635 24.9547 34.5276C25.0727 34.5917 25.205 34.625 25.3393 34.6246H29.5214C29.656 34.6244 29.7883 34.5904 29.9064 34.5258C30.0244 34.4611 30.1243 34.3679 30.197 34.2547C30.2702 34.1439 30.316 34.0172 30.3305 33.8852C30.3451 33.7532 30.3279 33.6196 30.2806 33.4955L28.1864 28.1714ZM56.7145 40.5889C56.6861 40.6396 56.6444 40.6816 56.594 40.7104C56.5436 40.7393 56.4863 40.754 56.4282 40.753C56.1065 40.753 49.9171 40.753 38.04 40.753C37.8976 40.7398 37.7607 40.6915 37.6417 40.6123C37.5226 40.5332 37.4251 40.4256 37.358 40.2994C37.2333 40.1115 37.1569 39.8958 37.1356 39.6713C37.1143 39.4468 37.1487 39.2206 37.2357 39.0126L39.2882 34.8144L42.6756 27.8239C42.8024 27.5799 42.8646 27.3075 42.8561 27.0327C42.8477 26.7579 42.7689 26.4898 42.6274 26.254C42.5019 26.0578 42.3278 25.8973 42.1221 25.788C41.9165 25.6786 41.686 25.6242 41.4532 25.6299H34.9259L32.2108 19.8715H46.0277C46.2336 19.8738 46.4347 19.9338 46.6081 20.0447C46.7816 20.1556 46.9204 20.313 47.0089 20.4989C47.9515 22.3744 49.7691 26.0031 49.9042 26.2894C50.0167 26.4881 50.0806 26.7106 50.0906 26.9387C50.1007 27.1669 50.0566 27.3941 49.9621 27.602C49.6404 28.3065 47.8421 32.1057 47.6427 32.5111C47.2405 33.3121 47.1408 34.0391 47.5043 34.6246C47.6407 34.8613 47.8352 35.0593 48.0693 35.2C48.3035 35.3407 48.5696 35.4195 48.8426 35.4289H54.2664C54.4273 35.4289 54.5463 35.4514 54.6911 35.7506L56.7757 40.145C56.7988 40.2136 56.8061 40.2865 56.7972 40.3583C56.7883 40.4302 56.7633 40.4991 56.7242 40.56M35.2669 26.3345H41.4532C41.5651 26.329 41.6765 26.3528 41.7764 26.4036C41.8762 26.4544 41.9611 26.5303 42.0226 26.624C42.095 26.7585 42.1328 26.9088 42.1328 27.0615C42.1328 27.2142 42.095 27.3645 42.0226 27.499L38.8892 33.9651L35.2669 26.3345ZM36.0068 40.7658H34.8938C34.5721 40.7658 34.4241 40.7658 34.0316 40.0356L33.0118 38.2888C32.7993 37.9816 32.512 37.7336 32.1772 37.5682C31.8423 37.4027 31.4708 37.3252 31.0977 37.343H23.8466C23.4709 37.3224 23.0961 37.3986 22.7582 37.5642C22.4203 37.7297 22.1305 37.9792 21.9165 38.2888L20.8999 40.0356C20.5203 40.7658 20.3852 40.7658 20.0538 40.7658H14.4016C14.354 40.7681 14.3065 40.7597 14.2626 40.7413C14.2186 40.723 14.1793 40.6951 14.1474 40.6597C14.136 40.6414 14.1304 40.6201 14.1314 40.5986C14.1312 40.5108 14.1533 40.4245 14.1957 40.3476C14.5174 39.6849 23.7308 20.9074 24.1233 20.1096C24.1637 20.039 24.2216 19.9799 24.2915 19.9382C24.3614 19.8965 24.4409 19.8736 24.5222 19.8715H31.4033L38.4807 34.7951L36.5795 38.7134C36.443 39.0298 36.3866 39.3749 36.4152 39.7183C36.4438 40.0617 36.5566 40.3928 36.7435 40.6822C36.7435 40.7079 36.7821 40.7305 36.8014 40.7562L36.0068 40.7658ZM57.4191 39.8844L55.328 35.4707C55.2468 35.2535 55.1 35.0669 54.9081 34.9366C54.7162 34.8064 54.4886 34.7389 54.2568 34.7437H48.8329C48.6822 34.7336 48.5365 34.6856 48.4094 34.604C48.2822 34.5225 48.1778 34.41 48.1059 34.2772C47.9097 33.8912 47.9901 33.4376 48.2764 32.8649C48.4791 32.4628 50.2967 28.6346 50.6119 27.9269C50.7455 27.6258 50.8094 27.2985 50.7988 26.9693C50.7882 26.6401 50.7035 26.3175 50.5508 26.0256C50.3803 25.6428 47.7585 20.4217 47.6555 20.1997C47.5066 19.8934 47.2748 19.635 46.9866 19.4536C46.6983 19.2722 46.3651 19.1752 46.0245 19.1735H24.5286C24.3201 19.1778 24.1161 19.2357 23.9364 19.3416C23.7567 19.4475 23.6072 19.5979 23.5024 19.7783C23.3898 20.0067 13.8933 39.3825 13.562 40.0452C13.4674 40.1927 13.4147 40.3631 13.4096 40.5382C13.4045 40.7134 13.4472 40.8866 13.533 41.0393C13.6295 41.1791 13.7589 41.293 13.9099 41.3709C14.0608 41.4489 14.2285 41.4886 14.3984 41.4864H20.0538C20.8195 41.4864 21.1347 41.1422 21.5465 40.3766L22.5438 38.6716C22.6907 38.471 22.8853 38.3101 23.1099 38.2034C23.3346 38.0967 23.5822 38.0475 23.8306 38.0604H31.0977C31.3462 38.0469 31.594 38.0958 31.8187 38.2026C32.0435 38.3093 32.238 38.4705 32.3845 38.6716L33.3818 40.3766C33.7968 41.1422 34.1088 41.4864 34.8777 41.4864H35.9907C49.1997 41.4864 56.0744 41.4864 56.425 41.4864C56.6023 41.4836 56.7759 41.4361 56.93 41.3484C57.084 41.2607 57.2135 41.1356 57.3065 40.9846C57.4107 40.8235 57.4741 40.6393 57.4909 40.4481C57.5077 40.2569 57.4775 40.0645 57.403 39.8876" fill="white"/>
<path d="M41.1637 27.0518H36.3929C36.7693 27.8399 37.3934 29.1589 37.9853 30.4071L40.1118 29.7862L41.2988 27.3381C41.36 27.2351 41.4243 27.0518 41.1637 27.0518Z" fill="#CA1517"/>
<path d="M26.2917 33.1417H28.579L27.437 30.3429C27.0638 31.234 26.5362 32.5497 26.2917 33.1417Z" fill="#CA1517"/>
</g>
<defs>
<clipPath id="clip0_929_2177">
<rect width="68.2" height="33.4084" fill="white" transform="translate(0.900024 13.6017)"/>
</clipPath>
</defs>
</svg>
