<svg width="226" height="106" viewBox="0 0 226 106" fill="none" xmlns="http://www.w3.org/2000/svg">
<rect width="225.35" height="105.924" rx="7.5" fill="#F0AF32"/>
<path d="M26.1378 74.5754L33.1736 56.4529H27.4475V59.8642H23.6707L23.6707 52.8893H37.4682V56.4529L30.4324 74.5754H26.1378ZM41.4038 74.5754L46.8378 63.0945H48.4826L43.0485 74.5754H41.4038ZM41.2748 69.0124C40.017 69.0124 38.9367 68.2706 38.9367 66.8032V65.2069C38.9367 63.7395 40.017 62.9978 41.2748 62.9978C42.5325 62.9978 43.6129 63.7395 43.6129 65.2069V66.8032C43.6129 68.2706 42.5325 69.0124 41.2748 69.0124ZM41.2748 67.6579C41.7746 67.6579 42.0971 67.3515 42.0971 66.7226V65.2875C42.0971 64.6586 41.7746 64.3684 41.2748 64.3684C40.791 64.3684 40.4685 64.6586 40.4685 65.2875V66.7226C40.4685 67.3515 40.791 67.6579 41.2748 67.6579ZM48.5955 74.6722C47.3377 74.6722 46.2574 73.9304 46.2574 72.4631V70.8667C46.2574 69.3994 47.3377 68.6576 48.5955 68.6576C49.8532 68.6576 50.9336 69.3994 50.9336 70.8667V72.4631C50.9336 73.9304 49.8532 74.6722 48.5955 74.6722ZM48.5955 73.3016C49.0953 73.3016 49.4178 73.0113 49.4178 72.3825V70.9473C49.4178 70.3185 49.0953 70.0121 48.5955 70.0121C48.1117 70.0121 47.7731 70.3185 47.7731 70.9473V72.3825C47.7731 73.0113 48.1117 73.3016 48.5955 73.3016Z" fill="white"/>
<rect opacity="0.6" x="22.1478" y="84.6323" width="70.2951" height="7.81057" rx="3.90528" fill="white"/>
<path fill-rule="evenodd" clip-rule="evenodd" d="M167.774 54.5574C165.975 53.1654 163.503 52.7013 163.503 52.7013C163.503 52.7013 165.752 51.3093 166.65 50.1493C167.549 48.7573 168.001 46.9013 168.001 45.7412C168.001 44.8132 168.224 40.4052 164.85 37.8531C162.378 35.9971 159.452 35.0691 155.403 34.8371V26.2529L150.229 26.2529V34.8371H146.181V26.2529L140.782 26.2529L140.782 34.8371H130.435V40.4052L133.584 40.4052C134.484 40.4052 135.834 40.4052 136.511 41.1012C137.183 42.0292 137.183 42.2612 137.183 43.6532V65.9232C137.183 66.3896 137.183 67.0832 136.733 67.5496C136.283 68.0136 135.834 68.0136 134.709 68.0136H131.56L130.435 74.5097L140.782 74.5097V83.0938H146.181V74.5097H150.229V83.0938H155.63V74.2777C156.977 74.2777 158.327 74.0434 159.004 74.0434C160.576 73.8137 163.953 73.3497 167.099 71.2616C170.251 68.9416 170.923 65.4615 171.148 61.9815C170.923 58.2694 169.576 55.9494 167.774 54.5574V54.5574ZM146.181 40.8691C146.181 40.8691 147.757 40.6371 149.555 40.6371C151.131 40.6371 152.704 40.6371 154.953 41.3331C157.202 42.0291 158.327 43.6532 158.552 45.7412C158.552 47.5972 157.652 48.9892 156.303 49.9173C154.728 50.8453 152.704 51.3093 150.904 51.3093H146.405V40.8691L146.181 40.8691ZM157.879 66.6215C156.755 67.3175 154.278 68.0135 151.804 68.0135C149.555 68.2432 145.956 68.0135 145.956 68.0135V56.4134C145.956 56.4134 149.33 56.1814 152.029 56.4134C154.728 56.643 156.755 57.3414 157.879 57.8031C158.777 58.2694 160.576 59.4294 160.576 61.9814C160.576 64.9975 159.227 65.9232 157.879 66.6215V66.6215Z" fill="white"/>
</svg>
