<svg width="40" height="72" viewBox="0 0 40 72" fill="none" xmlns="http://www.w3.org/2000/svg">
<g id="_&#195;&#171;&#195;&#142;&#195;&#147;&#195;&#136;_1" clip-path="url(#clip0_20_14030)">
<path id="Wreath3" d="M0.608369 37.0623L0.012311 35.784C0.00410367 35.7665 0 35.747 0 35.7276V35.3798C0 35.3459 0.012311 35.3131 0.0359071 35.2895C0.0584773 35.2659 0.0892548 35.2556 0.120032 35.2556C1.65686 35.3541 3.444 35.588 5.04546 36.5698C7.18655 37.883 8.57769 39.903 9.29686 42.7479C9.30507 42.7807 9.30096 42.8166 9.28455 42.8464C9.26814 42.8761 9.24146 42.8967 9.21068 42.9028C8.96344 42.9572 8.7244 42.9798 8.48946 42.9798C7.92829 42.9798 7.38866 42.8484 6.81209 42.6915C4.08418 41.9467 1.99746 40.0528 0.609395 37.0623H0.608369ZM39.3419 67.611C35.7347 65.2586 31.2771 66.2199 28.2507 70.0024C28.2271 70.0311 28.2178 70.0701 28.225 70.1081C28.2322 70.146 28.2538 70.1778 28.2856 70.1953C29.609 70.9124 31.0463 71.2561 32.4641 71.2561C35.1336 71.2561 37.7343 70.0383 39.3716 67.7957C39.3921 67.768 39.4003 67.731 39.3942 67.6962C39.388 67.6613 39.3685 67.6305 39.3408 67.612L39.3419 67.611ZM7.04395 35.1397C7.05728 35.1459 7.07165 35.1479 7.08498 35.1479C7.10448 35.1479 7.12294 35.1428 7.13936 35.1325C7.16911 35.1151 7.18963 35.0833 7.19578 35.0474C7.97753 30.479 5.56457 25.9424 1.45783 24.2609C1.425 24.2475 1.38909 24.2516 1.35934 24.2711C1.32959 24.2906 1.3101 24.3255 1.30599 24.3635C0.832019 29.054 3.1906 33.4849 7.04292 35.1407L7.04395 35.1397ZM16.8794 57.0205C16.9102 57.0081 16.9358 56.9815 16.9471 56.9476C16.9594 56.9138 16.9564 56.8758 16.941 56.844C14.8984 52.7475 10.3495 50.9132 6.35966 52.5762C6.32786 52.5895 6.30323 52.6172 6.29298 52.6531C6.28169 52.688 6.28682 52.727 6.30426 52.7588C8.01959 55.7514 11.0953 57.5273 14.1464 57.5273C15.0728 57.5273 15.9971 57.3641 16.8794 57.0205ZM13.7381 49.997C13.7463 49.9991 13.7545 50.0001 13.7617 50.0001C13.7863 50.0001 13.8099 49.9919 13.8294 49.9755C17.2231 47.1737 18.208 42.1631 16.2239 37.7917C16.2085 37.7578 16.1797 37.7332 16.1459 37.726C16.112 37.7178 16.0771 37.7281 16.0505 37.7517C12.8517 40.655 11.7796 46.1201 13.6621 49.9355C13.6775 49.9673 13.7052 49.9899 13.737 49.9981L13.7381 49.997ZM9.40663 15.8042C9.40663 15.8042 9.41176 15.8042 9.41382 15.8042C9.44459 15.8042 9.47434 15.7899 9.49589 15.7653C12.6639 12.0966 12.151 6.34733 9.68466 3.27882C9.66209 3.25112 9.62926 3.23573 9.59438 3.23675C9.55949 3.23881 9.52872 3.25727 9.5082 3.28805C6.93828 7.17628 6.86544 12.0689 9.32251 15.7529C9.342 15.7827 9.37278 15.8012 9.40663 15.8032V15.8042ZM14.4808 19.7602C14.4716 19.7253 14.449 19.6955 14.4182 19.6812C14.3875 19.6658 14.3526 19.6668 14.3228 19.6832C10.4603 21.7453 8.3048 26.1465 8.95728 30.6349C8.96241 30.6718 8.98293 30.7036 9.01165 30.7221C9.0291 30.7334 9.04859 30.7395 9.06911 30.7395C9.08244 30.7395 9.09578 30.7375 9.10809 30.7313C13.9597 28.7564 15.3467 23.0913 14.4808 19.7602ZM38.8156 64.7405C38.8156 64.7405 38.8197 64.7405 38.8217 64.7405C38.8525 64.7405 38.8823 64.7271 38.9028 64.7025C38.9253 64.6769 38.9366 64.641 38.9336 64.6051C38.6381 61.1046 36.3318 56.7465 30.8062 55.9802C30.7714 55.9761 30.7375 55.9884 30.7129 56.0151C30.6883 56.0417 30.6759 56.0787 30.679 56.1166C31.0545 60.0797 34.4134 64.4902 38.8135 64.7405H38.8156ZM19.7602 43.822C19.7243 43.8231 19.6915 43.8426 19.6709 43.8754C17.1195 47.8826 17.1031 53.0337 19.633 56.4008C19.6545 56.4295 19.6915 56.4459 19.7202 56.4459C19.753 56.4459 19.7848 56.4295 19.8064 56.4018C22.6184 52.7793 22.6379 47.7421 19.8525 43.8692C19.83 43.8385 19.7961 43.82 19.7602 43.822ZM27.8372 61.3016C27.8547 61.3129 27.8742 61.318 27.8926 61.318C27.9049 61.318 27.9183 61.316 27.9306 61.3108C27.9614 61.2985 27.986 61.2719 27.9983 61.238C29.5187 56.8594 27.8588 51.9329 24.0506 49.5251C24.0198 49.5056 23.9829 49.5036 23.95 49.5179C23.9172 49.5333 23.8936 49.5631 23.8844 49.601C23.3119 51.9832 23.4289 54.4003 24.224 56.5927C24.9657 58.6383 26.2491 60.3106 27.8362 61.3016H27.8372ZM31.1038 65.2986C31.1017 65.2627 31.0863 65.2299 31.0607 65.2073C27.7634 62.3942 22.7538 62.9338 19.8946 66.4107C19.872 66.4384 19.8618 66.4743 19.8669 66.5112C19.872 66.5471 19.8905 66.58 19.9182 66.5994C21.4109 67.6284 23.1119 68.1311 24.8005 68.1311C27.0996 68.1311 29.3761 67.1986 31.0699 65.395C31.0935 65.3704 31.1058 65.3355 31.1038 65.2996V65.2986ZM13.5072 9.84366C13.5072 9.84366 13.5175 9.84366 13.5226 9.84263C17.6796 9.23324 20.8364 5.00749 20.7092 0.222609C20.7081 0.185676 20.6917 0.149768 20.664 0.127198C20.6373 0.104628 20.6014 0.0964208 20.5686 0.105654C17.1882 1.01564 13.6591 4.33961 13.3944 9.71234C13.3923 9.74928 13.4057 9.78518 13.4303 9.8098C13.4508 9.83135 13.4785 9.84263 13.5072 9.84263V9.84366ZM10.3802 41.1075C10.3925 41.1126 10.4059 41.1146 10.4182 41.1146C10.4377 41.1146 10.4561 41.1095 10.4736 41.0993C14.0776 38.8802 15.6473 34.0368 14.2921 29.3217C14.2818 29.2848 14.2551 29.255 14.2223 29.2417C14.1884 29.2284 14.1515 29.2345 14.1217 29.2561C10.5146 31.8988 8.87726 36.9638 10.3135 41.0367C10.3259 41.0705 10.3505 41.0962 10.3813 41.1085L10.3802 41.1075ZM6.9075 25.3904C6.92802 25.4089 6.95367 25.4191 6.97931 25.4191C6.98547 25.4191 6.99162 25.4191 6.99675 25.4171C7.02856 25.4109 7.05728 25.3904 7.07472 25.3607C8.08833 23.5868 8.48023 21.4057 8.17758 19.2216C7.85339 16.8784 6.77618 14.7475 5.06495 13.0579C5.03828 13.0322 5.0034 13.0209 4.96749 13.0281C4.93261 13.0353 4.90286 13.0609 4.88747 13.0958C2.99978 17.337 3.86771 22.6215 6.90647 25.3894L6.9075 25.3904ZM23.631 62.0064C23.6371 61.9715 23.6289 61.9367 23.6094 61.909C22.4573 60.2716 20.7543 59.141 18.8133 58.7255C16.7214 58.2782 14.5475 58.6866 12.5275 59.9064C12.4967 59.9248 12.4762 59.9566 12.47 59.9936C12.4639 60.0305 12.4741 60.0685 12.4967 60.0972C14.2131 62.2106 16.8014 63.3514 19.3231 63.3514C20.8323 63.3514 22.3178 62.9421 23.5787 62.0885C23.6064 62.07 23.6248 62.0403 23.631 62.0054V62.0064ZM11.8935 50.1355C11.9242 50.1263 11.9489 50.1037 11.9642 50.074C11.9786 50.0432 11.9817 50.0073 11.9704 49.9755C10.6152 45.7641 5.77078 43.0023 1.99849 44.2929C1.96771 44.3032 1.94309 44.3278 1.92975 44.3596C1.91641 44.3914 1.91641 44.4284 1.92975 44.4612C3.46657 48.3176 7.06652 50.3797 10.1494 50.3797C10.7578 50.3797 11.3456 50.2997 11.8945 50.1366L11.8935 50.1355ZM10.8542 19.0954C10.8747 19.1231 10.9045 19.1405 10.9373 19.1426C11.0225 19.1467 11.1086 19.1498 11.1948 19.1498C13.0415 19.1498 15.0851 18.1208 16.7142 16.3572C18.3065 14.6347 19.2206 12.4823 19.159 10.5998C19.158 10.5649 19.1426 10.5321 19.119 10.5095C19.0944 10.4869 19.0626 10.4767 19.0308 10.4818C14.804 11.1322 11.5857 14.4747 10.8327 18.9979C10.8265 19.0328 10.8347 19.0697 10.8552 19.0974L10.8542 19.0954Z" fill="#13C636"/>
</g>
<defs>
<clipPath id="clip0_20_14030">
<rect width="39.4978" height="71.3012" fill="white"/>
</clipPath>
</defs>
</svg>
