<svg width="150" height="40" viewBox="0 0 150 40" fill="none" xmlns="http://www.w3.org/2000/svg">
<path fill-rule="evenodd" clip-rule="evenodd" d="M30.9779 8.98432C32.313 8.98432 33.9712 7.22269 33.9712 5.00423V4.99826C33.9712 3.16795 32.5255 1.47798 29.8764 1.47798C24.6831 1.47798 18.4361 7.00771 12.7847 13.5228C7.84283 19.1928 3.07152 25.887 3.07152 30.7121C3.07152 33.0381 4.2419 34.5519 6.81912 34.5519C13.0332 34.5519 20.5553 28.0727 23.9796 23.9134C27.3351 19.8646 32.8757 15.6009 37.2938 15.6009C39.0568 15.6009 40.5086 16.6609 40.5086 18.4524C40.5086 19.9691 39.871 21.5546 39.1287 22.9968C39.0619 23.1023 39.0256 23.2243 39.0239 23.3491C39.0239 23.4566 39.1287 23.7372 40.1165 23.2804C43.5767 21.6561 46.3335 19.5362 49.2639 15.9532H52.9367L43.0828 28.3862C40.5774 31.5571 40.9695 32.9664 41.8855 32.9664C42.8014 32.9664 45.1332 31.9811 47.8511 29.3386C49.6185 27.5942 51.2694 25.736 52.793 23.7761C52.8289 23.7761 52.8289 23.7372 52.8289 23.7372C56.5736 19.0883 59.046 15.9532 59.046 15.9532H63.069L53.4096 28.0697C51.9639 29.9388 51.3652 31.2436 51.3652 32.0527C51.3652 32.7007 51.7454 32.9485 52.4219 32.9485C53.0983 32.9485 54.4723 32.7096 57.9295 29.9627C60.0562 28.2428 61.9974 26.3065 63.7215 24.1851L72.1027 13.69H66.8794L68.0049 12.4956H73.0935C75.2547 9.78751 76.9848 7.60189 76.9848 7.60189H80.912C80.912 7.60189 79.2447 9.71585 77.0207 12.4956H84.7164C86.8776 9.78751 88.6077 7.60189 88.6077 7.60189H92.5289C92.5289 7.60189 90.8617 9.71585 88.6376 12.4956H94.3009L93.2024 13.69H87.6828L76.3472 28.0936C74.8985 29.9627 74.2998 31.2675 74.2998 32.0766C74.2998 32.7246 74.7219 32.9724 75.3594 32.9724C77.1943 32.9724 81.2921 30.954 86.24 26.3439C89.7601 23.0207 94.0465 18.3837 98.74 12.5703L99.7308 13.3794C98.5757 14.5642 98.0632 16.2312 98.3539 17.8582L98.7789 21.0231C98.8833 21.9153 98.9423 22.8122 98.9555 23.7104C98.9555 27.2307 97.8929 28.9206 97.0817 30.1896C95.7078 32.3006 92.8432 34.2025 90.266 34.2025C88.0779 34.2025 86.4166 32.5842 86.4166 30.7509C86.4166 28.849 87.7606 27.8666 89.1375 27.8666C89.6267 27.8463 90.103 28.026 90.4561 28.3642C90.8093 28.7024 91.0088 29.1698 91.0083 29.6581C91.0083 30.7479 90.2301 31.3839 89.4548 31.3839C89.3336 31.3839 89.2378 31.3635 89.1559 31.346C89.0234 31.3177 88.9275 31.2972 88.8202 31.3839C88.6827 31.5107 88.6054 31.6898 88.6077 31.8766C88.6077 32.5484 89.2782 32.9336 90.0205 32.9336C93.0917 32.9336 94.5045 29.3416 95.3516 26.7708C96.1571 24.2886 96.5859 21.7001 96.6237 19.0913C96.6483 18.3245 96.7182 17.5598 96.8333 16.8012C93.8696 20.5758 90.5978 24.0992 87.0512 27.3352C82.4625 31.5243 78.2629 34.1339 75.2606 34.1339C72.2584 34.1339 71.9381 31.2436 72.896 28.7056C68.0917 32.9007 65.3648 34.1667 63.5689 34.1667C60.5756 34.1667 60.1026 31.5511 61.0934 28.9087C56.6813 32.9634 54.0592 34.1577 52.2632 34.1577C49.4405 34.1577 48.803 31.8676 49.7219 29.2252C46.0911 33.0321 42.978 34.1577 41.6011 34.1577C40.2242 34.1577 39.1616 33.0082 39.1616 31.5153C39.1616 29.6163 40.0446 27.7502 42.4841 24.6479L44.7112 21.9607L44.6393 21.9249C42.523 23.4767 40.1445 24.6367 37.6171 25.3496C33.5911 30.5957 28.8258 34.2264 25.4733 34.2264C23.0457 34.2264 21.2827 32.5126 21.2827 30.0463C21.2811 29.5817 21.3405 29.119 21.4593 28.6698C16.2659 33.6113 10.7493 36 6.55871 36C2.85002 36 0.730774 33.3546 0.730774 29.058C0.730774 24.7614 3.16432 18.8286 9.02817 12.2598C17.2896 2.92312 24.8477 0 29.7208 0C33.5312 0 35.2643 2.71112 35.2643 5.00124C35.2643 8.03185 32.4387 10.6743 29.9333 10.6743C28.4366 10.6743 27.2393 9.72481 27.2393 8.45583C27.2189 7.96791 27.3991 7.49282 27.7382 7.14052C28.0772 6.78823 28.5457 6.58927 29.0353 6.5897C29.4495 6.58067 29.8495 6.74062 30.1427 7.03256C30.436 7.32451 30.5971 7.72316 30.5888 8.13635C30.5888 8.28529 30.5682 8.38507 30.551 8.4682C30.5289 8.57505 30.5125 8.6544 30.5529 8.77532C30.6464 8.91636 30.8088 8.99623 30.9779 8.98432ZM63.7395 32.9724C63.1049 32.9724 62.6828 32.7246 62.6828 32.0766C62.6828 31.2675 63.2815 29.9627 64.7303 28.0936L76.0658 13.69H83.7287C82.6243 15.0767 81.6022 16.3619 80.6664 17.5386C78.2513 20.5753 76.4109 22.8894 75.2157 24.3613C73.4579 26.3873 71.5203 28.2511 69.4267 29.9298C65.9635 32.6738 64.41 32.9724 63.7395 32.9724ZM35.9498 25.1884C35.1896 26.1391 34.375 27.0453 33.5103 27.9025C29.595 31.8467 26.9819 32.9037 25.4972 32.9037C24.3658 32.9037 23.836 32.1602 23.836 31.4108C23.836 29.049 26.3803 25.4392 30.5469 21.3367C34.4382 17.5327 36.6233 16.8997 37.5722 16.8997C37.9965 16.8654 38.4149 17.0159 38.7196 17.3124C39.0243 17.6089 39.1855 18.0224 39.1616 18.4464C39.1014 19.4521 38.8377 20.4353 38.3863 21.3367C37.189 21.5128 35.2793 22.6743 35.2793 24.0239C35.2646 24.5072 35.5239 24.9575 35.9498 25.1884Z" fill="#282829"/>
<rect x="108.731" width="1" height="40" fill="#A39161"/>
<path fill-rule="evenodd" clip-rule="evenodd" d="M134.163 4H132.305L133.232 4.92744L134.163 4ZM131.739 6.41607L132.678 5.47977L131.739 4.54347V6.41607ZM130.664 18.3458H128.96V17.3681H130.664V18.3458ZM138.603 20.3601V19.0251H127.867V20.3601H138.603ZM144.428 22.5625C145.018 22.3523 145.718 22.1028 146.475 22.1028L146.472 22.1116C148.481 22.1116 149.731 23.745 149.731 25.4936C149.696 26.1884 149.566 26.8752 149.343 27.5345L148.321 30.751H148.297C147.546 30.718 146.891 30.2342 146.641 29.5282C146.952 29.0084 147.515 28.6899 148.122 28.6894C147.926 28.3314 147.612 28.0518 147.233 27.8978C147.302 27.3236 147.038 26.7601 146.552 26.4446C146.064 26.7714 145.794 27.3377 145.847 27.9214C145.479 28.082 145.169 28.351 144.958 28.6923C145.557 28.6725 146.118 28.9867 146.413 29.5075C146.028 30.1426 145.231 30.4586 144.457 30.4586C143.453 30.4586 142.976 29.8708 142.638 29.1679C142.295 29.8679 141.75 30.4586 140.745 30.4586C139.981 30.4586 139.181 30.1426 138.796 29.5075C139.09 28.9862 139.651 28.6718 140.251 28.6923C140.039 28.3516 139.729 28.0828 139.362 27.9214C139.413 27.3382 139.143 26.7732 138.657 26.4446C138.17 26.7603 137.905 27.3232 137.972 27.8978C137.594 28.0518 137.28 28.3314 137.084 28.6894C137.691 28.6905 138.253 29.0088 138.565 29.5282C138.313 30.2347 137.657 30.7184 136.906 30.751L135.922 27.5256C135.698 26.8665 135.567 26.1797 135.531 25.4847C135.531 23.7361 136.784 22.1028 138.79 22.1028C139.544 22.1028 140.242 22.3514 140.832 22.5615C141.167 22.6808 141.468 22.7876 141.723 22.8294C141.63 22.6883 141.583 22.5225 141.587 22.3538C141.587 21.778 142.055 21.3112 142.632 21.3112C143.21 21.3112 143.678 21.778 143.678 22.3538C143.681 22.5223 143.633 22.6877 143.542 22.8294C143.796 22.7878 144.094 22.6814 144.428 22.5625ZM140.79 26.9113H144.49L142.621 28.6274L140.79 26.9113ZM143.826 25.1509C145.521 25.3341 146.987 25.7417 148.187 26.6691C148.331 26.277 148.409 25.8638 148.418 25.4463C148.418 24.2442 147.666 23.4083 146.439 23.4083C145.877 23.4083 145.386 23.5556 144.854 23.7151L144.854 23.7151C144.227 23.9033 143.544 24.1083 142.621 24.1083C141.698 24.1083 141.015 23.9035 140.388 23.7155C139.855 23.5558 139.363 23.4083 138.799 23.4083C137.62 23.4083 136.823 24.2442 136.823 25.4463C136.831 25.8633 136.907 26.2763 137.048 26.6691C138.254 25.7417 139.732 25.3341 141.415 25.1509C142.217 25.0705 143.025 25.0705 143.826 25.1509ZM127.515 17.1052C128.265 17.0691 128.921 16.5869 129.177 15.8824C128.862 15.3652 128.302 15.0476 127.695 15.0436C127.889 14.6838 128.204 14.4035 128.584 14.252C128.517 13.6781 128.781 13.1157 129.265 12.7989C129.755 13.1242 130.025 13.6919 129.968 14.2757C130.336 14.4354 130.647 14.7046 130.856 15.0466C130.257 15.0283 129.696 15.3419 129.399 15.8618C129.787 16.4968 130.584 16.8128 131.354 16.8128C132.355 16.8128 132.903 16.2221 133.241 15.5221C133.582 16.2251 134.059 16.8128 135.06 16.8128C135.833 16.8128 136.63 16.4968 137.015 15.8618C136.72 15.3429 136.162 15.0292 135.564 15.0466C135.773 14.7042 136.084 14.4349 136.453 14.2757C136.395 13.6919 136.665 13.1242 137.155 12.7989C137.64 13.1148 137.904 13.6779 137.836 14.252C138.215 14.4061 138.529 14.6857 138.725 15.0436C138.118 15.0453 137.556 15.3635 137.244 15.8824C137.497 16.5874 138.152 17.0702 138.903 17.1052H138.929L139.957 13.8858C140.182 13.227 140.313 12.5399 140.345 11.8448C140.345 10.0992 139.092 8.46589 137.087 8.46589C136.335 8.46589 135.639 8.71429 135.05 8.9246C134.711 9.04583 134.407 9.15439 134.148 9.19543C134.241 9.05352 134.29 8.88677 134.287 8.71694C134.257 8.16186 133.797 7.72691 133.24 7.72691C132.682 7.72691 132.222 8.16186 132.192 8.71694C132.19 8.88677 132.238 9.05352 132.332 9.19543C132.074 9.15448 131.772 9.04628 131.433 8.92535C130.845 8.71489 130.148 8.46589 129.396 8.46589C127.399 8.46589 126.137 10.0992 126.137 11.8448C126.171 12.5395 126.301 13.2262 126.522 13.8858L127.515 17.1052ZM131.395 13.2744L133.244 14.9786L135.096 13.2744H131.395ZM129.422 9.75957C129.987 9.75957 130.48 9.90789 131.013 10.0683C131.64 10.257 132.323 10.4625 133.244 10.4625C134.165 10.4625 134.847 10.2573 135.475 10.0686C136.008 9.90808 136.502 9.75957 137.069 9.75957C138.254 9.75957 139.045 10.5984 139.045 11.8005C139.035 12.2177 138.958 12.6306 138.817 13.0233C137.611 12.0988 136.136 11.6883 134.456 11.5081C133.652 11.4247 132.842 11.4247 132.038 11.5081C130.359 11.6883 128.877 12.0988 127.674 13.0233C127.533 12.6306 127.456 12.2177 127.446 11.8005C127.446 10.5984 128.243 9.75957 129.422 9.75957ZM143.204 19.1167L144.143 18.1804V20.053L143.204 19.1167ZM145.219 31.9679H146.925V30.9903H145.219V31.9679ZM131.958 17.755L133.232 16.9487L134.509 17.755L133.232 18.5732L131.958 17.755ZM143.566 17.6369H141.705L142.638 18.5614L143.566 17.6369ZM143.566 20.5905H141.705L142.638 19.6631L143.566 20.5905ZM134.731 4.53461L133.789 5.47091L134.731 6.40721V4.53461ZM142.081 19.1167L141.142 20.053V18.1804L142.081 19.1167ZM132.308 6.95658H134.165L133.235 6.02914L132.308 6.95658ZM148.007 32.662V34H137.27V32.662H148.007ZM127.672 22.1176C126.916 22.1176 126.218 22.3663 125.628 22.5764C125.294 22.6957 124.994 22.8024 124.739 22.8441C124.832 22.7034 124.881 22.5375 124.878 22.3686C124.848 21.8135 124.388 21.3786 123.831 21.3786C123.273 21.3786 122.813 21.8135 122.783 22.3686C122.779 22.5377 122.828 22.704 122.923 22.8441C122.667 22.8024 122.366 22.6954 122.03 22.576C121.44 22.366 120.741 22.1176 119.99 22.1176C117.987 22.1176 116.731 23.7509 116.731 25.4995C116.764 26.1942 116.894 26.881 117.116 27.5404L118.099 30.751C118.85 30.7168 119.506 30.2337 119.759 29.5282C119.446 29.0093 118.884 28.6911 118.277 28.6894C118.472 28.3305 118.786 28.0506 119.166 27.8978C119.097 27.3243 119.36 26.7613 119.844 26.4446C120.335 26.7697 120.605 27.3372 120.55 27.9214C120.92 28.079 121.231 28.3487 121.438 28.6923C120.84 28.6736 120.281 28.9877 119.987 29.5075C120.372 30.1426 121.172 30.4586 121.939 30.4586C122.94 30.4586 123.482 29.8679 123.823 29.1679C124.17 29.8708 124.644 30.4586 125.645 30.4586C126.421 30.4586 127.218 30.1426 127.6 29.5075C127.307 28.9867 126.747 28.6723 126.149 28.6923C126.359 28.351 126.669 28.082 127.038 27.9214C126.983 27.3382 127.252 26.7717 127.74 26.4446C128.227 26.7591 128.492 27.3233 128.421 27.8978C128.8 28.0518 129.114 28.3314 129.31 28.6894C128.703 28.6911 128.141 29.0093 127.829 29.5282C128.081 30.2342 128.737 30.7176 129.488 30.751H129.511L130.533 27.5345C130.756 26.8752 130.887 26.1884 130.921 25.4935C130.921 23.745 129.668 22.1116 127.663 22.1116L127.672 22.1176ZM121.983 26.9113L123.811 28.6274L125.681 26.9113H121.983ZM129.387 26.6691C128.181 25.7417 126.703 25.3341 125.02 25.1509C124.219 25.0705 123.412 25.0705 122.611 25.1509C120.926 25.3341 119.447 25.7417 118.245 26.6691C118.108 26.2717 118.037 25.8547 118.034 25.4345C118.034 24.2324 118.825 23.3965 120.01 23.3965C120.575 23.3965 121.068 23.5443 121.6 23.7041C122.226 23.892 122.907 24.0965 123.826 24.0965C124.746 24.0965 125.431 23.8916 126.06 23.7035C126.593 23.5439 127.086 23.3965 127.648 23.3965C128.871 23.3965 129.627 24.2324 129.627 25.4345C129.618 25.8515 129.542 26.2645 129.402 26.6573L129.387 26.6691ZM128.107 31.9738H126.401V30.9962H128.107V31.9738ZM142.638 30.5886L141.362 31.4067L142.638 32.2219L143.912 31.4067L142.638 30.5886ZM122.555 31.4067L123.826 30.5886L125.103 31.4067L123.826 32.2219L122.555 31.4067ZM138.363 31.9738H140.064V30.9962H138.363V31.9738ZM124.759 20.6053H122.902L123.826 19.6779L124.759 20.6053ZM135.81 18.3458H137.516V17.3681H135.81V18.3458ZM122.902 17.6369H124.759L123.826 18.5614L122.902 17.6369ZM125.328 18.1804L124.392 19.1167L125.328 20.053V18.1804ZM129.2 34H118.464V32.662H129.2V34ZM119.554 31.9827H121.261V31.005H119.554V31.9827ZM122.339 20.0677V18.1951L123.278 19.1314L122.339 20.0677Z" fill="#A39161"/>
</svg>
