<svg width="246" height="44" viewBox="0 0 246 44" fill="none" xmlns="http://www.w3.org/2000/svg">
<path fill-rule="evenodd" clip-rule="evenodd" d="M60.1154 31H66.2106C73.2444 31 76.1154 27.8624 76.1154 21.9877C76.1154 16.0624 72.6592 13 66.2106 13H60.1154V31ZM63.7703 15.7383H65.7689C70.0533 15.7383 72.3832 17.6554 72.3832 22.0123C72.3832 25.9711 70.76 28.3605 65.7248 28.2607H63.7703V15.7383Z" fill="#1C62B7"/>
<path fill-rule="evenodd" clip-rule="evenodd" d="M78.1154 24.4137C78.1154 21.305 79.8262 18 84.7573 18C89.6772 18 91.3656 21.5742 91.086 25.2466L81.6376 25.2709C81.6711 27.2786 82.4203 28.919 84.7796 28.919C86.1773 28.919 87.3737 28.0133 87.3737 26.6178H90.7953C90.5941 30.0695 87.6309 31.0248 84.2876 30.9995C80.0833 30.8771 78.1154 28.1114 78.1154 24.4137ZM84.6454 20.0805C82.711 20.0805 81.8724 21.5742 81.7718 23.1903H87.3737C87.452 21.4021 86.524 20.0805 84.6454 20.0805Z" fill="#1C62B7"/>
<path d="M105.115 31.5962H101.718L101.696 29.5262C101.126 31.1663 99.5455 32 97.61 32C95.3089 32 93.1369 30.5863 93.1154 27.2038V19H96.5563V26.7238C96.5347 28.5413 97.2337 29.5513 98.9218 29.5763C100.449 29.5763 101.696 28.6926 101.696 26.245V19H105.115V31.5962Z" fill="#1C62B7"/>
<path d="M109.729 18.6153V16.6978L112.985 15V18.6153H116.094V20.968H112.985V26.8156C112.985 28.004 113.396 28.6839 114.619 28.7321C115.083 28.7321 115.504 28.7802 116.115 28.6107V30.6977C114.524 30.9163 112.69 31.3285 111.173 30.5272C110.024 29.9215 109.729 28.8534 109.729 27.1556V20.968H107.115V18.6153H109.729Z" fill="#1C62B7"/>
<path d="M129.708 25.3667C130.286 26.4441 130.263 27.8634 129.549 28.8427C128.315 30.6039 125.63 31.045 123.557 30.9965C120.612 30.8245 117.995 30.1154 118.12 26.8356H121.699C121.665 28.2549 122.617 28.7689 123.976 28.8174C125.29 28.8174 126.604 28.4016 126.604 27.2757C126.604 26.3703 125.687 25.9788 124.509 25.7339C123.161 25.4649 122.198 25.3424 120.691 24.7789C119.49 24.2408 118.301 23.3354 118.301 21.6227C118.301 20.2023 119.49 19.126 121.042 18.5382C122.084 18.1224 123.376 18 124.486 18C126.978 18 129.685 18.8073 129.527 21.744H126.162C126.162 21.304 126.06 20.8144 125.664 20.521C124.928 19.909 122.662 19.8351 121.96 20.8386C121.167 22.5524 123.614 22.6748 126.321 23.3596C128.032 23.7269 129.187 24.3874 129.708 25.3667Z" fill="#1C62B7"/>
<path d="M138.507 18C141.262 18 144.115 19.222 144.115 22.5699L140.728 22.5446C140.728 20.9813 139.846 20.0279 138.18 20.1017C137.745 20.1259 137.288 20.2723 136.917 20.4683C135.872 21.055 135.545 22.6921 135.545 24.3292C135.545 26.0632 135.981 27.7498 136.765 28.3597C137.288 28.8485 138.224 28.996 139.03 28.8485C140.369 28.6294 140.772 27.3579 140.805 26.2591L144.115 26.2349C144.158 29.7282 141.208 31.0482 138.126 30.9987C134.01 30.8522 132.115 28.2628 132.115 24.4261C132.115 20.542 134.413 18 138.507 18Z" fill="#1C62B7"/>
<path d="M146.115 13H149.562V20.5285C150.467 18.9334 151.814 18.2358 153.634 18.2358C155.939 18.2358 158.115 19.9556 158.115 22.4235V31H154.711V23.3705C154.711 21.6754 153.99 20.5543 152.363 20.5543C150.844 20.5543 149.541 21.5507 149.541 23.8445V31H146.115V13Z" fill="#1C62B7"/>
<path fill-rule="evenodd" clip-rule="evenodd" d="M161.115 24.4137C161.115 21.305 162.826 18 167.757 18C172.677 18 174.366 21.5742 174.086 25.2466L164.638 25.2709C164.671 27.2786 165.42 28.919 167.78 28.919C169.177 28.919 170.374 28.0133 170.374 26.6178H173.795C173.594 30.0695 170.631 31.0248 167.288 30.9995C163.083 30.8771 161.115 28.1114 161.115 24.4137ZM167.645 20.0805C165.7 20.0805 164.872 21.5742 164.772 23.1903H170.374C170.452 21.4021 169.513 20.0805 167.645 20.0805Z" fill="#1C62B7"/>
<path fill-rule="evenodd" clip-rule="evenodd" d="M194.844 30.4758C193.69 30.8493 192.194 31 190.591 31H184.115V13H191.008C194.085 13 197.302 13.9741 197.43 17.4443C197.505 19.6412 196.02 21.0383 194.16 21.6626C195.592 22.0371 196.757 22.4612 197.548 23.8099C198.242 25.0079 198.296 26.6063 197.729 27.9291C197.131 29.1777 196.212 30.0011 194.844 30.4758ZM191.008 15.6963H187.514V20.3645H191.061C192.921 20.3645 193.882 19.5906 193.882 18.0675C193.882 16.6446 192.771 15.6963 191.008 15.6963ZM187.514 23.036L191.36 23.0608C193.658 23.036 194.502 24.4094 194.502 25.5827C194.502 27.1046 193.711 28.3285 191.232 28.3285H187.514V23.036Z" fill="#1C62B7"/>
<path fill-rule="evenodd" clip-rule="evenodd" d="M207.06 18.0003C210.308 17.9761 213.115 19.2248 213.115 21.7223V30.5847H210.077L209.945 28.7977C209.152 30.3884 207.115 31.1473 205.321 30.9763C202.822 30.9024 201.115 29.4827 201.115 27.132C201.115 25.2964 202.161 24.1458 203.515 23.5336C205.012 22.8637 206.921 22.8119 208.585 22.7667C208.99 22.7557 209.38 22.7451 209.747 22.7261C209.923 20.6688 209.075 19.837 207.192 19.837C205.937 19.8613 204.991 20.5464 205.068 21.869H201.677C201.721 19.0042 203.967 18.05 207.06 18.0003ZM204.583 26.9367C204.583 28.1115 205.354 28.7238 206.653 28.8219C209.67 28.7723 209.846 26.6675 209.769 24.6356C209.624 24.6356 209.469 24.6338 209.305 24.6319C207.472 24.6105 204.603 24.5772 204.583 26.9367Z" fill="#1C62B7"/>
<path d="M216.115 18.3295H219.55V20.3613C220.452 18.7105 222.094 18 223.94 18C226.001 18 228.115 19.2184 228.115 22.2651V31H224.681V23.2296C224.702 21.5798 223.908 20.3613 222.341 20.3613C220.795 20.3613 219.529 21.3762 219.529 23.7123V31H216.115V18.3295Z" fill="#1C62B7"/>
<path fill-rule="evenodd" clip-rule="evenodd" d="M235.466 13H232.115V31H235.466V13ZM235.562 23.8692L240.743 31H245.115L239.392 23.7445L244.254 18.5593H240.254L235.562 23.8692Z" fill="#1C62B7"/>
<path fill-rule="evenodd" clip-rule="evenodd" d="M0.115387 0H44.1154V44H0.115387V0ZM26.8524 10.4214L9.6651 33.3957H17.4324L34.6845 10.4214H26.8524ZM37.9902 37.906H6.2406V6.09512H37.9902V37.906Z" fill="#1C62B7"/>
</svg>
