<svg width="150" height="99" viewBox="0 0 150 99" fill="none" xmlns="http://www.w3.org/2000/svg">
<rect width="149.287" height="98.2205" rx="7.5" fill="#66667A"/>
<path d="M106.664 61.0658C103.921 61.0658 101.919 60.1021 100.77 58.9531C99.1395 57.2852 98.7689 55.3579 98.6206 53.4676H103.439C103.698 55.5432 104.662 56.7292 106.664 56.7292C107.627 56.7292 108.369 56.4698 108.962 55.8768C109.814 55.0243 109.962 53.6529 109.962 51.9479C109.962 48.9087 109.073 47.2037 106.775 47.2037C104.773 47.2037 103.921 48.3527 103.587 49.3534H99.1766V34.4536H114.225V38.7901H103.55V44.461C104.254 43.7938 105.737 43.1266 107.516 43.1266C109.703 43.1266 111.371 43.8309 112.446 44.9057C114.521 46.9813 114.781 49.4646 114.781 51.9479C114.781 54.9502 114.41 56.9887 112.483 58.916C111.297 60.1021 109.369 61.0658 106.664 61.0658ZM119.94 60.8434L126.553 46.8723H128.555L121.942 60.8434H119.94ZM119.783 54.0737C118.253 54.0737 116.938 53.1711 116.938 51.3854V49.4428C116.938 47.6572 118.253 46.7546 119.783 46.7546C121.314 46.7546 122.629 47.6572 122.629 49.4428V51.3854C122.629 53.1711 121.314 54.0737 119.783 54.0737ZM119.783 52.4254C120.392 52.4254 120.784 52.0526 120.784 51.2873V49.5409C120.784 48.7757 120.392 48.4225 119.783 48.4225C119.195 48.4225 118.802 48.7757 118.802 49.5409V51.2873C118.802 52.0526 119.195 52.4254 119.783 52.4254ZM128.692 60.9611C127.161 60.9611 125.847 60.0585 125.847 58.2729V56.3303C125.847 54.5446 127.161 53.642 128.692 53.642C130.223 53.642 131.537 54.5446 131.537 56.3303V58.2729C131.537 60.0585 130.223 60.9611 128.692 60.9611ZM128.692 59.2932C129.3 59.2932 129.693 58.94 129.693 58.1748V56.4284C129.693 55.6631 129.3 55.2903 128.692 55.2903C128.103 55.2903 127.691 55.6631 127.691 56.4284V58.1748C127.691 58.94 128.103 59.2932 128.692 59.2932Z" fill="white"/>
<rect opacity="0.6" x="108.043" y="72.3633" width="25.7175" height="10.3135" rx="5.15677" fill="white"/>
<path d="M50.7777 18.035L50.3929 19.342V57.2646L50.7777 57.6484L68.3807 47.2432L50.7777 18.035Z" fill="#E6E4E4"/>
<path d="M50.7806 18.035L33.1773 47.2432L50.7806 57.6484V39.2419V18.035Z" fill="white"/>
<path d="M50.7779 60.9828L50.561 61.2473V74.7558L50.7779 75.389L68.3918 50.583L50.7779 60.9828Z" fill="#E5E3E3"/>
<path d="M50.7807 75.389V60.9828L33.1774 50.583L50.7807 75.389Z" fill="white"/>
<path d="M50.778 57.6479L68.3807 47.2427L50.778 39.2413V57.6479Z" fill="#C0C0C0"/>
<path d="M33.1773 47.2427L50.7806 57.6479V39.2413L33.1773 47.2427Z" fill="#D8D8D8"/>
<path d="M50.7778 18.035V20.642L50.7778 55.1116L50.7778 57.6484L68.3808 47.2432L50.7778 18.035Z" fill="#2C2C2C" fill-opacity="0.2"/>
<path d="M50.7778 60.9828V63.8013L50.7778 71.0428L50.7778 75.389L68.3917 50.583L50.7778 60.9828Z" fill="#2C2C2C" fill-opacity="0.2"/>
<path d="M50.778 57.6479L68.3807 47.2427L50.778 39.2413V57.6479Z" fill="#2C2C2C" fill-opacity="0.2"/>
<path d="M33.1773 47.2427L50.7806 57.6479V39.2413L33.1773 47.2427Z" fill="#2C2C2C" fill-opacity="0.2"/>
</svg>
