<svg width="82" height="170" viewBox="0 0 82 170" fill="none" xmlns="http://www.w3.org/2000/svg">
<g clip-path="url(#clip0_16302_953)">
<path d="M27.9585 0L25.2187 7.86587H17.0435L23.672 12.6826L21.0648 20.9462L27.9585 16.1515L34.8521 20.9462L32.2449 12.6826L38.8735 7.86587H30.6983L27.9585 0Z" fill="#D70926"/>
<path d="M53.6772 0L50.9374 7.86587H42.7622L49.3907 12.6826L46.7835 20.9462L53.6772 16.1515L60.5709 20.9462L57.9858 12.6826L64.6143 7.86587H56.4391L53.6772 0Z" fill="#D70926"/>
<path d="M55.9971 115.8C42.6517 124.285 32.2891 119.181 26.942 115.8C16.9329 109.481 9.00078 113.061 6.30518 115.712V122.959C8.73564 120.463 12.0941 119.115 16.0049 119.115C16.0049 119.115 19.8716 118.739 26.4338 122.031C30.8308 124.241 40.7736 131.333 56.4611 122.031C61.8965 118.805 66.89 119.115 66.89 119.115C70.9114 119.115 74.3361 120.529 76.7666 123.158V115.889C74.2477 113.237 66.1609 109.327 55.9529 115.823L55.9971 115.8Z" fill="#D70926"/>
<path d="M55.9971 125.102C42.6517 133.587 32.2891 128.483 26.942 125.102C16.9329 118.783 9.00078 123.113 6.30518 125.787V133.763C8.73564 131.178 12.0941 128.416 16.0049 128.416C16.0049 128.416 19.8716 128.041 26.4338 131.333C30.8308 133.542 40.7736 140.635 56.4611 131.333C61.8965 128.107 66.89 128.416 66.89 128.416C70.9114 128.416 74.314 131.222 76.7666 133.852V125.875C74.2477 123.224 66.1609 118.606 55.9529 125.102H55.9971Z" fill="#D70926"/>
<path d="M76.2363 69.4447C77.4957 63.2139 74.7338 60.5183 72.0161 59.3694C72.6569 57.1598 71.6405 54.0886 69.2763 51.6581C67.9285 50.2882 66.3818 49.3823 64.9015 48.9625C66.4702 43.041 64.4375 37.2742 57.8089 35.5287C56.1518 35.0868 54.3621 35.131 52.7933 35.5287C50.2966 31.3748 45.745 28.5908 40.5747 28.5908C35.4044 28.5908 31.0075 31.3085 28.5108 35.374C25.7047 34.8437 22.7218 35.5066 20.2914 37.4068C16.6236 40.3012 15.4304 45.2064 17.0213 49.3603C14.2594 49.6033 11.8068 51.0616 10.6358 53.5141C9.68571 55.4806 9.79619 57.7343 10.6358 59.745C7.78553 61.137 5.84116 63.8105 5.84116 66.8817C5.84116 69.9529 5.95163 68.2958 6.15049 68.9586C3.01298 71.0135 0.936035 74.5266 0.936035 78.5258C0.936035 84.845 6.12839 89.9711 12.5139 89.9711C18.8994 89.9711 15.563 89.6618 16.9108 89.1094C18.811 92.7772 22.6556 95.296 27.0746 95.296C31.4936 95.296 31.7146 94.4564 33.5706 93.197V108.642C22.4125 102.344 17.2422 102.543 15.4967 102.543C12.8895 102.411 8.3821 103.626 6.37144 105.725V112.972C8.40419 110.851 13.4198 109.371 17.2202 109.525C19.2308 109.614 23.5394 110.52 28.0247 113.083C34.609 116.839 39.6688 117.568 39.6688 117.568V83.2321C37.7907 85.6405 34.2113 87.2534 30.1016 87.2534C25.9919 87.2534 20.4019 84.5578 19.3855 80.9563C18.7447 81.7075 17.8609 82.3483 16.8445 82.7239C13.9059 83.8066 10.7242 82.5251 9.752 79.8294C8.77981 77.1338 10.3928 74.0847 13.3535 73.002C13.707 72.8695 14.0605 72.7811 14.4141 72.7148C12.4697 70.9251 11.6522 68.5388 12.5139 66.6607C13.3977 64.7164 15.8503 63.8326 18.5238 64.2745C17.5958 63.2139 17.0876 61.9324 17.0876 60.4962C17.0876 56.9831 20.3577 54.1328 24.4011 54.1328C28.4445 54.1328 24.9976 54.1328 25.2849 54.177C24.0475 52.8513 23.2963 51.0395 23.2963 49.073C23.2963 44.9633 26.5664 41.649 30.5877 41.649C34.609 41.649 32.7309 41.8921 33.6589 42.334C34.1671 38.9534 37.2604 36.3462 40.9945 36.3462C44.7286 36.3462 47.8882 39.0197 48.3301 42.4887C49.3907 41.8479 50.628 41.6049 51.9537 41.6049C55.975 41.6049 59.223 45.0296 59.223 49.2719C59.223 53.5141 58.6043 52.8955 57.4775 54.2433C57.7205 54.2212 57.9857 54.1991 58.2287 54.1991C62.2059 54.1991 65.4317 56.9831 65.4317 60.452C65.4317 63.9209 65.0782 62.6615 64.4596 63.5895C66.7575 63.5674 68.8344 64.8489 69.6077 66.9922C70.2264 68.7156 69.8287 70.5495 68.746 71.9857C68.8344 71.9857 68.9007 71.9857 68.967 72.0299C71.9277 72.5601 73.9163 75.3662 73.4081 78.327C72.8999 81.2656 70.0717 83.2321 67.111 82.7018C65.5422 82.4146 64.2386 81.4866 63.4432 80.2493C62.7803 84.0717 58.3392 87.0104 52.9701 87.0104C47.601 87.0104 45.4135 85.53 43.5576 83.3426V117.612C43.5576 117.612 48.6173 116.883 55.2017 113.127C59.7091 110.542 63.9956 109.636 66.0062 109.57C69.9391 109.393 74.9768 110.785 76.8549 113.016V105.769C74.9768 103.538 70.4252 102.455 67.7296 102.587C65.9841 102.587 60.7697 102.389 49.6116 108.686V93.2412C50.7606 93.9041 52.5724 94.6111 53.9644 94.7437C58.759 95.1856 63.863 92.8877 66.2272 88.9989C73.9605 91.0317 79.8157 85.994 80.9646 80.4702C81.1414 79.6527 81.2298 78.8573 81.2298 78.106C81.2519 74.4603 79.418 71.6101 76.3026 69.4889L76.2363 69.4447Z" fill="#D70926"/>
<path d="M35.8904 145.386V146.734C35.8904 148.037 35.5811 148.479 34.5868 148.479H33.8576V143.64H34.5868C35.5811 143.64 35.8904 144.082 35.8904 145.386ZM46.938 165.205C40.1768 165.095 40.3536 159.748 40.3536 159.748V154.798C40.3536 152.015 39.4698 150.888 36.6637 150.733V150.6C39.1163 150.468 40.3536 149.098 40.3536 146.557V143.994C40.3536 140.923 38.6965 139.619 34.8077 139.619H29.2397V163.04H33.8576V152.39H33.9239C34.9624 152.39 35.6252 153.097 35.6252 154.445V159.748C35.6252 159.748 35.4706 162.002 36.1555 163.813C37.6138 167.68 42.0107 170 46.3193 170C50.6278 170 47.6892 169.934 48.3079 169.867V165.161C47.9764 165.183 47.3357 165.227 46.9601 165.227" fill="#D70926"/>
<path d="M6.30518 162.974H10.9231V152.412H14.6571V148.457H10.9231V143.685H15.0549V139.729H6.30518V162.974Z" fill="#D70926"/>
<path d="M22.9647 157.141C22.9647 158.069 22.9426 158.356 22.7438 158.665C22.567 158.931 22.2798 159.063 21.9042 159.063C21.5285 159.063 21.2413 158.908 21.0645 158.665C20.8657 158.356 20.8436 158.069 20.8436 157.141V145.475C20.8436 144.547 20.8657 144.259 21.0645 143.95C21.2413 143.685 21.5285 143.552 21.9042 143.552C22.2798 143.552 22.567 143.707 22.7438 143.95C22.9426 144.259 22.9647 144.547 22.9647 145.475V157.141ZM21.9042 139.398C19.8272 139.398 18.3247 140.039 17.4188 141.188C16.4909 142.337 16.2036 143.972 16.2036 146.491V156.147C16.2036 158.643 16.4909 160.3 17.4188 161.449C18.3468 162.598 19.8272 163.239 21.9042 163.239C23.9811 163.239 25.4836 162.598 26.3895 161.449C27.3175 160.3 27.6047 158.665 27.6047 156.147V146.491C27.6047 143.994 27.3175 142.337 26.3895 141.188C25.4615 140.039 23.9811 139.398 21.9042 139.398Z" fill="#D70926"/>
<path d="M66.4038 139.729V143.685H69.2983V162.974H73.8941V143.685H76.7885V139.729H66.4038Z" fill="#D70926"/>
<path d="M48.5071 148.457H46.6069V145.253C46.6069 144.524 46.629 144.237 46.8058 143.994C46.9825 143.773 47.2035 143.64 47.557 143.64C47.9105 143.64 48.1315 143.751 48.3082 143.994C48.485 144.259 48.5071 144.546 48.5071 145.253V148.457ZM47.5349 139.442C45.6568 139.442 44.309 139.884 43.3589 140.79C42.3204 141.807 42.0332 143.199 42.0332 145.231V157.406C42.0332 159.416 42.3204 160.83 43.3589 161.847C44.309 162.775 45.6126 163.195 47.5349 163.195C49.4572 163.195 50.7829 162.753 51.733 161.847C52.6831 160.919 52.9924 159.77 53.0587 158.113V154.799H48.5071V157.472C48.5071 158.201 48.485 158.444 48.3082 158.709C48.1315 158.93 47.9105 159.063 47.557 159.063C47.2035 159.063 46.9825 158.952 46.8058 158.709C46.629 158.444 46.6069 158.201 46.6069 157.472V152.412H53.0587V145.231C53.0587 143.221 52.7714 141.807 51.733 140.79C50.7829 139.862 49.3688 139.442 47.5349 139.442Z" fill="#D70926"/>
<path d="M61.9848 149.496L61.3882 149.12C59.5764 147.993 59.2891 147.596 59.2891 146.557V144.812C59.2891 144.06 59.5985 143.663 60.2171 143.663C60.8358 143.663 60.8579 143.839 60.9684 144.06C61.123 144.348 61.1451 144.546 61.1451 146.557V147.397H65.7409V146.27C65.7409 143.42 65.5863 142.271 64.3931 141.011C63.443 140.039 62.0289 139.509 60.2171 139.509C56.6819 139.509 54.6934 141.519 54.6934 144.767V146.911C54.6934 150.026 55.8423 150.932 58.6705 152.7L59.267 153.075C61.0789 154.202 61.344 154.6 61.344 155.638V157.892C61.344 158.687 60.9463 159.041 60.416 159.041C59.8857 159.041 59.7752 158.864 59.6648 158.643C59.5101 158.334 59.5101 158.444 59.5101 156.434V154.799H54.9143V156.434C54.9143 159.284 55.069 160.433 56.2621 161.692C57.2122 162.664 58.6263 163.195 60.4381 163.195C63.9733 163.195 65.9619 161.184 65.9619 157.936V155.285C65.9619 152.169 64.8129 151.263 61.9848 149.496Z" fill="#D70926"/>
</g>
<defs>
<clipPath id="clip0_16302_953">
<rect width="80.2937" height="170" fill="white" transform="translate(0.869629)"/>
</clipPath>
</defs>
</svg>
