<svg width="456" height="316" viewBox="0 0 456 316" fill="none" xmlns="http://www.w3.org/2000/svg">
<path d="M274.115 142.274H280.753V208.299H274.115V142.274Z" fill="white"/>
<path d="M300.435 181.749L299.946 160.649V142.274H306.164V208.299H299.597L292.68 165.47H292.33L292.819 185.522V208.299H286.601V142.274H293.588L300.016 181.749H300.435Z" fill="white"/>
<path d="M329.378 142.274V148.143H322.601V208.299H315.894V148.143H309.047V142.274H329.378Z" fill="white"/>
<path d="M338.954 202.43H347.408V208.299H332.247V135.242H347.199V141.111H338.954V171.199H346.64V176.998H338.954V202.43Z" fill="white"/>
<path d="M372.229 208.299H365.591L362.587 182.448H358.535V208.299H351.897V121.161H362.028C364.962 121.161 367.245 121.999 368.875 123.676C370.552 125.306 371.39 127.659 371.39 130.733V172.387C371.39 175.554 370.435 178.046 368.526 179.863L372.229 208.299ZM358.604 176.719H360.98C363.402 176.719 364.613 175.321 364.613 172.527V131.012C364.613 128.357 363.402 127.03 360.98 127.03H358.604V176.719Z" fill="white"/>
<path d="M383.508 202.43H391.962V208.299H376.801V112.338H391.753V118.207H383.508V171.199H391.194V176.998H383.508V202.43Z" fill="white"/>
<path d="M415.385 165.4H408.818V112.023C408.818 109.881 407.793 108.809 405.744 108.809C404.766 108.809 404.02 109.089 403.508 109.648C402.996 110.16 402.739 110.836 402.739 111.674V164.771C402.739 166.122 402.949 167.147 403.368 167.846C403.787 168.498 404.533 169.103 405.604 169.662L408.958 171.059C411.38 172.131 413.126 173.365 414.198 174.762C415.315 176.16 415.874 178.326 415.874 181.26V199.216C415.874 202.197 414.989 204.526 413.219 206.203C411.496 207.88 409.097 208.718 406.023 208.718C402.902 208.718 400.48 207.949 398.757 206.412C397.034 204.829 396.172 202.663 396.172 199.915V182.168H402.879V199.426C402.879 200.45 403.135 201.289 403.648 201.941C404.207 202.546 404.998 202.849 406.023 202.849C407.001 202.849 407.747 202.546 408.259 201.941C408.818 201.335 409.097 200.544 409.097 199.565V182.518C409.097 181.027 408.841 179.909 408.329 179.164C407.863 178.372 407.094 177.72 406.023 177.208L402.32 175.601C400.084 174.623 398.477 173.412 397.499 171.968C396.568 170.524 396.102 168.428 396.102 165.68V111.744C396.102 109.182 396.917 107.086 398.547 105.456C400.178 103.779 402.6 102.941 405.814 102.941C408.888 102.941 411.24 103.709 412.87 105.246C414.547 106.737 415.385 108.763 415.385 111.325V165.4Z" fill="white"/>
<path d="M438 95V100.869H431.223V208.299H424.516V100.869H417.669V95H438Z" fill="white"/>
<path d="M27.7397 202.549H36.1716V208.402H21.0499V142.55H35.9625V148.403H27.7397V171.399H35.405V177.183H27.7397V202.549ZM54.2374 208.402L53.1225 192.235L46.154 192.165L44.9693 208.402H38.1402L44.5512 142.55H54.8646L61.2059 208.402H54.2374ZM46.5721 186.382H52.7044L50.8229 159.832L49.917 149.449H49.3595L48.4536 159.832L46.5721 186.382ZM84.7453 208.402H78.1252L75.1288 182.619H71.087V208.402H64.467V142.55H74.5713C77.4981 142.55 79.7745 143.386 81.4004 145.058C83.0729 146.684 83.9091 149.03 83.9091 152.097V172.584C83.9091 175.743 82.9567 178.228 81.052 180.04L84.7453 208.402ZM71.1567 176.904H73.526C75.9418 176.904 77.1496 175.511 77.1496 172.723V152.375C77.1496 149.727 75.9418 148.403 73.526 148.403H71.1567V176.904ZM103.104 181.922L102.616 160.877V142.55H108.818V208.402H102.267L95.3685 165.685H95.02L95.5078 185.685V208.402H89.3059V142.55H96.2744L102.685 181.922H103.104Z" fill="#13C636"/>
<path d="M136.988 208.402L135.873 192.235L128.905 192.165L127.72 208.402H120.891L127.302 142.55H137.616L143.957 208.402H136.988ZM129.323 186.382H135.455L133.574 159.832L132.668 149.449H132.11L131.205 159.832L129.323 186.382ZM161.016 181.922L160.528 160.877V142.55H166.73V208.402H160.179L153.281 165.685H152.932L153.42 185.685V208.402H147.218V142.55H154.186L160.597 181.922H161.016ZM186.399 181.922L185.911 160.877V142.55H192.113V208.402H185.563L178.664 165.685H178.315L178.803 185.685V208.402H172.601V142.55H179.57L185.981 181.922H186.399ZM217.009 142.55V199.97C217.009 202.851 216.149 205.057 214.43 206.59C212.758 208.123 210.412 208.89 207.392 208.89C204.419 208.89 202.096 208.147 200.424 206.66C198.751 205.127 197.915 202.92 197.915 200.04V142.55H204.605V199.552C204.605 201.828 205.557 202.967 207.462 202.967C209.366 202.967 210.319 201.828 210.319 199.552V142.55H217.009ZM236.072 208.402L234.957 192.235L227.988 192.165L226.804 208.402H219.975L226.386 142.55H236.699L243.04 208.402H236.072ZM228.406 186.382H234.539L232.657 159.832L231.751 149.449H231.194L230.288 159.832L228.406 186.382ZM252.921 202.618H261.005V208.402H246.301V142.55H252.921V202.618Z" fill="white"/>
</svg>
