<svg width="213" height="213" viewBox="0 0 213 213" fill="none" xmlns="http://www.w3.org/2000/svg">
<g opacity="0.9">
<rect x="0.770912" y="0.770874" width="211.848" height="211.848" rx="7.5" fill="#1A182F"/>
<path d="M35.0252 161.547V133.624L27.9468 139.775V132.94L35.0252 126.789H41.3713V161.547H35.0252ZM61.7123 161.84C56.0984 161.84 51.168 158.13 51.168 151.491V136.846C51.168 130.207 56.0984 126.497 61.7123 126.497C67.375 126.497 72.3055 130.207 72.3055 136.846V151.491C72.3055 158.13 67.375 161.84 61.7123 161.84ZM61.7123 156.128C64.2508 156.128 65.9593 154.371 65.9593 151.442V136.943C65.9593 134.014 64.2508 132.208 61.7123 132.208C59.2227 132.208 57.5141 134.014 57.5141 136.943V151.442C57.5141 154.371 59.2227 156.128 61.7123 156.128ZM79.3454 161.547L88.0548 143.146H90.6909L81.9815 161.547H79.3454ZM79.1387 152.631C77.1228 152.631 75.3913 151.442 75.3913 149.09V146.531C75.3913 144.18 77.1228 142.991 79.1387 142.991C81.1545 142.991 82.886 144.18 82.886 146.531V149.09C82.886 151.442 81.1545 152.631 79.1387 152.631ZM79.1387 150.46C79.9398 150.46 80.4567 149.969 80.4567 148.961V146.661C80.4567 145.653 79.9398 145.188 79.1387 145.188C78.3633 145.188 77.8465 145.653 77.8465 146.661V148.961C77.8465 149.969 78.3633 150.46 79.1387 150.46ZM90.8718 161.702C88.856 161.702 87.1245 160.513 87.1245 158.161V155.603C87.1245 153.251 88.856 152.062 90.8718 152.062C92.8877 152.062 94.6192 153.251 94.6192 155.603V158.161C94.6192 160.513 92.8877 161.702 90.8718 161.702ZM90.8718 159.505C91.673 159.505 92.1899 159.04 92.1899 158.032V155.732C92.1899 154.724 91.673 154.233 90.8718 154.233C90.0965 154.233 89.5538 154.724 89.5538 155.732V158.032C89.5538 159.04 90.0965 159.505 90.8718 159.505Z" fill="white"/>
<rect opacity="0.6" x="22.9187" y="177.953" width="73.1839" height="12.5183" rx="6.25915" fill="white"/>
<path fill-rule="evenodd" clip-rule="evenodd" d="M20.2133 25.5626V21.4875H25.2664V25.5626H20.2133ZM20.2133 44.057V27.3556H25.2664V44.0508L20.2133 44.057ZM110.113 37.0323L98.7675 37.0323C98.976 38.8065 100.267 40.1669 102.754 40.1669C104.274 40.2082 105.742 39.5939 106.798 38.4742L109.821 41.6339C108.27 43.4207 105.811 44.5084 102.769 44.5084C96.9768 44.5084 93.5702 41.0948 93.5702 35.5935C93.5702 30.5122 96.8572 26.8164 102.064 26.8164C107.27 26.8164 110.297 30.0608 110.297 34.8976C110.313 35.6139 110.251 36.3299 110.113 37.0323ZM105.265 33.8349C105.151 32.1015 104.023 30.8664 102.082 30.8664C100.141 30.8664 99.0158 32.0889 98.7767 33.8349L105.265 33.8349ZM118.713 44.4927C116.217 44.4927 113.167 43.8251 110.913 41.6308L113.795 38.4648C115.125 39.7413 116.877 40.4577 118.701 40.471C120.461 40.471 121.228 40.0039 121.228 39.2892C121.228 38.7469 120.844 38.4397 119.882 38.1451C119.041 37.888 117.717 37.6623 116.601 37.3269C114.175 36.6028 111.765 35.5715 111.765 32.0701C111.759 28.8289 114.347 26.8415 118.667 26.8415C121.059 26.8415 123.757 27.3399 126.026 29.3963L123.113 32.4839C121.841 31.23 120.066 30.7786 118.628 30.7786C117.327 30.7786 116.607 31.2457 116.607 31.8946C116.607 32.4337 116.99 32.7503 117.971 33.0763C118.824 33.3553 120.234 33.628 121.344 33.9509C123.672 34.6217 126.082 35.6342 126.082 38.9664C126.094 42.6935 123.012 44.4959 118.713 44.4959V44.4927ZM40.9043 28.0107C39.6235 26.4866 37.7359 25.6382 35.7714 25.7036C33.6404 25.7036 32.5273 26.4873 32.5273 27.6032C32.5273 29.1141 34.2107 29.6376 37.4333 30.5624C40.9718 31.5811 44.9916 32.7315 44.9916 37.4993C44.9916 42.2671 41.1159 44.4708 36.2129 44.4708C32.0766 44.4708 28.7006 43.264 26.5297 40.2672L30.3012 37.0699C31.7393 39.0479 33.9255 39.8535 36.1516 39.8535C38.7978 39.8535 39.7637 38.9131 39.7637 37.8943C39.7637 36.4147 38.2305 36.0543 34.5173 34.9979C30.6968 33.9102 27.3791 32.4055 27.3791 27.7882C27.3791 23.7351 30.6262 21.0957 35.937 21.0957C39.3098 21.0957 42.4037 22.011 44.6359 24.8573L40.9043 28.0107ZM91.6568 27.0359C92.6221 26.9971 93.5547 27.3964 94.2049 28.1267L92.1781 32.4839C91.6746 32.0979 91.0595 31.8949 90.4303 31.9071C89.1425 31.9071 88.0387 33.0419 88.0387 35.1045V44.0508H82.9426V27.3556H87.9528V29.6972C88.8481 28.0954 89.9919 27.0359 91.6568 27.0359ZM62.2209 32.7974V44.0508H57.1891V34.6155C57.1891 32.8036 56.2386 31.694 54.5583 31.694C52.878 31.694 51.7343 32.7629 51.7343 34.6781V44.0508H46.6934V21.4813H51.7343V29.6C52.9138 27.9601 54.7934 27.0011 56.7844 27.0233C59.8598 27.0233 62.2209 29.0797 62.2209 32.7974ZM81.296 40.1795V43.7185C80.3526 44.0877 79.3503 44.2748 78.3401 44.2702C76.9511 44.2702 75.556 43.8251 74.9028 42.1794C73.8113 43.4332 71.7722 44.3956 69.4603 44.3956C66.0874 44.3956 63.9196 42.6339 63.9196 39.2798C63.9196 35.9978 66.5197 34.0355 70.5365 34.0355C71.87 34.0378 73.1983 34.2062 74.492 34.5371V33.9917C74.492 32.1109 73.431 31.0012 71.2325 31.0012C69.7504 31.0468 68.3314 31.6251 67.225 32.6344L64.4653 29.437C66.1119 27.9136 68.7857 26.7788 71.8703 26.7788C76.623 26.7788 79.493 29.1173 79.493 33.4964V39.3456C79.493 39.9726 79.7996 40.286 80.465 40.286C80.7482 40.2849 81.0303 40.2491 81.3052 40.1795H81.296ZM74.495 37.3175C73.5717 37.0836 72.6252 36.9584 71.6741 36.9445C69.9386 36.9445 69.08 37.8159 69.08 39.0102C69.08 40.1418 69.8405 40.96 71.3981 40.96C73.0478 40.96 74.495 39.9506 74.495 38.4209V37.3175ZM130.819 42.5775C130.85 43.0329 130.685 43.4795 130.367 43.8004C130.05 44.1214 129.611 44.2849 129.166 44.2482C128.118 44.2482 127.514 43.5774 127.514 42.5775C127.514 41.5775 128.127 40.9036 129.166 40.9036C129.612 40.8668 130.051 41.0307 130.369 41.3524C130.686 41.6741 130.851 42.1215 130.819 42.5775ZM130.549 42.5775C130.599 42.0418 130.347 41.5236 129.9 41.2401C129.452 40.9566 128.886 40.9566 128.439 41.2401C127.992 41.5236 127.74 42.0418 127.789 42.5775C127.789 43.5179 128.357 44.0257 129.179 44.0257C130 44.0257 130.549 43.5241 130.549 42.5775ZM129.5 42.7718L129.807 43.3643H129.476L129.188 42.8188H128.829V43.3643H128.522V41.7186H129.203C129.599 41.7186 129.816 41.9255 129.816 42.2452C129.841 42.4738 129.711 42.6903 129.5 42.7718ZM129.516 42.264C129.516 42.0853 129.421 41.9788 129.209 41.9788H128.826V42.5587H129.166C129.393 42.5587 129.516 42.4866 129.516 42.264Z" fill="#FFCE00"/>
<path opacity="0.8" d="M27.168 63.6083H25.222L21.414 58.5683V63.6083H19.846V53.2623H23.164C23.948 53.2623 24.62 53.3789 25.18 53.6123C25.7493 53.8363 26.1833 54.1769 26.482 54.6343C26.7806 55.0823 26.93 55.6329 26.93 56.2863C26.93 57.1356 26.65 57.8123 26.09 58.3163C25.5393 58.8203 24.7413 59.1236 23.696 59.2263L27.168 63.6083ZM21.414 58.0643H22.688C23.584 58.0643 24.242 57.9243 24.662 57.6443C25.082 57.3643 25.292 56.9349 25.292 56.3563C25.292 55.2363 24.5453 54.6763 23.052 54.6763H21.414V58.0643ZM33.7501 56.3003H35.2481V63.6083H33.8061L33.7641 62.4883C33.5028 62.9176 33.1668 63.2443 32.7561 63.4683C32.3455 63.6829 31.8741 63.7903 31.3421 63.7903C30.8195 63.7903 30.3575 63.6736 29.9561 63.4403C29.5641 63.1976 29.2561 62.8383 29.0321 62.3623C28.8081 61.8863 28.6961 61.3076 28.6961 60.6263V56.3003H30.1941V60.4443C30.1941 61.1069 30.3341 61.6016 30.6141 61.9283C30.9035 62.2456 31.3188 62.4043 31.8601 62.4043C32.2148 62.4043 32.5321 62.3249 32.8121 62.1663C33.1015 62.0076 33.3301 61.7649 33.4981 61.4383C33.6661 61.1023 33.7501 60.6776 33.7501 60.1643V56.3003ZM39.8275 63.7763C39.1368 63.7763 38.5488 63.6689 38.0635 63.4543C37.5781 63.2396 37.1348 62.9316 36.7335 62.5303L37.5875 61.5503C37.9235 61.8769 38.2688 62.1196 38.6235 62.2783C38.9875 62.4276 39.3841 62.5023 39.8135 62.5023C40.2428 62.5023 40.5835 62.4276 40.8355 62.2783C41.0875 62.1196 41.2135 61.8863 41.2135 61.5783C41.2135 61.3543 41.1388 61.1723 40.9895 61.0323C40.8401 60.8923 40.6535 60.7896 40.4295 60.7243C40.2055 60.6496 39.9021 60.5749 39.5195 60.5003C38.9781 60.3883 38.5395 60.2716 38.2035 60.1503C37.8768 60.0196 37.5921 59.8143 37.3495 59.5343C37.1161 59.2543 36.9995 58.8669 36.9995 58.3723C36.9995 57.9523 37.1161 57.5743 37.3495 57.2383C37.5921 56.9023 37.9281 56.6363 38.3575 56.4403C38.7961 56.2443 39.3001 56.1463 39.8695 56.1463C41.0081 56.1463 41.9415 56.5009 42.6695 57.2103L41.8855 58.1903C41.3255 57.6583 40.6535 57.3923 39.8695 57.3923C39.4121 57.3923 39.0715 57.4763 38.8475 57.6443C38.6328 57.8029 38.5255 58.0176 38.5255 58.2883C38.5255 58.4936 38.5955 58.6616 38.7355 58.7923C38.8755 58.9136 39.0528 59.0116 39.2675 59.0863C39.4821 59.1516 39.7808 59.2263 40.1635 59.3103C40.6955 59.4223 41.1341 59.5436 41.4795 59.6743C41.8248 59.8049 42.1188 60.0149 42.3615 60.3043C42.6041 60.5936 42.7255 60.9856 42.7255 61.4803C42.7255 61.9469 42.5948 62.3576 42.3335 62.7123C42.0815 63.0576 41.7315 63.3236 41.2835 63.5103C40.8448 63.6876 40.3595 63.7763 39.8275 63.7763ZM46.6224 63.7763C45.9317 63.7763 45.3437 63.6689 44.8584 63.4543C44.373 63.2396 43.9297 62.9316 43.5284 62.5303L44.3824 61.5503C44.7184 61.8769 45.0637 62.1196 45.4184 62.2783C45.7824 62.4276 46.179 62.5023 46.6084 62.5023C47.0377 62.5023 47.3784 62.4276 47.6304 62.2783C47.8824 62.1196 48.0084 61.8863 48.0084 61.5783C48.0084 61.3543 47.9337 61.1723 47.7844 61.0323C47.635 60.8923 47.4484 60.7896 47.2244 60.7243C47.0004 60.6496 46.697 60.5749 46.3144 60.5003C45.773 60.3883 45.3344 60.2716 44.9984 60.1503C44.6717 60.0196 44.387 59.8143 44.1444 59.5343C43.911 59.2543 43.7944 58.8669 43.7944 58.3723C43.7944 57.9523 43.911 57.5743 44.1444 57.2383C44.387 56.9023 44.723 56.6363 45.1524 56.4403C45.591 56.2443 46.095 56.1463 46.6644 56.1463C47.803 56.1463 48.7364 56.5009 49.4644 57.2103L48.6804 58.1903C48.1204 57.6583 47.4484 57.3923 46.6644 57.3923C46.207 57.3923 45.8664 57.4763 45.6424 57.6443C45.4277 57.8029 45.3204 58.0176 45.3204 58.2883C45.3204 58.4936 45.3904 58.6616 45.5304 58.7923C45.6704 58.9136 45.8477 59.0116 46.0624 59.0863C46.277 59.1516 46.5757 59.2263 46.9584 59.3103C47.4904 59.4223 47.929 59.5436 48.2744 59.6743C48.6197 59.8049 48.9137 60.0149 49.1564 60.3043C49.399 60.5936 49.5204 60.9856 49.5204 61.4803C49.5204 61.9469 49.3897 62.3576 49.1284 62.7123C48.8764 63.0576 48.5264 63.3236 48.0784 63.5103C47.6397 63.6876 47.1544 63.7763 46.6224 63.7763ZM57.8393 60.3323H52.2673C52.3327 61.0229 52.566 61.5503 52.9673 61.9143C53.3687 62.2783 53.9053 62.4603 54.5773 62.4603C54.988 62.4603 55.3613 62.3903 55.6973 62.2503C56.0427 62.1103 56.3787 61.8816 56.7053 61.5643L57.5173 62.5443C57.1253 62.9736 56.6773 63.2909 56.1733 63.4963C55.6787 63.6923 55.1093 63.7903 54.4653 63.7903C53.728 63.7903 53.0747 63.6363 52.5053 63.3283C51.9453 63.0203 51.5067 62.5769 51.1893 61.9983C50.8813 61.4196 50.7273 60.7336 50.7273 59.9403C50.7273 59.1749 50.8907 58.5029 51.2173 57.9243C51.5533 57.3456 52.0013 56.8976 52.5613 56.5803C53.1213 56.2629 53.7327 56.1043 54.3953 56.1043C55.0767 56.1043 55.6787 56.2583 56.2013 56.5663C56.724 56.8649 57.13 57.3036 57.4193 57.8823C57.7087 58.4516 57.8533 59.1329 57.8533 59.9263L57.8393 60.3323ZM54.3813 57.3643C54.0267 57.3643 53.7 57.4436 53.4013 57.6023C53.112 57.7609 52.8693 57.9849 52.6733 58.2743C52.4867 58.5543 52.3607 58.8856 52.2953 59.2683H56.3133C56.248 58.6803 56.0473 58.2183 55.7113 57.8823C55.3847 57.5369 54.9413 57.3643 54.3813 57.3643ZM61.1105 63.6083H59.6125V53.2623H61.1105V63.6083ZM64.9523 63.6083H63.4543V53.2623H64.9523V63.6083ZM73.1817 62.1663H77.6197V63.6083H70.2557V63.3843L73.6717 59.5063C74.185 58.9463 74.563 58.5029 74.8057 58.1763C75.0577 57.8496 75.235 57.5509 75.3377 57.2803C75.4497 57.0096 75.5057 56.7109 75.5057 56.3843C75.5057 56.0296 75.4217 55.7123 75.2537 55.4323C75.095 55.1523 74.8617 54.9376 74.5537 54.7883C74.255 54.6296 73.9004 54.5503 73.4897 54.5503C72.9577 54.5503 72.491 54.6763 72.0897 54.9283C71.6977 55.1709 71.3524 55.5256 71.0537 55.9923L69.9057 55.1383C70.2977 54.4849 70.8064 53.9809 71.4317 53.6263C72.057 53.2716 72.771 53.0943 73.5737 53.0943C74.3484 53.0943 75.0017 53.2436 75.5337 53.5423C76.075 53.8409 76.4764 54.2283 76.7377 54.7043C76.999 55.1803 77.1297 55.6936 77.1297 56.2443C77.1297 56.7296 77.0457 57.1776 76.8777 57.5883C76.719 57.9989 76.4717 58.4236 76.1357 58.8623C75.7997 59.3009 75.3097 59.8703 74.6657 60.5703L73.1817 62.1663ZM83.5784 63.7623C82.7011 63.7623 81.9358 63.5383 81.2824 63.0903C80.6384 62.6329 80.1391 62.0029 79.7844 61.2003C79.4391 60.3883 79.2664 59.4689 79.2664 58.4423C79.2664 57.4156 79.4391 56.5009 79.7844 55.6983C80.1391 54.8863 80.6384 54.2516 81.2824 53.7943C81.9358 53.3369 82.7011 53.1083 83.5784 53.1083C84.4464 53.1083 85.2024 53.3369 85.8464 53.7943C86.4998 54.2516 86.9991 54.8863 87.3444 55.6983C87.6991 56.5009 87.8764 57.4156 87.8764 58.4423C87.8764 59.4689 87.6991 60.3883 87.3444 61.2003C86.9991 62.0029 86.4998 62.6329 85.8464 63.0903C85.2024 63.5383 84.4464 63.7623 83.5784 63.7623ZM83.5784 62.3203C84.1198 62.3203 84.5911 62.1663 84.9924 61.8583C85.4031 61.5503 85.7158 61.1069 85.9304 60.5283C86.1544 59.9403 86.2664 59.2449 86.2664 58.4423C86.2664 57.6303 86.1544 56.9349 85.9304 56.3563C85.7158 55.7683 85.4031 55.3249 84.9924 55.0263C84.5911 54.7183 84.1198 54.5643 83.5784 54.5643C83.0278 54.5643 82.5471 54.7183 82.1364 55.0263C81.7351 55.3249 81.4224 55.7683 81.1984 56.3563C80.9744 56.9349 80.8624 57.6303 80.8624 58.4423C80.8624 59.2449 80.9744 59.9403 81.1984 60.5283C81.4224 61.1069 81.7398 61.5503 82.1504 61.8583C82.5611 62.1663 83.0371 62.3203 83.5784 62.3203ZM93.9964 63.7623C93.1191 63.7623 92.3537 63.5383 91.7004 63.0903C91.0564 62.6329 90.5571 62.0029 90.2024 61.2003C89.8571 60.3883 89.6844 59.4689 89.6844 58.4423C89.6844 57.4156 89.8571 56.5009 90.2024 55.6983C90.5571 54.8863 91.0564 54.2516 91.7004 53.7943C92.3537 53.3369 93.1191 53.1083 93.9964 53.1083C94.8644 53.1083 95.6204 53.3369 96.2644 53.7943C96.9177 54.2516 97.4171 54.8863 97.7624 55.6983C98.1171 56.5009 98.2944 57.4156 98.2944 58.4423C98.2944 59.4689 98.1171 60.3883 97.7624 61.2003C97.4171 62.0029 96.9177 62.6329 96.2644 63.0903C95.6204 63.5383 94.8644 63.7623 93.9964 63.7623ZM93.9964 62.3203C94.5377 62.3203 95.0091 62.1663 95.4104 61.8583C95.8211 61.5503 96.1337 61.1069 96.3484 60.5283C96.5724 59.9403 96.6844 59.2449 96.6844 58.4423C96.6844 57.6303 96.5724 56.9349 96.3484 56.3563C96.1337 55.7683 95.8211 55.3249 95.4104 55.0263C95.0091 54.7183 94.5377 54.5643 93.9964 54.5643C93.4457 54.5643 92.9651 54.7183 92.5544 55.0263C92.1531 55.3249 91.8404 55.7683 91.6164 56.3563C91.3924 56.9349 91.2804 57.6303 91.2804 58.4423C91.2804 59.2449 91.3924 59.9403 91.6164 60.5283C91.8404 61.1069 92.1577 61.5503 92.5684 61.8583C92.9791 62.1663 93.4551 62.3203 93.9964 62.3203ZM104.414 63.7623C103.537 63.7623 102.772 63.5383 102.118 63.0903C101.474 62.6329 100.975 62.0029 100.62 61.2003C100.275 60.3883 100.102 59.4689 100.102 58.4423C100.102 57.4156 100.275 56.5009 100.62 55.6983C100.975 54.8863 101.474 54.2516 102.118 53.7943C102.772 53.3369 103.537 53.1083 104.414 53.1083C105.282 53.1083 106.038 53.3369 106.682 53.7943C107.336 54.2516 107.835 54.8863 108.18 55.6983C108.535 56.5009 108.712 57.4156 108.712 58.4423C108.712 59.4689 108.535 60.3883 108.18 61.2003C107.835 62.0029 107.336 62.6329 106.682 63.0903C106.038 63.5383 105.282 63.7623 104.414 63.7623ZM104.414 62.3203C104.956 62.3203 105.427 62.1663 105.828 61.8583C106.239 61.5503 106.552 61.1069 106.766 60.5283C106.99 59.9403 107.102 59.2449 107.102 58.4423C107.102 57.6303 106.99 56.9349 106.766 56.3563C106.552 55.7683 106.239 55.3249 105.828 55.0263C105.427 54.7183 104.956 54.5643 104.414 54.5643C103.864 54.5643 103.383 54.7183 102.972 55.0263C102.571 55.3249 102.258 55.7683 102.034 56.3563C101.81 56.9349 101.698 57.6303 101.698 58.4423C101.698 59.2449 101.81 59.9403 102.034 60.5283C102.258 61.1069 102.576 61.5503 102.986 61.8583C103.397 62.1663 103.873 62.3203 104.414 62.3203ZM115.818 59.0023V62.1663H120.62V63.6083L114.264 63.6083V53.2623H120.466V54.6903H115.818V57.5743H120.256V59.0023H115.818ZM126.606 63.6083H125.024V54.6903H121.86V53.2623H129.77V54.6903H126.606V63.6083ZM137.576 53.2623V54.6903H133.264V57.6863H137.38V59.1003H133.264V63.6083H131.682V53.2623H137.576Z" fill="white"/>
</g>
</svg>
