<svg width="186" height="37" viewBox="0 0 186 37" fill="none" xmlns="http://www.w3.org/2000/svg">
<path fill-rule="evenodd" clip-rule="evenodd" d="M26.6092 0.00186888H37.2316V0C45.6413 0 46.9681 3.05935 46.9681 7.57455C46.9681 11.9459 44.6078 15.1491 36.3458 15.1491H33.5425V22.1443C33.5421 22.6916 33.6428 23.2344 33.8397 23.7459C33.9855 24.1833 34.4284 24.6206 35.1647 24.9121C35.6095 25.0579 36.3458 25.2018 37.3792 25.2018V26.0764H25.871V25.2018C26.9045 25.2018 27.6427 25.0579 28.0837 24.9121C28.8219 24.6206 29.2648 24.329 29.4125 23.7441L29.413 23.7425C29.5604 23.3057 29.7077 22.8694 29.7077 21.2697V0.874634H26.6092V0.00186888ZM8.31725 0.00186888H19.0873V0.872765H15.5458V18.2103C15.5458 24.7645 12.4492 26.6576 6.54748 26.6576C1.67921 26.6576 0.5 24.7645 0.5 22.2882C0.5 21.7051 0.793383 19.9577 2.56315 19.9577C4.33481 19.9577 4.48244 21.2678 4.48244 23.161C4.48244 23.8898 4.92536 25.4915 6.9904 25.4915C10.3823 25.4915 11.8568 24.0356 11.8568 18.6458V0.874634H8.31725V0.00186888ZM19.2349 23.161C19.53 22.7276 20.1201 22.578 20.7103 22.5779C21.3004 22.578 21.7431 22.7239 22.1858 23.161C22.6287 23.5983 22.7763 24.0356 22.7763 24.6187C22.7763 25.198 22.6287 25.6391 22.1858 26.0764C21.7429 26.51 21.2999 26.6558 20.7113 26.6558C20.1207 26.6558 19.6778 26.5119 19.2349 26.0764C18.792 25.6372 18.6443 25.198 18.6443 24.6187C18.6443 24.0356 18.792 23.5983 19.2349 23.161ZM44.9041 22.5779C44.314 22.578 43.8713 22.7276 43.4286 23.161C42.9876 23.5983 42.84 24.0356 42.84 24.6187C42.84 25.198 42.9876 25.6372 43.4286 26.0764C43.8715 26.5119 44.3144 26.6558 44.905 26.6558C45.4956 26.6558 46.0842 26.51 46.3814 26.0764C46.8224 25.6372 46.97 25.198 46.97 24.6187C46.97 24.0356 46.8224 23.5983 46.3795 23.161C45.9368 22.7239 45.496 22.578 44.9041 22.5779ZM35.7552 14.1306H33.5425V1.02041H35.4618C41.8046 1.02041 43.2791 3.64244 43.2791 7.72033C43.2791 11.944 40.773 14.1306 35.7552 14.1306ZM80.7527 21.8509C80.7536 22.4454 80.8533 23.0357 81.0479 23.5983C81.1956 24.1814 81.6385 24.6187 82.0795 24.9102C82.6982 25.1127 83.3471 25.2107 83.9988 25.1999V26.0746H73.6717V25.1999C74.3228 25.2106 74.971 25.1126 75.5891 24.9102C76.1797 24.6187 76.6207 24.3272 76.7683 23.7441L76.7695 23.7395C76.9167 23.158 77.0636 22.5779 77.0636 21.8509V3.78821H76.7683L67.6223 26.0727H66.8841C66.7365 25.7811 57.1476 3.64057 57.1476 3.64057H56.7047V21.122L56.8523 23.0171C56.8523 23.5983 57 24.0356 57.2952 24.3272C57.5905 24.7645 57.8858 25.056 58.4763 25.2018C58.6808 25.2018 58.8539 25.2331 59.0396 25.2667C59.2546 25.3056 59.4864 25.3476 59.8032 25.3476V26.2222H52.4251V25.3513C53.0175 25.3513 53.6062 25.3513 53.9015 25.2018C54.3444 25.0579 54.7873 24.7663 55.0826 24.329C55.3778 23.8936 55.5255 23.4563 55.5255 23.0171V0.876503H52.2793V0.00186888H59.8089C59.8089 0.147641 68.3643 19.8138 68.3643 19.8138C68.3643 19.9596 68.3643 19.9596 68.5119 19.9596L68.6596 19.812C68.6596 19.812 76.6245 0.293413 76.7721 0.00186888H83.554V0.874634H80.7527V21.8509ZM95.0622 6.99333C89.4557 6.99333 86.0639 10.6339 86.0639 16.8984C86.0639 26.2203 93.4401 26.8034 94.9146 26.8034C98.0131 26.8034 103.915 24.9102 103.915 16.7545C103.915 10.3442 100.078 6.99333 95.0622 6.99333ZM90.0463 17.0441C90.0463 23.6002 90.7845 25.6372 94.9146 25.6372C98.6036 25.6372 99.7828 23.3067 99.7828 16.7507C99.7828 12.0898 99.7828 8.15764 94.9146 8.15764C90.3416 8.15764 90.0463 11.9459 90.0463 17.0441ZM118.374 7.28488C115.126 7.28488 113.949 9.17805 113.061 11.217H112.766C112.766 11.217 112.325 8.30341 112.177 7.57455H105.685V8.59496H109.224V21.4136C109.224 22.7237 109.078 23.6002 108.785 24.1795C108.488 24.7645 107.602 25.1999 106.275 25.1999H105.685V26.3661H116.602V25.1999H116.012C114.535 25.1999 113.949 24.9102 113.649 24.3272C113.356 23.7441 113.208 22.8694 113.208 21.5593V14.5679C113.208 12.3813 114.978 9.76114 117.045 9.76114C118.017 9.76114 118.533 10.3794 119.019 10.9616C119.64 11.7046 120.211 12.3888 121.618 11.6543C122.799 10.9254 122.504 7.28488 118.374 7.28488ZM159.68 12.2374V22.434C159.828 23.6002 160.121 24.1795 161.302 24.1795V24.1814C162.041 24.1814 162.779 23.4525 162.779 22.2863H163.369C163.22 25.3457 161.744 26.5119 159.237 26.5119C157.023 26.5119 155.696 24.9084 155.547 23.5964C154.22 24.9102 152.304 26.6558 149.206 26.6558C146.404 26.6558 144.337 24.4711 144.19 22.1406C143.747 16.0219 152.007 15.2949 155.403 15.0033V11.9421C155.403 10.7797 155.107 9.90504 154.664 9.17618C154.222 8.44732 153.19 8.15764 151.861 8.15764C150.832 8.15764 149.942 8.45106 149.355 9.03041C148.91 9.61537 148.619 10.1966 148.467 11.217C148.174 12.5308 147.582 13.1102 146.55 13.1102C146.109 13.1102 145.666 12.9644 145.371 12.6728C145.077 12.5271 144.93 12.0879 144.93 11.5085C144.93 10.1966 145.518 9.32382 146.698 8.44732C148.026 7.42878 149.944 6.98959 152.599 6.98959C155.401 6.98959 157.32 7.42878 158.354 8.44732C159.383 9.46959 159.68 10.4881 159.68 12.2374ZM155.698 22.1424V22.2882L155.55 22.434C153.781 24.0375 152.306 24.6206 151.273 24.6206C148.617 24.6206 148.174 22.434 148.174 21.4154C148.174 17.9206 153.042 16.1714 155.698 16.1714V22.1424ZM182.695 21.2697C182.695 22.5779 183.138 23.4544 183.433 24.0356C183.714 24.4502 184.395 24.736 185.353 25.1382L185.5 25.1999V26.3661H176.498V25.1999C176.672 25.1574 176.846 25.1275 177.013 25.0988C177.41 25.0304 177.766 24.9693 177.972 24.7626C178.417 24.4729 178.565 24.0337 178.711 23.4544C178.805 23.179 178.781 22.7896 178.75 22.2863V22.2861V22.2859C178.732 21.9868 178.711 21.6474 178.711 21.2678V15.1491C178.711 13.6933 178.565 11.5085 178.124 10.7797C177.679 9.90691 176.943 9.46959 175.466 9.46959C173.99 9.46959 172.515 10.1966 171.779 11.5085C171.041 12.6728 171.041 14.7155 171.041 16.7526V21.7051C171.041 23.0152 171.334 23.8898 171.63 24.3272C171.923 24.7645 172.661 24.9102 173.547 25.056V26.2203H164.253V25.056C164.992 25.056 165.582 24.9102 165.877 24.7645C166.322 24.6187 166.759 24.1795 166.909 23.6002C167.057 23.161 167.206 22.434 167.206 21.4136V8.59496H164.253V7.57455H170.155L170.893 10.9254H171.189L171.252 10.8317C172.143 9.50739 173.639 7.28488 177.386 7.28488C178.417 7.28488 179.301 7.42878 180.187 7.8661C180.925 8.30341 181.661 8.8865 182.104 9.76114C182.547 10.4881 182.695 11.6543 182.695 12.8186V21.2697ZM141.241 6.1187C140.65 6.26447 140.355 6.84756 140.06 7.57642C139.912 8.30528 139.617 8.74073 139.174 8.88463C138.731 9.03228 138.29 9.03228 137.847 8.74073C136.815 7.8661 135.044 6.84756 131.798 6.84756C126.486 6.84756 124.274 10.4881 124.274 13.8372C124.274 17.7711 125.75 19.6662 129.14 20.3932C129.29 20.3932 129.29 20.6847 129.14 20.6847C126.339 21.2678 123.683 22.1424 123.683 24.7645C123.683 26.368 124.569 27.2407 125.898 27.8238C127.223 28.405 129.14 28.6985 131.502 28.6985C132.749 28.6985 133.781 28.7517 134.598 28.7938C135.134 28.8214 135.577 28.8442 135.928 28.8442C136.817 28.9574 137.672 29.2555 138.436 29.7189C139.026 30.1562 139.321 30.885 139.321 31.7559C139.321 33.0679 138.583 33.9425 137.256 34.8172C135.931 35.546 134.304 35.8376 132.093 35.8376C130.323 35.8376 128.701 35.6899 127.372 34.8172C126.341 34.2341 126.191 33.0698 126.341 32.1951C126.49 31.3205 126.191 30.4477 125.16 30.1562C124.515 30.0158 123.854 30.3129 123.537 30.885C123.24 31.3186 123.093 31.9017 123.093 32.6306C123.093 34.8153 124.864 35.8338 126.191 36.2711C128.256 36.8524 129.587 37 131.355 37C133.865 37 135.78 36.5627 137.256 35.9796C138.733 35.2507 139.619 34.378 140.207 33.3576C140.796 32.339 141.093 31.3186 141.093 30.2982C141.093 28.9881 140.796 27.822 140.207 27.095C138.558 24.9656 136.362 24.8815 132.028 24.7155C131.322 24.6885 130.559 24.6593 129.733 24.6187C126.929 24.6187 126.339 24.0356 126.339 23.161C126.339 21.8509 127.372 21.4136 131.502 20.6847C135.632 20.1016 139.467 18.5 139.467 13.6933C139.467 12.2355 139.174 11.0712 138.729 10.1985C139.617 10.3424 140.355 10.3424 141.091 10.1985C141.979 9.90691 142.418 9.46959 142.715 9.03228C143.011 8.44919 143.156 7.8661 142.863 7.42878C143.011 6.26447 142.272 5.82715 141.241 6.1187ZM128.11 13.9848C128.11 18.9354 129.441 19.812 131.947 19.812C134.307 19.812 135.93 19.0831 135.93 13.839C135.93 10.1966 135.046 7.8661 131.947 7.8661C129.292 7.8661 128.11 10.49 128.11 13.9848Z" fill="#54301A"/>
</svg>
