<svg width="258" height="42" viewBox="0 0 258 42" fill="none" xmlns="http://www.w3.org/2000/svg">
<path fill-rule="evenodd" clip-rule="evenodd" d="M30.736 16.6847C30.4844 17.1308 30.2914 17.473 30.7904 18.059C32.7393 19.9705 33.9387 22.7372 33.6888 25.8057C33.389 28.2203 32.2896 30.8361 30.6904 32.5967C30.6225 32.6732 30.5558 32.749 30.4891 32.8248C29.7222 33.6967 28.9554 34.5686 26.2428 36.4198C24.7725 37.2572 23.3621 37.9815 22.0696 38.6452L22.0695 38.6453C20.0234 39.696 18.2728 40.595 17.0477 41.5507C15.8201 40.5685 14.0175 39.6461 11.8897 38.5574C10.6394 37.9176 9.27685 37.2204 7.85265 36.4198C5.24156 34.5933 4.43333 33.7136 3.69252 32.9074L3.69246 32.9073C3.59677 32.8032 3.50221 32.7003 3.40503 32.5967C1.80589 30.8361 0.656504 28.2203 0.406638 25.8057C0.0568252 22.7372 1.25618 19.9705 3.20514 18.059C3.71418 17.4185 3.50306 17.0679 3.24421 16.6382C3.19812 16.5616 3.15052 16.4826 3.10519 16.399C2.83766 15.9093 2.67666 15.5507 2.47816 15.1087C2.26881 14.6424 2.01776 14.0833 1.55602 13.1795C1.05629 12.2741 0.856397 11.5698 0.956344 10.9662C1.26418 9.89885 2.13386 9.2557 2.84436 8.73027C3.17193 8.48802 3.46567 8.2708 3.6549 8.04857C3.6934 8.00982 3.75413 7.97853 3.81712 7.94608C3.91767 7.89429 4.02396 7.83953 4.05469 7.74675C4.20461 7.54553 4.10466 7.29402 4.10466 7.29402C4.10466 7.27953 4.05079 7.16493 3.97526 7.00426L3.97526 7.00426L3.97526 7.00426C3.78851 6.60701 3.4694 5.92818 3.50498 5.78491C3.6549 5.38248 5.85372 4.1752 7.70273 3.42064C9.90156 2.61579 11.1009 2.26366 13.0998 1.76062C15.5485 1.10668 16.9978 0 16.9978 0C16.9978 0 18.447 1.15698 20.8957 1.76062C21.1396 1.82815 21.3716 1.89192 21.595 1.95333C23.2022 2.39511 24.3623 2.714 26.2928 3.42064C28.1418 4.12489 30.3406 5.38248 30.4905 5.78491C30.5405 6.03643 29.8909 7.29402 29.8909 7.29402C29.8909 7.29402 29.8409 7.54553 29.9408 7.74675C29.9813 7.78751 30.0382 7.82001 30.0982 7.85429C30.1863 7.90462 30.2812 7.9588 30.3406 8.04857C30.521 8.27962 30.825 8.49984 31.1681 8.74832C31.8707 9.2572 32.737 9.88458 33.0392 10.9662C33.1391 11.5698 32.8893 12.2238 32.4395 13.1795C31.9778 14.0833 31.7267 14.6424 31.5174 15.1086L31.5174 15.1087C31.3189 15.5507 31.1579 15.9093 30.8903 16.399C30.84 16.5003 30.7868 16.5946 30.736 16.6847ZM23.8941 36.4198C26.8925 34.8101 28.0419 33.804 28.8914 32.8985C31.49 30.0815 32.3396 27.8682 32.3895 25.2021C32.3895 22.6869 31.54 20.3729 29.691 18.562C28.7712 17.7203 28.9707 17.4067 29.2653 16.9438L29.2653 16.9438L29.2654 16.9436C29.3229 16.8533 29.384 16.7572 29.4411 16.6505C29.7313 16.1193 29.8405 15.8686 30.0112 15.4763L30.0112 15.4763L30.0112 15.4762L30.0113 15.4761C30.1639 15.1254 30.3659 14.6616 30.7904 13.7832C30.8482 13.6595 30.9123 13.5284 30.9789 13.3922L30.9793 13.3914L30.9793 13.3914C31.3731 12.5864 31.8536 11.6041 31.6399 10.9159C31.2901 10.2116 29.691 9.10494 29.591 9.05464L29.4812 8.97429L29.4812 8.97427C28.9933 8.61741 28.6642 8.37666 28.2917 8.04857C28.1418 7.74675 28.3417 7.59584 28.3417 7.59584C28.3417 7.59584 29.0413 6.48916 28.9414 6.28794C28.3917 5.28187 23.3444 3.62186 20.5459 2.96791C19.1966 2.66609 16.8978 1.3582 16.8978 1.3582C16.8978 1.3582 14.599 2.66609 13.2498 2.96791C10.4513 3.62186 5.40396 5.28187 4.85426 6.28794C4.75431 6.48916 5.45394 7.59584 5.45394 7.59584C5.45394 7.59584 5.7038 7.74675 5.50391 8.04857C5.10413 8.451 4.75431 8.70252 4.20461 9.05464C4.10466 9.10494 2.50552 10.2116 2.1557 10.9159C1.94206 11.6041 2.42257 12.5864 2.81629 13.3914C2.88304 13.5278 2.94729 13.6592 3.00525 13.7832C3.42986 14.6618 3.63177 15.1256 3.78443 15.4763C3.95517 15.8686 4.06431 16.1193 4.35453 16.6505C4.4174 16.7771 4.48512 16.8874 4.54753 16.9891C4.83232 17.4531 5.00646 17.7368 4.10466 18.562C2.30562 20.3729 1.45608 22.6869 1.4061 25.2021C1.606 27.8682 2.45554 30.0815 5.05415 32.8985C5.9037 33.8543 7.05308 34.8101 10.0515 36.4198C10.7768 36.7978 11.4517 37.1354 12.0893 37.4542C13.912 38.3658 15.4299 39.1248 16.9478 40.2428C18.3865 39.1567 19.9028 38.4093 21.6831 37.5318L21.6831 37.5318L21.6832 37.5318C22.3765 37.1901 23.1098 36.8286 23.8941 36.4198ZM28.9414 27.7173C28.9414 29.2767 27.742 30.5343 26.1928 30.5343C25.5432 30.5343 24.8935 30.2827 24.4438 29.8803C24.094 29.5282 23.8441 28.9748 23.8441 28.3712C23.8441 27.3148 24.6437 26.4094 25.5432 26.4094C25.5685 26.4349 25.5971 26.4442 25.6289 26.4546C25.7224 26.4852 25.8437 26.5249 25.993 27.013C26.2428 27.1136 26.2928 26.9124 26.2928 26.6609C26.2928 26.2585 25.843 26.0572 25.2933 25.856C25.1158 25.789 25.0861 25.5831 25.0554 25.3705C25.017 25.1043 24.9771 24.8276 24.6437 24.7997C24.2439 24.7493 24.094 24.9506 24.1939 25.2021C24.2227 25.3471 24.3014 25.3249 24.3916 25.2993C24.4578 25.2806 24.5302 25.2601 24.5937 25.3027C24.9935 25.5542 24.4438 26.2082 24.4438 26.2082C23.8441 26.7615 23.4443 27.516 23.4443 28.3209C23.4443 28.8239 23.5942 29.2767 23.8441 29.7294C24.094 30.0815 24.3438 30.3833 24.6437 30.5343C24.6437 30.5343 24.9435 31.1882 24.1939 31.7918C24.109 31.8651 24.0241 31.8969 23.927 31.9332C23.6242 32.0465 23.2032 32.204 22.2949 33.804C22.274 33.8461 22.2268 33.8001 22.146 33.7212C22.0338 33.6117 21.8568 33.439 21.5953 33.3513C21.2955 33.15 20.3959 33.3513 20.346 34.1058C20.296 34.8101 20.9956 34.4579 21.1955 33.8543C21.4454 33.7034 21.6453 33.9549 21.7952 34.2567C21.9951 34.6591 21.5453 35.6149 20.346 36.4198C19.2466 37.124 17.2976 36.7719 17.3476 35.464C17.3975 34.5082 18.6969 34.2567 18.5469 35.0616C18.447 35.5143 19.6463 35.6149 19.0966 34.6088C18.497 33.6028 17.1477 34.5082 16.8978 35.0616C16.6479 34.4579 15.2987 33.5525 14.699 34.6088C14.0993 35.6149 15.3486 35.5646 15.2487 35.0616C15.0488 34.307 16.3981 34.5082 16.4481 35.464C16.498 36.7719 14.5491 37.124 13.4497 36.4198C12.2503 35.6652 11.8005 34.6591 12.0004 34.2567C12.1504 33.9549 12.3502 33.7034 12.6001 33.8543C12.8 34.4579 13.4996 34.8101 13.4497 34.1058C13.3997 33.3513 12.5002 33.15 12.2003 33.3513C11.9519 33.4346 11.7797 33.6101 11.6669 33.725C11.5755 33.8181 11.5231 33.8715 11.5007 33.804C10.5899 32.2378 10.1691 32.064 9.86608 31.9389C9.77007 31.8992 9.68589 31.8645 9.60172 31.7918C8.90209 31.1882 9.15196 30.5343 9.15196 30.5343C9.27689 30.3833 9.41432 30.2702 9.55175 30.157C9.68917 30.0438 9.8266 29.9306 9.95153 29.7797C10.2014 29.327 10.3013 28.8239 10.3013 28.3209C10.3013 27.516 9.90156 26.7615 9.30188 26.2082C9.30188 26.2082 8.75217 25.5542 9.15196 25.3027C9.18646 25.2853 9.23287 25.2979 9.28297 25.3115C9.378 25.3374 9.4863 25.3668 9.55175 25.2021C9.65169 24.9506 9.60172 24.85 9.10199 24.7997C8.70043 24.7708 8.67751 25.0568 8.65528 25.3342C8.63878 25.5402 8.62266 25.7414 8.45233 25.8057C7.90263 26.0069 7.50284 26.2082 7.50284 26.6106C7.50284 26.8621 7.55282 27.0633 7.80268 26.9627C7.95189 26.4746 8.07325 26.4349 8.16677 26.4043C8.19854 26.3939 8.2271 26.3846 8.25244 26.3591C9.15196 26.3591 9.95153 27.2142 9.95153 28.3209C9.95153 28.8742 9.70167 29.4779 9.35185 29.83C8.85212 30.2324 8.25244 30.484 7.60279 30.484C6.10359 30.484 4.85426 29.2264 4.85426 27.667C4.65437 25.3027 6.10359 23.8942 7.4029 23.1899C8.85212 22.5863 9.90156 20.9263 9.90156 19.0147C9.90156 16.9523 8.85212 15.3929 7.10306 14.6886C6.73483 14.4415 6.80207 14.3293 6.92082 14.1311C6.94712 14.0872 6.97593 14.0391 7.00311 13.9844C7.05308 13.8838 7.05308 13.6826 7.05308 13.5317C7.0859 13.1682 7.07561 13.152 7.05052 13.1124C7.03741 13.0917 7.02026 13.0646 7.00311 12.9783C7.00311 12.9431 6.98476 12.9079 6.96304 12.8663C6.92267 12.7888 6.87067 12.6891 6.90316 12.5256C7.00311 11.4189 8.20247 11.8716 8.30241 12.3244C8.38284 12.6887 8.30148 12.7273 8.18852 12.7808C8.1611 12.7939 8.13181 12.8078 8.10252 12.8274C7.60279 12.6262 7.75271 12.9783 7.80268 13.0789C7.90263 13.3304 8.20247 13.431 8.55228 13.1795C8.73398 13.1186 8.84227 12.9468 8.92165 12.8208C8.97325 12.739 9.01263 12.6765 9.05201 12.6765C9.60172 12.8274 9.90156 12.2238 9.65169 12.1735C9.55373 12.1537 9.44809 12.1881 9.3438 12.2221C9.18208 12.2748 9.02362 12.3264 8.90209 12.1735C8.20247 11.268 7.00311 11.3183 6.80322 11.7207C6.40343 12.425 6.10359 12.0729 6.10359 12.0729C6.10359 12.0729 5.55388 11.6704 5.65383 11.6704C6.55335 11.1674 7.00311 10.8656 8.40236 9.45707C8.60938 9.21396 8.92358 8.81499 9.26275 8.38432L9.26276 8.38431C9.9061 7.56741 10.6392 6.63648 10.901 6.43886C12.2003 5.38248 14.649 3.57155 16.0483 4.72853C16.598 5.18127 16.3981 5.6843 16.1982 5.83521C16.0404 5.99402 15.9225 5.71164 15.8319 5.49455C15.7789 5.36781 15.7353 5.26333 15.6985 5.28187C15.52 5.30753 15.5756 5.46407 15.6398 5.64467C15.7014 5.81814 15.7709 6.01381 15.6485 6.13703C15.4486 6.38855 15.0488 6.08673 15.0488 5.83521C15.0988 5.28187 13.7995 6.33825 15.3486 6.79098C15.5637 6.85284 15.6466 6.8006 15.7249 6.75118C15.774 6.72022 15.8214 6.69037 15.8984 6.69037C15.9816 6.70714 16.0705 6.75185 16.1667 6.8003C16.3592 6.89718 16.5813 7.00896 16.8478 6.94189C17.0829 6.97147 17.2835 6.87928 17.4596 6.79831C17.583 6.74159 17.6944 6.69037 17.7973 6.69037C17.912 6.66728 17.9741 6.70779 18.0367 6.74865C18.1104 6.79679 18.1848 6.8454 18.347 6.79098C19.8962 6.33825 18.5969 5.28187 18.6969 5.83521C18.6969 6.08673 18.347 6.38855 18.0972 6.13703C17.9722 6.01128 18.0347 5.82264 18.0909 5.65286C18.1471 5.48309 18.1971 5.33218 18.0472 5.28187C18.0097 5.263 17.9651 5.36455 17.9109 5.48817C17.8207 5.69397 17.7036 5.96092 17.5475 5.83521C17.3476 5.634 17.1477 5.18127 17.6974 4.72853C19.0966 3.62186 21.5953 5.43278 22.8446 6.43886C23.1064 6.63649 23.8396 7.56743 24.4829 8.38432L24.4829 8.38435L24.483 8.38447L24.4831 8.38452C24.8222 8.81511 25.1363 9.21399 25.3433 9.45707C26.7425 10.8656 27.0424 11.0668 28.0918 11.6704C28.1418 11.7207 27.5921 12.1232 27.5921 12.1232C27.5921 12.1232 27.3422 12.3244 26.8925 11.771C26.6426 11.4189 25.4932 11.3183 24.7936 12.2238C24.6721 12.3767 24.5136 12.3251 24.3519 12.2724C24.2476 12.2384 24.142 12.204 24.044 12.2238C23.7941 12.2741 24.094 12.8777 24.6437 12.7268C24.6831 12.7268 24.7224 12.7893 24.774 12.8711C24.8534 12.9971 24.9617 13.1689 25.1434 13.2298C25.4932 13.4814 25.7931 13.3807 25.893 13.1292C25.943 13.0286 26.0929 12.7268 25.5932 12.8777C25.5707 12.8551 25.5457 12.8401 25.5209 12.8253C25.4359 12.7743 25.3545 12.7255 25.3933 12.3747C25.4932 11.9219 26.6426 11.4692 26.7925 12.5759C26.8292 12.7973 26.7583 12.9104 26.7179 12.9749C26.7032 12.9983 26.6926 13.0152 26.6926 13.0286C26.6754 13.1149 26.6583 13.142 26.6452 13.1627C26.6201 13.2023 26.6098 13.2185 26.6426 13.582C26.6426 13.7832 26.6426 13.9341 26.6926 14.0347C26.7251 14.1111 26.76 14.1734 26.7901 14.227C26.8987 14.4205 26.9447 14.5026 26.5926 14.7389C24.8935 15.4432 23.7941 17.0026 23.7941 19.065C23.7941 20.9766 24.8436 22.5863 26.2928 23.2402C27.692 23.9445 29.1413 25.353 28.9414 27.7173ZM16.1982 37.124L16.9478 38.2307L17.6974 37.124L16.9478 36.0676L16.1982 37.124ZM16.8282 5.78777L16.8282 5.78775C16.9183 5.58889 16.9673 5.48079 16.9978 5.634C17.0457 5.82716 17.1513 5.97397 17.2315 6.08554C17.3184 6.20641 17.3756 6.28593 17.2976 6.33825C17.0477 6.53946 16.498 6.38855 16.598 6.23764C16.6956 6.08035 16.7704 5.91537 16.8282 5.78777ZM29.2412 26.0069C29.3412 25.856 30.0908 25.6548 30.3406 25.9063C30.5968 26.1274 30.6118 26.4024 30.6211 26.5733C30.6245 26.6357 30.6271 26.6843 30.6405 26.7112C30.6405 26.9124 30.1407 26.9627 30.1907 26.51C30.2907 26.0572 29.691 26.2082 29.591 26.6609C29.5133 26.9737 29.5262 27.3169 29.5358 27.5723L29.5358 27.5725C29.5386 27.6456 29.5411 27.7116 29.5411 27.7676C29.4411 29.7294 27.9419 30.9367 26.3428 30.9367C26.0929 30.9367 25.843 30.8864 25.5932 30.8361C25.3706 30.7987 25.2306 31.0663 25.0711 31.3712C25.0157 31.4771 24.9579 31.5875 24.8935 31.6912C24.8935 31.6912 25.843 32.0434 25.7431 32.7979C25.6431 33.5022 24.9435 33.9046 24.4438 33.2507C24.2439 32.9991 24.5937 32.9488 24.9935 32.9488C25.2933 32.7476 25.2434 32.3955 24.5437 32.2446C23.6942 32.0434 22.9446 33.9046 22.6447 34.6591C22.3449 35.464 20.6958 37.5768 18.497 37.0737C18.347 37.0737 16.9978 39.0859 16.9978 39.0859C16.9978 39.0859 15.6485 37.0234 15.4986 37.0737C13.2498 37.5768 11.6506 35.4137 11.3508 34.6591C11.1009 33.9046 10.3013 32.0434 9.4518 32.2446C8.75217 32.3955 8.7022 32.7476 9.00204 32.9488C9.40183 32.9488 9.75164 32.9991 9.55175 33.2507C9.05201 33.9046 8.35239 33.5525 8.25244 32.7979C8.15249 32.0937 9.10199 31.6912 9.10199 31.6912C9.03759 31.5875 8.97982 31.4771 8.92442 31.3712C8.76488 31.0663 8.62492 30.7987 8.40236 30.8361C8.15249 30.9367 7.90263 30.9367 7.65276 30.9367C6.05362 30.9367 4.70434 29.7797 4.4045 27.8682C4.4045 27.7902 4.41892 27.7122 4.43583 27.6207C4.47345 27.4171 4.52343 27.1468 4.45447 26.6609C4.4045 26.2082 3.80482 26.0572 3.85479 26.51C3.95474 27.013 3.45501 26.9627 3.40503 26.7112C3.40503 26.6818 3.39935 26.6448 3.39277 26.602C3.36559 26.425 3.32325 26.1494 3.60493 25.9063C3.90477 25.6548 4.60439 25.856 4.70434 26.0069C5.00418 25.0009 5.60386 24.196 6.30348 23.6427C6.30348 23.6427 6.30348 23.4918 6.20354 23.3912C6.15903 23.3762 6.1013 23.3702 6.02774 23.3624C5.85354 23.3441 5.59057 23.3165 5.20407 23.1396C5.13215 23.1034 5.06023 23.1975 4.96038 23.328C4.78271 23.5604 4.5166 23.9083 4.00471 23.8439C3.40503 23.7936 3.45501 23.1899 3.75485 23.2402C3.8145 23.2402 3.89196 23.3119 3.96597 23.3804C4.01596 23.4267 4.06437 23.4715 4.10466 23.4918C4.55442 23.5924 4.60439 22.9384 4.60439 22.6869C4.60439 22.6657 4.59327 22.6154 4.5776 22.5444C4.51899 22.2792 4.39669 21.7256 4.55442 21.3287C4.76816 20.7693 5.31102 20.4308 5.65121 20.2186L5.65125 20.2186L5.65148 20.2184C5.70887 20.1827 5.76047 20.1505 5.80375 20.1214C5.9037 20.0711 6.05362 19.719 5.85372 19.5681C5.40396 19.216 6.25351 18.9141 6.40343 19.6687C6.46949 19.9347 6.4264 20.0908 6.38958 20.2241C6.37069 20.2926 6.35346 20.355 6.35346 20.4232C6.36693 20.4911 6.43492 20.5808 6.51429 20.6857C6.72927 20.9695 7.02782 21.3637 6.55335 21.7311C6.20354 21.9827 6.10359 21.5299 6.25351 21.3287C6.60332 20.9263 5.10413 20.3226 5.05415 21.882C5.05415 22.4649 5.88769 22.768 6.24591 22.8983C6.28964 22.9142 6.32628 22.9275 6.35346 22.9384C8.15249 22.9384 9.60172 21.2281 9.60172 19.065C9.60172 17.405 8.7022 15.9965 7.45287 15.4432C7.25104 15.2197 6.78838 15.1029 6.31508 14.9834C5.61645 14.807 4.89462 14.6248 4.95421 14.085C5.00418 13.4814 5.60386 13.1292 5.9037 13.4814C5.9824 13.6398 5.88208 13.7151 5.77623 13.7945C5.68044 13.8663 5.58012 13.9416 5.60386 14.085C5.60386 14.3365 6.10359 14.4371 6.4534 14.1856C6.60332 14.085 6.6533 13.8838 6.70327 13.582C6.75324 13.1795 6.4534 12.7771 6.10359 12.4753C5.40396 11.8716 4.45447 11.5195 4.45447 11.5195C4.45447 11.5195 6.40343 10.9159 6.4534 10.3625C6.50338 9.9098 6.25351 9.8595 6.05362 10.111C5.95367 10.2619 5.60386 9.9601 6.00364 9.55768C6.35346 9.30616 6.80322 9.50737 6.95314 10.0104C7.10306 10.5134 8.90209 8.30009 9.15196 7.64614C9.25191 7.29402 9.15196 6.58977 8.75217 6.74068C8.50231 6.84128 8.55228 7.0425 8.65223 7.14311C8.80215 7.29402 8.7022 7.54553 8.50231 7.54553C8.30241 7.59584 8.00257 7.34432 8.00257 6.99219C8.00257 6.28794 9.35185 5.73461 9.70167 6.84128C9.7362 7.01509 9.84232 6.90065 9.95407 6.78014C10.004 6.72625 10.0551 6.67116 10.1015 6.64007C10.155 6.60155 10.2485 6.51229 10.378 6.38856C11.0941 5.70441 12.9135 3.96628 15.1987 3.92368C15.7705 3.92368 15.868 4.00599 15.9403 4.06702C15.9943 4.11267 16.0343 4.14642 16.2482 4.12489C16.5579 4.12489 16.8285 3.69096 16.9558 3.48684L16.9558 3.48681C16.9723 3.46044 16.9863 3.43791 16.9978 3.42064C17.0376 3.46071 17.0844 3.5256 17.1383 3.60025C17.2874 3.80675 17.4904 4.08794 17.7474 4.12489C17.9574 4.14604 17.9909 4.11385 18.0371 4.06943C18.1007 4.00818 18.1885 3.92368 18.7968 3.92368C21.1164 3.92368 22.9021 5.67926 23.6132 6.37839C23.7447 6.50766 23.8395 6.60082 23.8941 6.64007C23.9404 6.67116 23.9915 6.72625 24.0415 6.78014C24.1532 6.90065 24.2593 7.01509 24.2939 6.84128C24.6437 5.73461 26.0429 6.28794 25.993 6.99219C25.993 7.34432 25.6931 7.54553 25.4932 7.54553C25.2933 7.54553 25.1934 7.29402 25.2933 7.14311C25.3933 6.99219 25.4432 6.84128 25.1934 6.74068C24.7936 6.64007 24.6936 7.34432 24.7936 7.64614C24.9935 8.30009 26.8425 10.5134 26.9924 10.0104C27.1423 9.55768 27.6421 9.35646 27.9419 9.55768C28.3417 9.9098 27.9919 10.2619 27.8919 10.111C27.692 9.80919 27.4422 9.9098 27.4921 10.3625C27.5421 10.9159 29.4911 11.5195 29.4911 11.5195C29.4911 11.5195 27.1423 12.3747 27.2423 13.582C27.2423 13.8838 27.3422 14.085 27.4921 14.1856C27.842 14.4371 28.2917 14.3365 28.3417 14.085C28.3417 13.9453 28.2347 13.8703 28.1346 13.8001C28.0183 13.7186 27.9113 13.6435 27.9919 13.4814C28.3417 13.1795 28.9414 13.4814 28.9913 14.085C29.0211 14.6237 28.3078 14.8063 27.6198 14.9824C27.1516 15.1023 26.6951 15.2191 26.4927 15.4432C25.2933 15.9965 24.3938 17.405 24.3938 19.065C24.3938 21.1778 25.843 22.9384 27.6421 22.9384C27.6691 22.9275 27.7056 22.9143 27.749 22.8985L27.7492 22.8984L27.7496 22.8983L27.7496 22.8983C28.1078 22.768 28.9414 22.4649 28.9414 21.882C28.8914 20.2723 27.3922 20.9263 27.742 21.3287C27.8919 21.5802 27.792 21.9827 27.4422 21.7311C26.9677 21.3637 27.2663 20.9695 27.4812 20.6857L27.4812 20.6856C27.5606 20.5808 27.6286 20.4911 27.6421 20.4232C27.6636 20.3151 27.6388 20.2348 27.6116 20.1465C27.5756 20.0294 27.5351 19.8981 27.5921 19.6687C27.742 18.9644 28.5916 19.2663 28.1418 19.5681C27.9419 19.719 28.0918 20.0711 28.1918 20.1214C28.24 20.1538 28.2998 20.19 28.367 20.2308L28.3671 20.2308C28.7184 20.4436 29.2733 20.7799 29.4411 21.3287C29.5988 21.7256 29.4765 22.2792 29.4179 22.5444C29.4023 22.6154 29.3911 22.6657 29.3911 22.6869C29.3911 22.9384 29.4411 23.5924 29.8409 23.4918C29.8782 23.473 29.9225 23.4261 29.9686 23.3774C30.0458 23.2957 30.1281 23.2087 30.1907 23.2402C30.4905 23.1396 30.4905 23.7433 29.9408 23.8439C29.466 23.9036 29.2555 23.6086 29.1001 23.3906C28.9938 23.2416 28.9132 23.1287 28.7915 23.1899C28.5783 23.2704 28.3368 23.2937 28.135 23.3131L28.1349 23.3131H28.1349C27.9582 23.3301 27.812 23.3442 27.742 23.3912C27.6421 23.4415 27.6421 23.6427 27.6421 23.6427C28.3417 24.196 28.9414 25.0009 29.2412 26.0069ZM20.9956 23.4918L20.9457 23.4415C20.8957 22.8378 20.6958 22.0833 20.346 21.4293C19.7463 20.3226 18.7468 19.5681 18.1471 19.4172C18.1638 19.4004 18.1749 19.3836 18.186 19.3669C18.2082 19.3333 18.2304 19.2998 18.2971 19.2663C18.9467 18.7632 20.346 19.4172 21.0456 20.6245C21.7452 21.4796 21.5953 22.8881 20.9956 23.4918ZM18.347 25.353C18.6969 25.353 19.1466 25.1518 19.5964 24.9003C19.9602 24.7171 19.9515 24.1589 19.947 23.8705C19.9466 23.842 19.9462 23.8162 19.9462 23.7936C19.8462 21.0772 17.5974 20.4232 17.5974 20.4232V25.3027C17.5974 25.3538 17.6103 25.353 17.7147 25.3464H17.7147C17.8158 25.34 18.0028 25.3282 18.347 25.353ZM17.5974 27.8179V26.6106C18.397 26.5603 19.0966 26.4094 19.3965 26.2585C19.3965 26.7112 18.5969 27.516 17.5974 27.8179ZM17.941 13.0349C17.8473 13.0035 17.7724 12.9783 17.5974 12.9783V17.5056C17.6974 17.5056 17.9473 17.5559 18.1471 17.6062L18.1784 17.6126C18.4136 17.6603 18.6011 17.6984 18.6969 17.5056C19.1966 16.902 19.3965 16.2984 19.4964 14.8395C19.4964 14.2359 19.4465 13.7329 19.2965 13.4814C19.2287 13.3448 18.9538 13.2778 18.706 13.2173C18.5886 13.1887 18.4773 13.1616 18.397 13.1292C18.1471 13.1041 18.0347 13.0663 17.941 13.0349ZM17.5974 11.268C18.1971 11.4189 18.6969 11.8716 18.8468 12.2741C18.8341 12.2741 18.7635 12.2546 18.6612 12.2265C18.3601 12.1436 17.7839 11.985 17.5974 12.0226V11.268ZM15.0488 19.0147H16.2981V18.4614C15.8698 18.4614 15.6235 18.4309 15.3228 18.3936L15.3228 18.3936L15.3227 18.3936L15.3226 18.3935L15.3226 18.3935C15.2375 18.383 15.148 18.3719 15.0488 18.3608V19.0147ZM16.2482 25.3027C16.2482 25.5039 15.6485 25.4536 15.2987 25.1518C15.0488 25.0009 14.9988 24.699 14.9988 24.699V20.0208H16.2482V25.3027ZM15.0988 26.4597C15.1488 26.9627 15.4986 27.667 16.2482 27.9185V26.6106C15.9178 26.6475 15.6145 26.5759 15.3579 26.5154L15.3578 26.5154L15.3578 26.5154C15.265 26.4935 15.1784 26.473 15.0988 26.4597ZM16.2482 12.9783V17.3547C16.2482 17.3547 15.5985 17.405 15.2487 17.3044C15.0488 17.2038 14.9988 17.0529 14.9988 17.0529V13.2298C15.3986 13.0789 15.7984 12.9783 16.2482 12.9783ZM16.2482 11.9722V11.1171C15.5485 11.1674 15.0988 11.6201 14.9489 12.1232C14.9584 12.1232 14.9864 12.1158 15.0302 12.1042C15.215 12.0553 15.6826 11.9316 16.2482 11.9722ZM13.8494 16.8517C13.0998 16.4493 12.85 15.8959 12.85 15.3426C12.85 14.7389 13.2498 14.1856 13.8494 13.7329V16.8517ZM19.7463 18.0087C20.7957 18.3105 21.7452 19.065 22.2949 20.1717C23.2444 22.0833 22.6947 24.3469 21.1455 25.4536C20.8957 27.4154 18.8967 29.0252 17.7474 29.0755C17.7474 29.0755 17.4975 30.2324 19.1966 31.3894C20.246 32.0937 18.7468 31.9428 18.2971 31.6409L18.2384 31.6057C17.924 31.4172 17.0778 30.91 16.7979 30.5343C16.5761 30.8692 16.2449 31.0664 15.9054 31.2686C15.786 31.3397 15.6656 31.4115 15.5485 31.49C15.1987 31.6912 14.749 31.8422 14.2992 31.8422C13.1998 31.8422 12.3003 31.1379 12.3003 30.2324C12.3003 29.7294 12.6001 29.2767 13.0499 28.9748C13.1998 28.9245 13.5496 28.8742 13.7995 28.9748C13.9587 29.2495 13.8177 29.3576 13.6593 29.479C13.4695 29.6245 13.2545 29.7893 13.4996 30.2827C13.5996 30.8361 14.1993 30.8361 14.8489 30.7355C14.8489 30.7355 15.7984 30.3833 16.1482 29.2767C16.1728 29.2272 16.0764 29.1898 15.9185 29.1287C15.7555 29.0656 15.5271 28.9772 15.2987 28.8239C14.8489 28.5724 14.4491 28.0191 14.1993 27.667C12.8 28.3712 11.8505 27.5663 11.8005 26.8118C11.6506 26.51 12.0504 26.0572 12.2003 25.9566C12.6501 25.6045 12.75 26.0069 12.75 26.0069C12.7292 26.0279 12.7083 26.0467 12.6884 26.0647C12.6127 26.1329 12.5501 26.1893 12.5501 26.3088C12.5501 26.6609 12.85 26.9627 13.1998 26.9627C13.5496 26.9627 13.8494 26.6609 13.8494 26.3088C13.8494 26.0069 13.6995 25.8057 13.4497 25.7051C12.7001 24.9003 11.9505 24.85 11.6006 24.85L11.5833 24.8496L11.5669 24.849C11.436 24.8441 11.1142 24.832 10.7511 25.1518C10.3513 25.5039 9.95153 25.1518 10.4013 24.7997C11.3197 24.0601 11.3098 23.4904 11.3021 23.0515C11.3015 23.0128 11.3008 22.9751 11.3008 22.9384C11.3008 22.4354 11.2009 21.9324 10.901 21.4796C10.6012 21.0269 10.8511 20.9766 11.1009 20.9766C11.2366 20.9766 11.5563 21.5094 11.9977 22.2448C12.2067 22.5932 12.4431 22.987 12.7001 23.3912C12.8455 23.5961 12.974 23.7158 13.0856 23.8198C13.1657 23.8945 13.2371 23.961 13.2997 24.0451C13.9494 24.9003 13.8994 24.2463 13.8994 24.2463V18.3105C12.4502 17.8075 11.7006 16.7008 11.7006 15.4935C11.7006 14.3365 12.6001 13.3304 13.6995 12.7268C13.6995 12.2238 13.2997 11.7207 12.8 11.7207C12.3003 11.7207 12.2003 12.1735 12.4502 12.4753C12.4502 12.5088 12.4613 12.5424 12.4724 12.5759C12.4946 12.643 12.5168 12.71 12.4502 12.7771C12.2003 12.9783 11.8005 12.7771 11.8005 12.7771C11.5507 12.5256 11.4008 12.2741 11.4008 11.9219C11.4008 11.2177 11.9505 10.5134 13.0499 10.614C13.4497 10.614 14.0493 11.0165 14.2992 11.4189C14.5491 10.9662 15.1488 10.5637 15.7484 10.3122C15.7047 10.2594 15.6609 10.2049 15.6163 10.1495L15.6162 10.1494C15.4064 9.88851 15.1786 9.60538 14.8489 9.35646C14.7659 9.3193 14.6845 9.28214 14.6045 9.24562L14.6042 9.24547C14.2513 9.08427 13.9254 8.93543 13.5996 8.85343C13.4996 8.75282 13.5496 8.04857 14.1993 8.5013C14.7989 8.70251 15.5485 8.85343 16.1482 8.95403C16.498 9.00434 16.8978 9.05464 17.3476 9.00434C17.8973 8.95403 18.397 8.85343 18.7468 8.65221C19.1966 8.451 20.246 8.09887 20.9956 8.09887C21.1455 8.09887 21.0956 8.30009 20.9457 8.5516C20.5958 8.5516 20.1961 8.70251 19.6963 8.90373C18.7968 9.25585 18.0972 9.8595 17.9473 10.3122C19.1966 10.614 19.9462 11.771 20.1961 12.3244C20.1961 12.3244 20.6958 12.4753 21.0456 11.771C21.3954 11.0668 21.5453 11.8213 21.3954 12.0729C21.2955 12.2238 21.2955 12.9783 21.3454 13.1795C21.3454 13.3807 21.6453 14.4874 21.9451 14.7389C22.3449 15.0408 21.8951 15.4935 21.4954 14.9402C21.1455 14.4371 20.6958 14.1856 20.5958 14.2862C20.6458 14.4371 20.6458 14.6383 20.6458 14.8395C20.5958 15.8959 20.346 16.9523 19.7963 17.8075L19.7463 18.0087ZM253.971 23.9445L254.021 15.9965C254.021 14.2862 252.822 14.0347 252.222 14.0347H251.772V13.3807C252.272 13.3807 252.759 13.4059 253.246 13.431C253.734 13.4562 254.221 13.4814 254.721 13.4814C255.145 13.4814 255.57 13.4562 255.995 13.431C256.42 13.4059 256.844 13.3807 257.269 13.3807V14.0347H256.969C256.07 14.0347 255.12 14.1856 255.12 16.7008V26.2585C255.12 27.013 255.12 27.7173 255.27 28.3712H254.471L243.726 16.2984V24.9506C243.726 26.7615 244.076 27.4154 245.675 27.4154H246.025V28.0191C245.575 28.0191 245.126 27.9939 244.676 27.9688C244.226 27.9436 243.776 27.9185 243.327 27.9185C242.852 27.9185 242.377 27.9436 241.902 27.9688C241.428 27.9939 240.953 28.0191 240.478 28.0191V27.4154H240.778C242.227 27.4154 242.677 26.4094 242.677 24.7493V15.8959C242.677 14.7389 241.728 13.9844 240.778 13.9844H240.528V13.3304C240.928 13.3304 241.328 13.3556 241.728 13.3807C242.127 13.4059 242.527 13.431 242.927 13.431C243.258 13.431 243.577 13.4049 243.889 13.3792C244.188 13.3546 244.482 13.3304 244.776 13.3304L253.971 23.9445ZM230.334 27.4657H230.084V28.1197C230.456 28.1197 230.916 28.0978 231.407 28.0745C231.969 28.0478 232.572 28.0191 233.132 28.0191C233.663 28.0191 234.246 28.0448 234.821 28.0703C235.382 28.0951 235.937 28.1197 236.43 28.1197V27.516H236.131C235.381 27.516 234.581 27.4154 234.581 26.3088V15.2923C234.581 14.1856 235.381 14.085 236.131 14.085H236.43V13.431C235.937 13.431 235.382 13.4556 234.821 13.4804C234.246 13.5059 233.663 13.5317 233.132 13.5317C232.572 13.5317 231.954 13.503 231.379 13.4762C230.877 13.4529 230.406 13.431 230.034 13.431V14.085H230.334C231.083 14.085 231.883 14.1856 231.883 15.2923V26.2585C231.883 27.3651 231.083 27.4657 230.334 27.4657ZM224.437 16.5499C224.287 15.1917 223.437 13.8838 221.988 13.8838C220.339 13.8838 219.439 14.8899 219.439 16.5499C219.439 18.1205 220.719 18.7641 222.119 19.4688C223.814 20.3214 225.686 21.2635 225.686 24.0451C225.686 26.9627 223.287 28.4718 220.639 28.4718C219.489 28.4718 218.34 28.0694 217.341 27.516C217.293 27.0172 217.235 26.5184 217.176 26.0143L217.176 26.0121C217.11 25.4494 217.043 24.88 216.991 24.2966L217.59 24.1457C217.84 25.9566 218.84 27.4657 220.839 27.4657C222.238 27.4657 223.387 26.5603 223.387 25.0512C223.387 23.3344 222.08 22.6555 220.671 21.9239C219.025 21.0691 217.241 20.1425 217.241 17.405C217.241 14.6886 219.14 13.0286 221.838 13.0286C222.21 13.0286 223.022 13.1252 223.741 13.2106C224.183 13.263 224.589 13.3113 224.837 13.3304C224.837 14.3365 224.937 15.3426 225.036 16.3487L224.437 16.5499ZM203.698 21.7311L205.697 15.7953L207.596 21.7311H203.698ZM202.648 25.1015C202.582 25.3362 202.51 25.5542 202.443 25.7554L202.443 25.7555C202.31 26.1579 202.199 26.4932 202.199 26.7615C202.199 27.4154 203.098 27.516 203.748 27.516H203.998V28.1197C203.148 28.0694 202.299 28.0191 201.449 28.0191C200.699 28.0191 199.95 28.0694 199.2 28.1197V27.516H199.35C200.15 27.516 200.849 27.013 201.149 26.1578L204.497 16.4996C204.542 16.3644 204.592 16.2196 204.644 16.0682C204.881 15.3747 205.165 14.5445 205.247 13.8838C205.897 13.6323 206.746 13.2298 207.146 12.9783C207.171 12.9783 207.196 12.9657 207.221 12.9532C207.246 12.9406 207.271 12.928 207.296 12.928C207.346 12.928 207.396 12.928 207.446 12.9783C207.471 13.0538 207.508 13.1418 207.546 13.2298C207.583 13.3179 207.621 13.4059 207.646 13.4814L211.494 24.4978C211.744 25.2524 211.993 26.0069 212.243 26.6609C212.493 27.2645 212.943 27.516 213.643 27.516H213.792V28.1197C212.843 28.0694 211.894 28.0191 210.894 28.0191C209.94 28.0191 208.941 28.0649 207.896 28.1128L207.746 28.1197V27.516H207.996C208.495 27.516 209.295 27.4154 209.295 26.9124C209.295 26.6976 209.149 26.2258 208.982 25.6852L208.98 25.6802C208.952 25.5896 208.924 25.4969 208.895 25.4033L208.096 22.9887H203.348L202.648 25.1015ZM183.659 14.0347C184.308 14.0347 185.158 14.085 185.158 15.6444H185.058V26.2082C185.058 27.013 184.308 27.3651 183.559 27.3651H183.159V27.9688C183.69 27.9688 184.208 27.943 184.72 27.9176C185.22 27.8927 185.714 27.8682 186.207 27.8682C186.807 27.8682 187.407 27.8933 188.006 27.9185L188.006 27.9185C188.606 27.9436 189.206 27.9688 189.805 27.9688V27.3651H189.406C188.456 27.3651 187.706 27.3148 187.706 25.7051V21.2281H189.106C190.455 23.6427 191.854 25.9063 193.453 28.0191C193.778 28.0191 194.103 27.9939 194.428 27.9688C194.753 27.9436 195.077 27.9185 195.402 27.9185C195.752 27.9185 196.089 27.9436 196.427 27.9688C196.764 27.9939 197.101 28.0191 197.451 28.0191V27.4154C196.452 27.3148 196.052 27.0633 195.452 26.1578L191.904 20.7754C193.553 20.1717 194.803 19.0147 194.803 17.1032C194.803 14.085 192.504 13.3807 189.855 13.3807C189.323 13.3807 188.814 13.4043 188.289 13.4286C187.73 13.4546 187.152 13.4814 186.507 13.4814C185.746 13.4814 184.985 13.4468 184.354 13.4182C183.908 13.398 183.528 13.3807 183.259 13.3807V14.0347H183.659ZM187.856 20.5239H188.856C190.955 20.5239 192.054 19.719 192.054 17.2541C192.054 15.3929 190.855 14.1856 189.006 14.1856C188.406 14.1856 188.106 14.2359 187.806 14.2862V20.5239H187.856ZM169.866 21.7311L171.865 15.7953L173.764 21.7311H169.866ZM168.817 25.1015C168.75 25.3362 168.678 25.5542 168.611 25.7554L168.611 25.7555C168.478 26.1579 168.367 26.4932 168.367 26.7615C168.367 27.4154 169.266 27.516 169.916 27.516H170.166V28.1197C169.316 28.0694 168.467 28.0191 167.617 28.0191C166.868 28.0191 166.118 28.0694 165.368 28.1197V27.516H165.518C166.318 27.516 167.018 27.013 167.317 26.1578L170.666 16.4996C170.71 16.3644 170.76 16.2196 170.812 16.0682C171.049 15.3747 171.333 14.5445 171.415 13.8838C172.065 13.6323 172.914 13.2298 173.314 12.9783C173.339 12.9783 173.364 12.9657 173.389 12.9532C173.414 12.9406 173.439 12.928 173.464 12.928C173.514 12.928 173.564 12.928 173.614 12.9783C173.639 13.0538 173.676 13.1418 173.714 13.2298C173.751 13.3179 173.789 13.4059 173.814 13.4814L177.662 24.4978C177.912 25.2524 178.162 26.0069 178.411 26.6609C178.661 27.2645 179.111 27.516 179.811 27.516H179.911V28.1197C178.961 28.0694 178.012 28.0191 177.012 28.0191C176.058 28.0191 175.059 28.0649 174.014 28.1128L173.864 28.1197V27.516H174.114C174.613 27.516 175.413 27.4154 175.413 26.9124C175.413 26.6977 175.267 26.2263 175.1 25.686L175.1 25.6856C175.072 25.5932 175.042 25.4988 175.013 25.4033L174.214 22.9887H169.466L168.817 25.1015ZM158.772 13.8838C160.221 13.8838 161.071 15.1917 161.221 16.5499L161.82 16.3487C161.72 15.3426 161.62 14.3365 161.62 13.3304C161.373 13.3113 160.967 13.263 160.525 13.2106C159.806 13.1252 158.994 13.0286 158.622 13.0286C155.923 13.0286 154.024 14.6886 154.024 17.405C154.024 20.1425 155.809 21.0691 157.455 21.9239C158.864 22.6555 160.171 23.3344 160.171 25.0512C160.171 26.5603 159.022 27.4657 157.623 27.4657C155.624 27.4657 154.624 25.9566 154.374 24.1457L153.775 24.2966C153.827 24.88 153.894 25.4494 153.96 26.0121L153.96 26.0143C154.019 26.5184 154.077 27.0172 154.124 27.516C155.124 28.0694 156.273 28.4718 157.423 28.4718C160.071 28.4718 162.47 26.9627 162.47 24.0451C162.47 21.2635 160.598 20.3214 158.903 19.4688C157.502 18.7641 156.223 18.1205 156.223 16.5499C156.223 14.8899 157.123 13.8838 158.772 13.8838ZM134.535 15.7953L132.536 21.7311H136.434L134.535 15.7953ZM131.281 25.7554C131.348 25.5542 131.42 25.3362 131.487 25.1015L132.186 22.9887H136.934L137.733 25.4033L137.767 25.5123L137.82 25.6852C137.987 26.2258 138.133 26.6976 138.133 26.9124C138.133 27.4154 137.333 27.516 136.834 27.516H136.584V28.1197L136.734 28.1128C137.779 28.0649 138.778 28.0191 139.732 28.0191C140.732 28.0191 141.681 28.0694 142.631 28.1197V27.516H142.481C141.781 27.516 141.331 27.2645 141.081 26.6609C140.832 26.0069 140.582 25.2524 140.332 24.4978L136.484 13.4814C136.459 13.4059 136.421 13.3179 136.384 13.2298C136.346 13.1418 136.309 13.0538 136.284 12.9783C136.234 12.928 136.184 12.928 136.134 12.928C136.109 12.928 136.084 12.9406 136.059 12.9532C136.034 12.9657 136.009 12.9783 135.984 12.9783C135.584 13.2298 134.735 13.6323 134.085 13.8838C134.003 14.5445 133.719 15.3747 133.482 16.0682C133.43 16.2196 133.38 16.3644 133.336 16.4996L129.987 26.1578C129.687 27.013 128.988 27.516 128.188 27.516H128.038V28.1197C128.788 28.0694 129.538 28.0191 130.287 28.0191C131.137 28.0191 131.986 28.0694 132.836 28.1197V27.516H132.586C131.936 27.516 131.037 27.4154 131.037 26.7615C131.037 26.4932 131.148 26.1579 131.281 25.7555L131.281 25.7554ZM113.546 15.6444C113.546 14.085 112.697 14.0347 112.047 14.0347H111.647V13.3807C111.916 13.3807 112.297 13.398 112.743 13.4182C113.373 13.4468 114.134 13.4814 114.895 13.4814C115.54 13.4814 116.118 13.4546 116.678 13.4286C117.203 13.4043 117.711 13.3807 118.244 13.3807C120.892 13.3807 123.191 14.085 123.191 17.1032C123.191 19.0147 121.942 20.1717 120.293 20.7754L123.841 26.1578C124.44 27.0633 124.84 27.3148 125.89 27.4154V28.0191C125.54 28.0191 125.202 27.9939 124.865 27.9688C124.528 27.9436 124.19 27.9185 123.841 27.9185C123.516 27.9185 123.191 27.9436 122.866 27.9688C122.541 27.9939 122.216 28.0191 121.892 28.0191C120.293 25.9063 118.893 23.6427 117.544 21.2281H116.145V25.7051C116.145 27.3148 116.894 27.3651 117.844 27.3651H118.244V27.9688C117.644 27.9688 117.044 27.9436 116.445 27.9185L116.444 27.9185C115.845 27.8933 115.245 27.8682 114.646 27.8682C114.152 27.8682 113.658 27.8927 113.159 27.9176C112.647 27.943 112.128 27.9688 111.597 27.9688V27.3651H111.997C112.747 27.3651 113.496 27.013 113.496 26.2082V15.6444H113.546ZM117.194 20.5239H116.195H116.145V14.2862C116.445 14.2359 116.744 14.1856 117.344 14.1856C119.193 14.1856 120.392 15.3929 120.392 17.2541C120.392 19.719 119.293 20.5239 117.194 20.5239ZM101.003 19.8699H103.901C104.901 19.8699 105.251 19.216 105.251 18.1596H105.9C105.85 18.9141 105.8 19.6687 105.8 20.4232C105.8 21.2784 105.8 22.1336 105.9 22.9887H105.301C105.301 21.8317 104.951 20.9263 103.651 20.9263H101.053V26.3088C101.053 27.4657 102.002 27.516 103.052 27.516H103.302V28.1197C102.825 28.1197 102.257 28.0968 101.663 28.0728C101.012 28.0466 100.331 28.0191 99.7035 28.0191C99.1185 28.0191 98.4909 28.0476 97.9038 28.0742L97.9037 28.0742C97.3876 28.0977 96.9027 28.1197 96.5052 28.1197V27.516H96.8051C97.5547 27.516 98.3542 27.4154 98.3542 26.3088V15.2923C98.3542 14.1856 97.5547 14.085 96.8051 14.085H96.5052V13.431C97.0775 13.431 97.8489 13.4522 98.6851 13.475C99.6745 13.5021 100.755 13.5317 101.702 13.5317C102.626 13.5317 103.674 13.5036 104.664 13.4772L104.665 13.4771C105.55 13.4535 106.389 13.431 107.05 13.431C107 14.3365 107.05 15.745 107.1 16.6505L106.45 16.8014C106.3 15.3426 106 14.3365 104.351 14.3365H101.003V19.8699ZM83.1624 21.7311L85.1613 15.7953L87.0603 21.7311H83.1624ZM81.9075 25.7553L81.9075 25.7554C81.7742 26.1578 81.6632 26.4932 81.6632 26.7615C81.6632 27.4154 82.5627 27.516 83.2123 27.516H83.4622V28.1197C82.6127 28.0694 81.7631 28.0191 80.9136 28.0191C80.164 28.0191 79.4144 28.0694 78.6648 28.1197V27.516H78.7647C79.5643 27.516 80.2639 27.013 80.5638 26.1578L83.912 16.4996C83.9567 16.3645 84.0062 16.2197 84.058 16.0684C84.2954 15.3748 84.5795 14.5445 84.6616 13.8838C85.3112 13.6323 86.1608 13.2298 86.5605 12.9783C86.5855 12.9783 86.6105 12.9657 86.6355 12.9532C86.6605 12.9406 86.6855 12.928 86.7105 12.928C86.7604 12.928 86.8104 12.928 86.8604 12.9783C86.8854 13.0538 86.9229 13.1418 86.9603 13.2298C86.9978 13.3179 87.0353 13.4059 87.0603 13.4814L90.9082 24.4978C91.1581 25.2524 91.408 26.0069 91.6578 26.6609C91.9077 27.2645 92.3574 27.516 93.0571 27.516H93.207V28.1197C92.2575 28.0694 91.308 28.0191 90.3085 28.0191C89.3546 28.0191 88.3551 28.0649 87.31 28.1128L87.1602 28.1197V27.516H87.4101C87.9098 27.516 88.7094 27.4154 88.7094 26.9124C88.7094 26.6976 88.5636 26.2259 88.3965 25.6854C88.3679 25.593 88.3388 25.4987 88.3096 25.4033L87.51 22.9887H82.7626L82.1129 25.1015C82.0464 25.3358 81.9743 25.5535 81.9078 25.7544L81.9076 25.755L81.9075 25.7553ZM72.0683 13.8838C73.5175 13.8838 74.3671 15.1917 74.517 16.5499L75.1167 16.3487C75.0167 15.3426 74.9168 14.3365 74.9168 13.3304C74.6696 13.3113 74.2633 13.263 73.8217 13.2106C73.1026 13.1252 72.2899 13.0286 71.9184 13.0286C69.2198 13.0286 67.3208 14.6886 67.3208 17.405C67.3208 20.1425 69.1053 21.0691 70.7513 21.9239C72.1601 22.6555 73.4676 23.3344 73.4676 25.0512C73.4676 26.5603 72.3182 27.4657 70.9189 27.4657C68.92 27.4657 67.9205 25.9566 67.6707 24.1457L67.071 24.2966C67.1237 24.8808 67.1904 25.4509 67.2563 26.0144L67.2563 26.0146L67.2564 26.0147C67.3153 26.5187 67.3736 27.0174 67.4208 27.516C68.4203 28.0694 69.5696 28.4718 70.719 28.4718C73.3676 28.4718 75.7663 26.9627 75.7663 24.0451C75.7663 21.2635 73.894 20.3214 72.1994 19.4688C70.7988 18.7641 69.5197 18.1205 69.5197 16.5499C69.5197 14.8899 70.4192 13.8838 72.0683 13.8838ZM57.2762 26.7615C57.2762 27.667 56.5266 28.4215 55.6271 28.4215C54.7276 28.4215 53.978 27.667 53.978 26.7615C53.978 25.856 54.7276 25.1015 55.6271 25.1015C56.5266 25.1015 57.2762 25.9063 57.2762 26.7615ZM45.9323 14.085C46.8318 14.085 47.6814 14.085 47.6814 15.1917H47.7313V30.2324C47.7313 30.7858 47.5814 31.8422 46.8318 31.8422C46.2303 31.8422 46.1215 31.4002 46.0045 30.9255C45.8689 30.3746 45.7223 29.7797 44.7829 29.7797C43.9833 29.7797 43.5336 30.333 43.5336 30.9367C43.5336 32.2949 44.7829 32.6973 45.9823 32.6973C48.5809 32.6973 50.3799 30.0312 50.3799 27.5663V15.1917C50.3799 14.2862 51.1795 14.085 51.8291 14.085H52.079V13.431C51.6816 13.431 51.1857 13.4531 50.6579 13.4765C50.0575 13.5032 49.4158 13.5317 48.8307 13.5317C48.2858 13.5317 47.687 13.5045 47.1112 13.4784C46.5782 13.4543 46.0649 13.431 45.6324 13.431V14.085H45.9323Z" fill="#001950"/>
</svg>
