<svg width="456" height="316" viewBox="0 0 456 316" fill="none" xmlns="http://www.w3.org/2000/svg">
<g clip-path="url(#clip0_6_13)">
<path fill-rule="evenodd" clip-rule="evenodd" d="M75.9135 326L75.9134 8L72.0865 8L72.0865 326L75.9135 326ZM65.9134 26L65.9135 308L62.0865 308L62.0865 26L65.9134 26ZM45.9135 41L45.9135 293L42.0866 293L42.0865 41L45.9135 41ZM34.9135 271L34.9134 63L31.0865 63L31.0866 271L34.9135 271ZM24.9134 85L24.9135 249L21.0866 249L21.0865 85L24.9134 85ZM14.9135 86L14.9135 249L11.0866 249L11.0865 86L14.9135 86ZM55.9135 293L55.9135 41L52.0865 41L52.0866 293L55.9135 293ZM85.9134 26L85.9135 308L82.0865 308L82.0865 26L85.9134 26ZM96.9135 293L96.9135 41L93.0865 41L93.0866 293L96.9135 293ZM106.913 41L106.913 293L103.087 293L103.087 41L106.913 41ZM116.913 278L116.913 57L113.087 57L113.087 278L116.913 278ZM126.913 63L126.913 272L123.087 272L123.087 63L126.913 63ZM136.913 249L136.913 86L133.087 86L133.087 249L136.913 249ZM147.913 86L147.913 249L144.087 249L144.087 86L147.913 86ZM157.913 228L157.913 106L154.087 106L154.087 228L157.913 228ZM167.913 97L167.913 237L164.087 237L164.087 97L167.913 97ZM177.913 238L177.913 96L174.087 96L174.087 238L177.913 238ZM187.913 96L187.913 239L184.087 239L184.087 96L187.913 96ZM198.913 222L198.913 112L195.087 112L195.087 222L198.913 222ZM208.913 112L208.913 223L205.087 223L205.087 112L208.913 112ZM218.913 238L218.913 97L215.087 97L215.087 238L218.913 238ZM228.913 98L228.913 236L225.087 236L225.087 98L228.913 98ZM238.913 236L238.913 98L235.087 98L235.087 236L238.913 236ZM249.913 111L249.913 223L246.087 223L246.087 111L249.913 111ZM259.913 222L259.913 112L256.087 112L256.087 222L259.913 222ZM271.913 79.0435L267.913 255.043L264.087 254.957L268.087 78.9565L271.913 79.0435ZM278.913 246.024L280.913 88.0242L277.087 87.9758L275.087 245.976L278.913 246.024ZM291.913 98.0554L287.913 236.055L284.087 235.945L288.087 97.9446L291.913 98.0554ZM300.913 226L300.913 108L297.087 108L297.087 226L300.913 226ZM310.913 108L310.913 226L307.087 226L307.087 108L310.913 108ZM320.913 187L320.913 148L317.087 148L317.087 187L320.913 187ZM330.913 135L330.913 200L327.087 200L327.087 135L330.913 135ZM340.913 223L340.913 112L337.087 112L337.087 223L340.913 223ZM351.913 111L351.913 223L348.087 223L348.087 111L351.913 111ZM361.913 239L361.913 96L358.087 96L358.087 239L361.913 239ZM371.913 96L371.913 238L368.087 238L368.087 96L371.913 96ZM381.913 248L381.913 86L378.087 86L378.087 248L381.913 248ZM392.913 86L392.913 249L389.087 249L389.087 86L392.913 86ZM402.913 248L402.913 86L399.087 86L399.087 248L402.913 248ZM412.913 98L412.913 236L409.087 236L409.087 98L412.913 98ZM422.913 236L422.913 98L419.087 98L419.087 236L422.913 236ZM433.913 112L433.913 222L430.087 222L430.087 112L433.913 112ZM445.913 213L445.913 121L442.087 121L442.087 213L445.913 213Z" fill="url(#paint0_linear_6_13)"/>
<g filter="url(#filter0_d_6_13)">
<path d="M148.514 129.001H165.764V207H148.514V129.001ZM191.286 167.134L189.966 149.471V129.001H206.391V207H189.8L184.435 167.299H183.61L184.848 186.2V207H168.423V129.001H185.178L190.461 167.134H191.286ZM227.864 129.001H245.28L239.585 207H212.925L207.147 129.001H224.645L226.048 177.864L226.131 189.172H227.121V177.864L227.864 129.001ZM263.295 192.556H276.171V207H246.045V129.001H275.924V143.445H263.295V160.283H275.429V173.819H263.295V192.556ZM314.521 156.404H297.518V143.198C297.518 142.097 297.133 141.547 296.362 141.547C295.592 141.547 295.207 142.097 295.207 143.198V155.496C295.207 156.982 295.785 158.027 296.94 158.632L304.534 160.283C308.055 161.164 310.752 162.677 312.623 164.823C314.493 166.969 315.429 170.188 315.429 174.48V190.822C315.429 196.215 313.778 200.397 310.477 203.368C307.23 206.34 302.608 207.825 296.61 207.825C284.284 207.825 278.121 203.093 278.121 193.629V176.956H295.289V192.721C295.289 193.161 295.399 193.546 295.62 193.876C295.84 194.207 296.142 194.372 296.527 194.372C296.858 194.372 297.133 194.234 297.353 193.959C297.573 193.684 297.683 193.326 297.683 192.886V177.699C297.683 176.158 296.94 175.113 295.454 174.562L290.007 173.324C285.66 172.554 282.496 170.958 280.515 168.537C278.589 166.061 277.626 162.429 277.626 157.642V144.518C277.626 139.401 279.249 135.411 282.496 132.55C285.742 129.689 290.42 128.258 296.527 128.258C302.195 128.258 306.597 129.496 309.734 131.972C312.925 134.449 314.521 137.97 314.521 142.537V156.404ZM347.852 129.001V143.363H340.341V207H323.09V143.445H315.414V129.001H347.852ZM349.137 129.001H366.388V207H349.137V129.001ZM391.91 167.134L390.589 149.471V129.001H407.015V207H390.424L385.059 167.299H384.234L385.472 186.2V207H369.047V129.001H385.802L391.085 167.134H391.91ZM430.552 199.406C429.781 202.378 428.681 204.524 427.25 205.844C425.819 207.11 423.701 207.743 420.895 207.743C417.318 207.743 414.484 206.422 412.393 203.781C410.357 201.085 409.339 197.04 409.339 191.648V148.233C409.339 141.244 410.907 136.182 414.044 133.045C417.18 129.854 421.995 128.258 428.488 128.258C434.266 128.258 438.668 129.551 441.694 132.137C444.776 134.724 446.316 138.603 446.316 143.775V162.264H428.901V143.445C428.901 142.4 428.516 141.877 427.745 141.877C426.975 141.877 426.59 142.4 426.59 143.445V193.051C426.59 193.491 426.727 193.876 427.002 194.207C427.278 194.482 427.608 194.619 427.993 194.619C428.873 194.619 429.313 193.959 429.313 192.638V175.14H428.24V164.823H446.316V207H432.945L431.294 199.406H430.552Z" fill="white"/>
<path d="M114 128.956C118.072 128.956 121.373 129.671 123.905 131.102C126.491 132.478 128.417 134.404 129.682 136.88C130.948 139.356 131.581 142.382 131.581 145.959V190.447C131.581 195.895 129.985 200.022 126.793 202.828C123.657 205.579 119.392 206.955 114 206.955H94.2731V128.956H114ZM113.917 190.695V145.216C113.917 144.006 113.422 143.4 112.432 143.4H111.524V192.511H112.349C113.395 192.511 113.917 191.905 113.917 190.695Z" fill="white"/>
<path d="M89.2306 135.404V186.228C89.2306 191.18 87.6899 194.922 84.6084 197.453C81.527 199.984 77.18 201.25 71.5673 201.25C60.0669 201.25 54.3167 196.27 54.3167 186.31V135.404H69.4213V186.145C69.4213 188.126 70.1917 189.117 71.7324 189.117C73.3281 189.117 74.126 188.126 74.126 186.145V135.404H89.2306Z" fill="white"/>
<path d="M37.2771 141.357C41.0188 141.357 43.8802 142.43 45.8611 144.576C47.8971 146.722 48.915 149.721 48.915 153.572V182.173C48.915 186.08 47.8971 189.134 45.8611 191.335C43.8251 193.481 40.9363 194.554 37.1945 194.554C33.4528 194.554 30.5914 193.481 28.6105 191.335C26.6296 189.134 25.6391 186.08 25.6391 182.173V153.572C25.6391 149.721 26.6296 146.722 28.6105 144.576C30.6465 142.43 33.5353 141.357 37.2771 141.357ZM40.9088 183.081V152.747C40.9088 151.426 40.5786 150.353 39.9183 149.528C39.313 148.703 38.4601 148.29 37.3596 148.29C36.2591 148.29 35.3512 148.703 34.6358 149.528C33.9755 150.353 33.6454 151.426 33.6454 152.747V183.081C33.6454 184.457 33.9755 185.558 34.6358 186.383C35.2962 187.208 36.1766 187.621 37.2771 187.621C38.4326 187.621 39.313 187.208 39.9183 186.383C40.5786 185.558 40.9088 184.457 40.9088 183.081Z" fill="white"/>
<path d="M15.7545 182.989H21.8624V187.611H10.472V148.3H15.7545V182.989Z" fill="white"/>
</g>
</g>
<defs>
<filter id="filter0_d_6_13" x="-9.52808" y="107" width="476.528" height="129.627" filterUnits="userSpaceOnUse" color-interpolation-filters="sRGB">
<feFlood flood-opacity="0" result="BackgroundImageFix"/>
<feColorMatrix in="SourceAlpha" type="matrix" values="0 0 0 0 0 0 0 0 0 0 0 0 0 0 0 0 0 0 127 0" result="hardAlpha"/>
<feOffset/>
<feGaussianBlur stdDeviation="10"/>
<feComposite in2="hardAlpha" operator="out"/>
<feColorMatrix type="matrix" values="0 0 0 0 0 0 0 0 0 0 0 0 0 0 0.129412 0 0 0 0.6 0"/>
<feBlend mode="normal" in2="BackgroundImageFix" result="effect1_dropShadow_6_13"/>
<feBlend mode="normal" in="SourceGraphic" in2="effect1_dropShadow_6_13" result="shape"/>
</filter>
<linearGradient id="paint0_linear_6_13" x1="404.033" y1="167" x2="52.0518" y2="167" gradientUnits="userSpaceOnUse">
<stop stop-color="#F7B42C"/>
<stop offset="0.25" stop-color="#E96E14"/>
<stop offset="0.5" stop-color="#F887CC"/>
<stop offset="0.75" stop-color="#C0E8FD"/>
<stop offset="1" stop-color="#13C636"/>
</linearGradient>
<clipPath id="clip0_6_13">
<rect width="456" height="316" fill="white"/>
</clipPath>
</defs>
</svg>
