<svg width="63" height="62" viewBox="0 0 63 62" fill="none" xmlns="http://www.w3.org/2000/svg">
<path d="M31.9002 56.9912C47.3092 56.9912 59.8003 45.3545 59.8003 30.9999C59.8003 16.6453 47.3092 5.0088 31.9002 5.0088C16.4916 5.0088 4.00024 16.6453 4.00024 30.9999C4.00024 45.3545 16.4916 56.9912 31.9002 56.9912Z" fill="white"/>
<path d="M21.8059 36.3046C21.1322 36.3589 20.4733 35.9925 19.9183 35.3351C19.1709 34.4501 18.6116 33.0376 18.4578 31.4146C18.1895 28.5864 19.2536 26.1902 20.8346 26.0625C22.4156 25.9351 23.9147 28.1243 24.1829 30.9525C24.3527 32.742 23.989 34.3584 23.2985 35.3351C22.8976 35.9045 22.3866 36.2576 21.8059 36.3046ZM27.2752 31.2025C26.7349 25.5043 23.6447 21.0996 20.3731 21.3637C17.1016 21.6277 14.8876 26.4608 15.428 32.1587C15.5339 33.2755 15.7377 34.3427 16.0218 35.3351C17.1868 39.4042 19.6998 42.2097 22.3301 41.9975C24.7667 41.8007 26.6167 39.0697 27.179 35.3345C27.3717 34.0546 27.4132 32.6566 27.2752 31.2025Z" fill="#ED1C24"/>
<path d="M31.9517 54.0278H31.8515C29.8471 54.0181 27.6832 53.7141 25.8278 53.2861C29.0266 47.7666 29.5432 42.3313 29.5432 42.3313V24.4692L19.0154 15.2088C14.8654 18.5617 12.2496 23.4924 12.2496 28.9918C12.2496 36.4732 17.1062 42.9242 24.0711 45.7613L21.8622 51.9656C13.1446 48.36 7.06812 40.2783 7.06812 30.887C7.06812 19.7733 15.5834 10.5031 26.9105 8.30518C27.0154 8.28745 27.1168 8.2781 27.2278 8.2781C28.1599 8.2781 28.9157 8.93467 28.9157 9.7447C28.9157 10.3609 28.4786 10.888 27.8592 11.1053C25.8198 11.5095 23.8984 12.2032 22.1472 13.1377L31.8515 21.649L41.6463 13.1341C39.8972 12.2015 37.9779 11.509 35.9411 11.1053C35.3217 10.888 34.8848 10.3609 34.8848 9.7447C34.8848 8.93467 35.6407 8.2781 36.5726 8.2781C36.6838 8.2781 36.7849 8.28745 36.8899 8.30518C48.2169 10.5031 56.7325 19.7733 56.7325 30.887C56.7325 40.2783 50.6558 48.36 41.9384 51.9656L39.7293 45.7613C46.6942 42.9242 51.5508 36.4732 51.5508 28.9918C51.5508 23.4931 48.9356 18.5629 44.7865 15.21L34.26 24.4692V42.3313C34.26 42.3313 34.7768 47.7666 37.9755 53.2861C36.1203 53.7141 33.956 54.0181 31.9517 54.0278Z" fill="#ED1C24"/>
<path d="M47.3401 29.3865C48.0449 33.148 45.5632 38.3327 40.7598 41.8433C39.9828 42.4112 39.813 42.7266 39.2529 43.0227L38.1533 39.8343C38.8171 39.5189 39.0656 39.3713 39.9369 38.7347C42.1972 37.0826 43.4139 34.8619 43.0641 32.9935C42.826 31.723 41.8384 30.466 40.1901 31.6705C38.9422 32.5826 38.1932 33.3002 37.1476 34.4328L37.1723 25.2849L44.7643 18.7785L44.6955 22.8384L40.6727 26.0176L40.7089 28.7103C41.0056 28.4368 41.2601 28.2224 41.8254 27.8094C44.4621 25.8821 46.8177 26.5961 47.3401 29.3865Z" fill="#ED1C24"/>
<path d="M31.9003 6.60002C17.4514 6.60002 5.69638 17.5457 5.69638 30.9999C5.69638 44.4542 17.4514 55.4 31.9003 55.4C46.349 55.4 58.1041 44.4542 58.1041 30.9999C58.1041 17.5457 46.349 6.60002 31.9003 6.60002ZM31.9003 55.7246C17.2723 55.7246 5.3717 44.6331 5.3717 30.9999C5.3717 17.3667 17.2723 6.27539 31.9003 6.27539C46.528 6.27539 58.4288 17.3667 58.4288 30.9999C58.4288 44.6331 46.528 55.7246 31.9003 55.7246Z" fill="#ED1C24"/>
</svg>
