<svg width="219" height="284" viewBox="0 0 219 284" fill="none" xmlns="http://www.w3.org/2000/svg">
<rect x="218.632" y="0.690674" width="282.464" height="218.268" rx="10" transform="rotate(90 218.632 0.690674)" fill="#66667A"/>
<path d="M53.1007 40.2925L76.3301 40.2925L71.2131 34.404L76.8986 34.404L82.0156 40.2925L82.0156 45.5719L53.1007 45.5719L53.1007 40.2925ZM52.857 62.5344C52.857 57.3768 55.9028 53.2751 61.5071 53.2751C65.0403 53.2751 66.949 55.3056 68.0048 56.8895C69.0201 55.4275 70.9288 53.6406 74.0152 53.6406C79.0916 53.6406 82.2592 57.7017 82.2592 62.5344C82.2592 67.3264 79.0916 71.3875 74.0152 71.3875C70.9288 71.3875 69.0201 69.6413 68.0048 68.1387C66.949 69.7631 65.0403 71.7936 61.5071 71.7936C55.9028 71.7936 52.857 67.6513 52.857 62.5344ZM57.6085 62.5344C57.6085 64.7274 59.3547 66.5142 61.5883 66.5142C63.8219 66.5142 65.6088 64.7274 65.6088 62.5344C65.6088 60.3008 63.8219 58.5545 61.5883 58.5545C59.3547 58.5545 57.6085 60.3008 57.6085 62.5344ZM70.1978 62.5344C70.1978 64.6055 71.741 66.1081 73.8528 66.1081C75.9646 66.1081 77.5078 64.6055 77.5078 62.5344C77.5078 60.4632 75.9646 58.92 73.8528 58.92C71.741 58.92 70.1978 60.4632 70.1978 62.5344ZM53.1007 77.1629L68.4086 84.4083L68.4086 86.6013L53.1007 79.3559L53.1007 77.1629ZM60.5181 76.9909C60.5181 75.3139 61.5071 73.8734 63.4636 73.8734L65.5921 73.8734C67.5486 73.8734 68.5376 75.3139 68.5376 76.9909C68.5376 78.6679 67.5486 80.1084 65.5921 80.1084L63.4636 80.1084C61.5071 80.1084 60.5181 78.6679 60.5181 76.9909ZM62.3241 76.9909C62.3241 77.6574 62.7326 78.0874 63.5711 78.0874L65.4846 78.0874C66.3231 78.0874 66.7101 77.6574 66.7101 76.9909C66.7101 76.3459 66.3231 75.9159 65.4846 75.9159L63.5711 75.9159C62.7326 75.9159 62.3241 76.3459 62.3241 76.9909ZM52.9717 86.7518C52.9717 85.0748 53.9607 83.6343 55.9172 83.6343L58.0456 83.6343C60.0021 83.6343 60.9911 85.0748 60.9911 86.7518C60.9911 88.4288 60.0021 89.8693 58.0456 89.8693L55.9172 89.8693C53.9607 89.8693 52.9717 88.4288 52.9717 86.7518ZM54.7992 86.7518C54.7992 87.4183 55.1862 87.8483 56.0247 87.8483L57.9381 87.8483C58.7766 87.8483 59.1851 87.4183 59.1851 86.7518C59.1851 86.1068 58.7766 85.6553 57.9381 85.6553L56.0247 85.6553C55.1862 85.6553 54.7992 86.1068 54.7992 86.7518Z" fill="white"/>
<rect opacity="0.6" x="39.0247" y="30.221" width="93.7268" height="10.4141" rx="5.20704" transform="rotate(90 39.0247 30.221)" fill="white"/>
<g clip-path="url(#clip0_1_36)">
<path fill-rule="evenodd" clip-rule="evenodd" d="M193.149 219.297L164.936 219.297C149.418 219.297 136.708 219.312 136.686 219.334C136.664 219.357 136.76 220.315 136.887 221.475C137.013 222.634 137.176 224.232 137.243 225.028C137.347 226.246 137.578 229.903 137.585 230.319C137.585 230.446 138.216 230.453 149.537 230.468L161.462 230.49L161.482 230.483L161.467 230.483L193.149 219.297Z" fill="#B1060F"/>
<path fill-rule="evenodd" clip-rule="evenodd" d="M193.149 219.297L155.022 230.477L161.461 230.49L161.482 230.483L161.467 230.483L193.149 219.297Z" fill="#9D030F"/>
<path fill-rule="evenodd" clip-rule="evenodd" d="M193.112 239.327L180.633 239.305L168.16 239.283L136.694 250.372C136.687 250.365 136.684 250.336 136.684 250.288C136.684 250.344 136.687 250.378 136.694 250.387C136.724 250.424 149.426 250.431 164.929 250.424L193.112 250.402L193.112 239.327Z" fill="#B1060F"/>
<path fill-rule="evenodd" clip-rule="evenodd" d="M168.16 239.283L138.039 249.898L174.468 239.295L168.16 239.283Z" fill="#9D030F"/>
<path fill-rule="evenodd" clip-rule="evenodd" d="M193.149 219.297L161.467 230.483L161.482 230.483L158.986 231.367C145.088 236.28 137.63 238.919 137.615 238.933C137.607 238.941 137.563 239.684 137.518 240.583C137.385 243.304 137.095 246.678 136.775 249.242C136.701 249.829 136.664 250.342 136.694 250.372L168.16 239.283L168.153 239.283L171.05 238.257C173.88 237.254 175.774 236.585 187.169 232.549C190.237 231.464 192.83 230.542 192.949 230.505L193.157 230.431L193.157 224.864L193.149 219.297Z" fill="#E50914"/>
</g>
<defs>
<clipPath id="clip0_1_36">
<rect width="33.0822" height="56.4929" fill="white" transform="translate(193.157 218.323) rotate(90)"/>
</clipPath>
</defs>
</svg>
