<svg width="149" height="47" viewBox="0 0 149 47" fill="none" xmlns="http://www.w3.org/2000/svg">
<path fill-rule="evenodd" clip-rule="evenodd" d="M25.9448 46.0019C24.9565 46.0019 24.7532 44.991 24.7532 43.4725C24.7532 42.3747 24.7532 41.0122 25.8909 41.0122C26.9383 41.0122 27.0837 42.2712 27.0837 43.6323C27.0837 44.6874 27.0837 46.0019 25.9448 46.0019ZM25.9681 40.0077C24.2437 40.0077 23.2578 41.2932 23.2578 43.5366C23.2578 45.7701 24.1972 47 25.9012 47C27.6282 47 28.5791 45.7701 28.5791 43.5366C28.5791 41.2604 27.6513 40.0077 25.9681 40.0077ZM15.9523 46.0751C15.3 46.0751 14.6423 45.7119 14.6423 44.8991C14.6423 44.439 15.0156 43.9677 15.354 43.8303L15.6024 43.8619C16.1981 44.0359 17.1285 44.303 17.1285 45.1247C17.1285 45.6818 16.646 46.0752 15.9523 46.0752V46.0751ZM15.8855 40.9313C16.4776 40.9313 16.9086 41.3712 16.9086 41.9787C16.9086 42.4249 16.6617 42.6948 16.3914 42.919L16.3127 42.9871L16.1802 42.9443C15.6271 42.7729 14.9397 42.5586 14.9397 41.7748C14.9397 41.3613 15.2949 40.9314 15.8856 40.9314L15.8855 40.9313ZM17.4516 43.4081L17.2174 43.3072L17.4439 43.1813C17.8803 42.9227 18.3203 42.5851 18.3203 41.7872C18.3203 40.9023 17.5366 40.0076 16.04 40.0076C14.5446 40.0076 13.5371 40.7511 13.5371 41.8501C13.5371 42.5851 13.8587 42.9491 14.3401 43.2668L14.5357 43.3928L14.3246 43.5163C13.5744 43.8767 13.1973 44.391 13.1973 45.0803C13.1973 46.2651 14.201 46.9999 15.82 46.9999C17.5315 46.9999 18.5956 46.221 18.5956 44.9733C18.5956 44.255 18.2213 43.7583 17.4516 43.408M34.8681 42.3329L34.7174 42.3392V41.0611L34.8899 41.0362C35.2644 40.9881 36.4727 40.9908 36.5718 40.9908C37.2681 40.9908 37.4547 41.185 37.6888 41.4344L37.6876 40C37.4173 40.0983 37.1175 40.0832 36.8885 40.0832H33.5233V43.3754C33.724 43.3224 34.0651 43.2809 34.3907 43.2644C35.0765 43.2 35.644 43.3463 36.0262 43.6828C36.3506 43.9702 36.483 44.2829 36.4483 44.8652C36.3852 45.9566 35.617 46.1381 34.7703 46.1381C34.3558 46.1381 33.751 46.0422 33.3084 45.8383L32.9789 46.6018C33.5053 46.859 34.1525 47 34.8654 47C37.1523 47 37.8845 45.7386 37.8845 44.6634C37.8845 44.4428 37.9103 43.6802 37.2462 43.0578C36.689 42.5383 35.8885 42.2913 34.868 42.333M7.90821 45.9344L7.91794 40.0383C7.29768 40.6079 6.63749 40.9457 5.88464 41.1953L6.52557 41.3907L6.546 45.9344C6.546 46.6098 6.20901 46.7156 6.01334 46.9249H8.4404C8.24474 46.7156 7.90754 46.6098 7.90754 45.9344" fill="#990000"/>
<path fill-rule="evenodd" clip-rule="evenodd" d="M88.669 37C80.7109 37 77.7163 32.297 76.8215 28.3103L76.8229 28.3102C76.59 27.277 76.499 26.289 76.499 25.4466C76.499 23.5425 76.7846 21.4716 77.6192 19.6226C79.0288 16.4952 82.008 14 87.8166 14C88.87 14 89.7695 14.184 90.2592 14.2842C90.3765 14.3082 90.4703 14.3274 90.537 14.3381C90.8073 14.3809 91.0992 14.412 91.3693 14.412C91.7525 14.412 91.9789 14.2603 92.1921 14.1173L92.2361 14.0878C92.2822 14.0586 92.4076 13.9896 92.4076 14.1768L92.4108 17.4351L92.4076 17.567C92.4076 17.7328 92.273 17.692 92.2347 17.6586C92.1686 17.6019 92.0911 17.5294 92.0014 17.4455L92.0014 17.4455C91.3426 16.8291 90.0319 15.6029 87.8344 15.6029C87.8344 15.6043 87.8456 15.6054 87.8545 15.6063C87.8792 15.6087 87.887 15.6095 87.5987 15.6095C84.5517 15.6095 82.2743 17.1089 80.9683 19.6227H80.9671C80.1374 21.2151 79.6983 23.2136 79.6983 25.4923C79.6983 26.4787 79.8046 27.4225 80.0081 28.3115C80.9619 32.4999 84.0704 35.4309 88.244 35.4309C89.1568 35.4309 90.5217 35.1438 91.4395 34.8759C93.3751 34.3061 94.6314 32.9109 95.5979 31.8376C95.6676 31.7601 95.7359 31.6843 95.8028 31.6106C95.841 31.5692 95.9638 31.5952 95.9153 31.7251C95.58 32.6052 94.3727 35.4259 94.343 35.4662C94.1857 35.6843 93.3189 36.1005 92.6788 36.3188C91.6494 36.6723 90.2041 37 88.669 37ZM148.883 17.3102L148.879 14.2082C148.879 14.2082 148.908 14.0897 148.733 14.1217C148.272 14.2457 147.557 14.3414 147.086 14.3414H133.703C133.234 14.3414 132.518 14.2458 132.057 14.1217C131.885 14.0897 131.907 14.2082 131.907 14.2082L131.906 17.3102C131.906 17.3514 131.905 17.3869 131.905 17.4182C131.903 17.5031 131.902 17.5564 131.917 17.6035C131.942 17.7199 132.063 17.6971 132.097 17.597C132.097 17.597 132.166 17.2779 132.392 16.9834C132.786 16.4687 133.431 15.7492 134.466 15.7389L135.714 15.7406L135.854 15.7433C136.607 15.7578 138.208 15.7886 138.704 15.8341L138.905 15.855V19.6212V28.31V33.4809C138.905 35.9975 136.871 36.4653 136.871 36.4653C136.784 36.4915 136.728 36.598 136.866 36.6382C136.929 36.6603 137.032 36.6603 137.181 36.6603H143.618C143.768 36.6603 143.868 36.6603 143.93 36.6382C144.067 36.598 144.015 36.4915 143.927 36.4653C143.927 36.4653 141.894 35.9975 141.894 33.4809L141.891 28.31L141.884 19.6212V15.855L142.082 15.8341C142.612 15.7853 144.403 15.7522 145.079 15.7406L146.322 15.7389C147.356 15.7488 147.998 16.4687 148.397 16.9834C148.62 17.2779 148.693 17.597 148.693 17.597C148.722 17.6959 148.844 17.7187 148.873 17.6035C148.886 17.5565 148.885 17.5035 148.884 17.419L148.884 17.418V17.4178V17.4175V17.4172V17.4168C148.883 17.3859 148.883 17.3508 148.883 17.3102ZM111.914 14.1218C111.456 14.2458 110.737 14.3415 110.27 14.3415H96.6199C96.1525 14.3415 95.4356 14.2458 94.9735 14.1218C94.802 14.0898 94.8274 14.2083 94.8274 14.2083L94.821 17.3103L94.8208 17.3754C94.8204 17.4862 94.8202 17.549 94.8339 17.6036C94.8607 17.7199 94.9823 17.6972 95.0156 17.5971C95.0156 17.5971 95.0886 17.278 95.3128 16.9834C95.7045 16.4688 96.3484 15.7493 97.3854 15.739L98.6325 15.7407L98.9463 15.7465C99.7984 15.762 101.424 15.7917 101.889 15.8342L102.089 15.855V19.6213V28.3101V33.4809C102.089 35.9976 100.053 36.4654 100.053 36.4654C99.9677 36.4916 99.9127 36.5981 100.05 36.6383C100.113 36.6604 100.217 36.6604 100.365 36.6604H106.799C106.951 36.6604 107.052 36.6604 107.114 36.6383C107.251 36.5981 107.197 36.4916 107.11 36.4654C107.11 36.4654 105.077 35.9976 105.077 33.4809L105.076 28.3101L105.071 19.6213L105.07 15.855L105.266 15.8342C105.796 15.7854 107.587 15.7523 108.258 15.7407L109.508 15.739C110.543 15.7489 111.183 16.4688 111.58 16.9834C111.805 17.278 111.874 17.5971 111.874 17.5971C111.91 17.696 112.03 17.7188 112.057 17.6036C112.072 17.5447 112.072 17.4764 112.072 17.3488V17.3487V17.3486V17.3486V17.3485V17.3484L112.072 17.3103L112.065 14.2083C112.065 14.2083 112.091 14.0898 111.915 14.1218H111.914ZM56.0648 26.2963C56.0745 26.3061 54.6413 26.3235 52.8794 26.2314L52.8746 19.6222L52.8732 18.943C52.8732 18.5564 52.9193 16.0618 52.9924 15.748C53.7865 15.6499 55.0074 15.6611 55.9339 15.6697H55.9339H55.9339H55.9339C56.168 15.6718 56.3833 15.6738 56.5682 15.6738C59.756 15.6738 61.135 17.3813 61.5099 19.6268H61.5114C61.5867 20.088 61.6214 20.5677 61.6214 21.0631C61.6214 23.9565 60.3782 26.2962 56.065 26.2962L56.0648 26.2963ZM56.8739 14.3135C61.4419 14.3135 63.6683 16.6319 64.1753 19.6221L64.1753 19.6274C64.2521 20.0802 64.2892 20.5501 64.2892 21.0299C64.2892 24.7073 62.1129 27.7851 56.6038 27.7851C56.6038 27.7851 54.2955 27.7643 52.9333 27.6696V28.3115V33.8258C52.9333 36.3435 54.9662 36.485 54.9662 36.485C55.056 36.5059 55.1071 36.6151 54.9727 36.6567C54.9076 36.6785 54.8051 36.6801 54.6552 36.6801H48.2822C48.1323 36.6801 48.0299 36.6775 47.9697 36.6567C47.8295 36.6151 47.8858 36.5059 47.9729 36.485C47.9729 36.485 50.0059 36.3435 50.0059 33.8258V28.3115V19.6227V17.1834C50.0059 14.665 47.9729 14.5248 47.9729 14.5248C47.8864 14.5021 47.8301 14.3946 47.9697 14.3531C48.0298 14.3315 48.1323 14.3299 48.2822 14.3299L56.8739 14.3135ZM71.8583 19.6208V17.1856C71.8583 14.6689 73.8951 14.5268 73.8951 14.5268C73.9834 14.504 74.0347 14.398 73.8967 14.3552C73.8342 14.3367 73.7317 14.3342 73.5818 14.3342H67.4186C67.269 14.3342 67.1666 14.3358 67.1051 14.3552C66.9667 14.3979 67.0206 14.5041 67.1063 14.5268C67.1063 14.5268 69.1419 14.6689 69.1419 17.1856V19.6208V28.3097V33.8291C69.1419 36.3507 67.1063 36.4912 67.1063 36.4912C67.0206 36.5118 66.9667 36.6172 67.1051 36.66C67.1666 36.6808 67.2689 36.6808 67.4186 36.6808H73.5818C73.7317 36.6808 73.8342 36.6808 73.8967 36.66C74.0339 36.6172 73.9826 36.5118 73.8951 36.4912C73.8951 36.4912 71.8583 36.3508 71.8583 33.8291V28.3097V19.6208ZM128.656 33.9407C128.92 33.6601 129.075 33.3037 129.075 33.3037L129.076 33.3062C129.11 33.2037 129.236 33.1815 129.265 33.2997C129.277 33.3495 129.276 33.4076 129.275 33.5015C129.275 33.5323 129.274 33.567 129.274 33.6065L129.271 36.5129C129.271 36.5129 129.274 36.6728 129.139 36.6728L124.543 36.6745H114.886C114.736 36.6745 114.633 36.6722 114.57 36.6537C114.433 36.6107 114.488 36.5042 114.576 36.4806C114.576 36.4806 116.607 36.0128 116.607 33.4922V28.3097V19.6209V17.5165C116.607 14.9979 114.57 14.5308 114.57 14.5308C114.488 14.5072 114.43 14.402 114.569 14.3598C114.629 14.3412 114.732 14.3363 114.882 14.3363L124.797 14.3429H126.991C127.459 14.3429 128.178 14.2474 128.636 14.1233C128.811 14.0901 128.785 14.2064 128.785 14.2064L128.788 17.3357C128.788 17.3688 128.788 17.3983 128.788 17.425C128.789 17.5196 128.789 17.5777 128.781 17.629C128.748 17.7417 128.628 17.7227 128.598 17.6241C128.598 17.6241 128.383 17.3048 128.158 17.008C127.76 16.4964 127.119 15.7836 126.086 15.7722C126.071 15.7722 126.007 15.7685 125.909 15.7627C125.604 15.7449 124.964 15.7075 124.371 15.7001C122.621 15.7105 120.831 15.79 119.81 15.8744L119.626 15.9022V19.6205V24.684H124.848C126.077 24.684 126.308 23.6717 126.308 23.6717C126.316 23.6301 126.371 23.6027 126.391 23.6717C126.399 23.7028 126.402 23.7523 126.402 23.8303V27.0241C126.402 27.0981 126.399 27.1501 126.391 27.1838C126.371 27.2492 126.316 27.222 126.308 27.1789C126.308 27.1789 126.077 26.1676 124.848 26.1676H119.626V28.3097V34.9793C119.626 34.9793 121.864 35.2445 124.321 35.2445C124.321 35.2445 125.709 35.2642 126.732 35.0065C127.899 34.7128 128.164 34.4841 128.656 33.9407Z" fill="#656565"/>
<path fill-rule="evenodd" clip-rule="evenodd" d="M21.9753 3.21377C21.8736 2.81241 21.5775 2.28033 21.325 2.04199C22.4539 1.53943 23.8224 1.75928 24.11 2.00199C23.0013 2.24594 22.3497 2.74731 21.9753 3.21372V3.21377ZM29.8193 4.57228C29.5356 4.83552 28.717 5.69247 28.1832 5.83963C27.8154 5.91674 27.946 5.66696 28.1006 5.49107C28.8941 4.60481 29.3661 3.82677 29.5383 3.43423C29.7541 2.96158 29.8508 1.88277 28.4873 2.05545C28.2248 2.08356 27.3899 2.28153 26.4543 2.93789C26.2409 3.08454 26.2446 2.89597 26.3049 2.76602C26.4556 2.43713 27.1813 1.8382 27.3382 1.70828C26.6917 1.18062 23.0051 -0.915572 19.0286 1.74844C18.5349 2.10704 18.0781 2.2225 17.8207 2.32249C17.651 2.37855 17.2243 2.62327 17.2191 3.31196C17.2349 3.44062 17.2644 3.52218 17.4439 3.48022C18.0215 3.31638 18.4497 3.00937 18.8315 2.87666C19.1554 2.73097 19.5095 2.95248 19.119 3.21377C18.6204 3.51194 18.1181 3.80951 17.8607 4.14723C17.7165 4.3207 17.1451 5.05336 17.9978 6.1645C18.2462 5.7529 19.0938 4.73411 20.3018 4.89334C21.4695 5.00032 22.8656 6.29702 22.6221 8.28701C22.5167 9.27206 21.5082 10.4219 20.1748 9.84087C19.7103 9.59993 19.4003 9.27707 19.1429 8.38379C18.8702 8.55204 18.4496 9.09939 18.7836 9.77462C18.8414 9.93027 18.8087 10.027 18.6606 10.1435C18.5076 10.239 18.4196 10.4627 18.5427 10.689C19.5748 12.5583 23.0505 11.7154 23.6543 9.02288C23.6985 8.87622 23.8816 8.85904 23.8765 9.11701C23.7937 12.5954 19.8033 14.3424 17.0284 11.3421C16.6957 11.012 16.3892 10.9955 15.9334 11.1108C15.4362 11.2618 13.878 11.6001 12.8219 11.4078C12.7843 12.0812 12.8314 13.8734 15.5104 14.5322C15.8556 14.6016 15.6334 14.7825 15.4962 14.8599C14.2292 15.565 13.2196 15.4785 12.4902 15.2178C12.7889 16.8789 14.4816 17.5907 15.6366 16.7203C16.7204 15.9252 17.4399 15.9871 17.7462 16.0889C17.9709 16.1724 18.0689 16.3577 17.7414 16.3979C17.0282 16.4793 16.0475 16.9312 15.6469 18.1826C15.2213 19.5162 14.591 20.0425 14.2494 20.1226C14.9539 20.3318 16.6778 20.2859 17.6322 19.7532C18.2938 19.3829 18.9279 18.2164 19.7893 18.2571C19.9213 18.2716 20.0039 18.2891 19.8054 18.4929C19.7051 18.5902 19.0283 19.2492 18.8111 20.2419C18.7508 20.5204 18.4696 21.8417 17.7928 22.2548C19.7629 22.9734 22.1912 21.8144 22.4274 18.9498C22.4473 18.7145 22.6057 18.5934 22.7036 18.9498C23.2724 21.0147 22.0996 23.1199 21.9552 23.3065C25.4207 22.9204 25.5137 20.535 25.4734 20.0558C25.4999 19.562 24.8432 17.4441 25.5287 16.8312C25.707 16.6687 25.859 16.7068 25.8087 17.0279C25.7194 17.5863 26.144 18.4541 26.3662 19.0434C26.9439 20.5744 26.2746 21.8417 25.7272 22.4899C26.095 22.3114 28.8612 21.1217 28.3626 18.6344C28.2559 18.1023 27.5578 17.0438 27.574 15.9071C27.5835 15.3307 27.9319 14.691 28.1191 14.5456C28.3163 14.3933 28.4518 14.5034 28.4091 14.7054C28.3439 14.9916 28.2572 16.0041 28.7419 16.7306C28.8812 16.937 29.3722 17.7112 29.4187 19.1287C31.2507 16.5731 30.4018 14.9916 29.9988 14.3884C28.5899 12.275 29.2026 10.9152 29.3597 10.5699C29.4664 10.3327 29.7099 10.285 29.7627 10.5328C29.8153 10.7793 29.7099 12.3812 30.9743 13.8473C31.3547 14.3712 31.2946 15.0013 31.3385 15.2854C33.9941 9.90272 30.2261 5.06661 29.8191 4.57228M39.5641 14.5139C38.812 15.6149 38.7241 15.5269 38.1967 16.512C37.5513 17.7112 37.1847 20.3745 38.5848 22.1871C38.8472 19.7538 40.8586 18.6879 41.4777 17.8169C42.1608 16.8573 41.8332 16.0182 41.5782 15.5422C41.2466 14.9227 41.4526 14.4368 41.5593 13.8919C41.8228 12.5583 41.6359 11.6714 41.351 10.9068C40.8071 9.45036 38.2332 8.09064 35.7848 10.3372C35.5561 10.6043 28.178 16.6706 31.8796 29.2405C32.4585 31.4247 31.3913 32.8468 30.4106 33.61C29.3935 34.4029 27.3668 34.8665 25.7873 33.7173C22.008 30.9621 23.5824 25.5986 24.8078 23.5194C24.5116 23.7821 23.1115 24.4734 20.3981 24.3716C20.6618 23.9993 21.1879 23.16 21.306 22.7938C18.8561 24.2937 16.6073 22.8172 16.2496 22.3567C16.817 22.0629 17.4299 21.7349 17.789 20.5886C17.1235 21.1658 14.454 21.7252 12.4374 20.4421C13.6152 19.8953 14.2105 19.0436 14.3587 18.688C13.8237 18.8836 9.9387 19.7801 5.87308 18.8691C4.29848 18.5242 3.91802 19.6687 3.83889 20.2873C3.09065 20.7212 2.60457 22.6001 4.36258 23.1111C4.36258 23.7693 4.88863 25.4203 7.30446 23.893C9.1238 22.6658 11.8738 22.4722 13.0992 22.525C12.3458 25.2075 12.8193 26.1659 15.9331 30.5901C17.018 32.1703 16.7921 34.2577 14.709 34.2577C14.2166 34.2577 4.31114 34.2577 4.31114 34.2577V37H38.4981V34.2577C38.4981 34.2577 34.0105 34.2577 33.5371 34.2577C35.7143 32.3131 34.5063 28.7692 34.2604 27.9789C31.0045 17.5678 35.4771 12.7267 36.9386 11.3863C38.9512 9.59327 41.6121 11.3506 39.5641 14.5141M14.3285 6.54495C15.6406 7.22502 17.1598 7.10455 18.0614 6.92745C20.3628 6.47428 20.9757 6.54495 21.4565 6.70499C21.9564 6.87123 21.9952 7.28726 21.9487 7.43062C21.9098 7.55109 21.8042 7.69063 21.444 7.64606C21.1364 7.60526 20.1834 7.43062 18.791 7.90467C15.8578 8.90197 14.6033 7.34528 14.3285 6.54495ZM27.7951 1.27435C27.3593 0.926589 26.6298 0.579231 25.9706 0.453749C27.1408 -0.519062 28.9968 0.22124 27.7951 1.27435ZM4.77184 25.0392C4.54334 24.992 3.93439 24.815 3.7862 24.1498C3.64929 24.4174 3.20356 26.4972 4.96395 26.4562C4.30731 26.1442 4.684 25.2264 4.77184 25.0392ZM3.49854 23.6494C3.2463 23.5954 2.74279 23.3794 2.68739 22.7798C2.49905 23.0583 1.24474 24.4722 2.82556 25.4063C2.58084 24.6772 3.04418 24.0237 3.49862 23.6494M2.61091 22.258C2.40495 21.9134 2.28329 21.5107 2.54824 20.9161C2.24554 21.0602 0.165054 22.0566 1.31134 23.601C1.31767 22.6965 2.18284 22.3485 2.61096 22.258M3.11071 20.07C3.16594 19.7851 3.28895 19.2016 3.95449 18.8671C3.69829 18.847 1.07156 18.7805 1.47219 20.8519C1.73076 19.8795 2.81434 20.019 3.11071 20.07ZM8.37305 14.3354C9.62875 15.9788 11.0324 16.4447 12.538 17.1729C11.6064 16.4394 11.3967 14.944 11.3527 14.1388C11.8248 14.3529 12.5908 14.6109 13.5751 14.5886C12.2052 13.7347 11.9429 12.6789 11.8022 11.1823C10.7537 10.8536 10.087 10.8612 7.51542 8.81141C5.67728 7.27722 4.08387 8.34058 4.18063 9.26379C3.94441 9.36964 2.56071 10.1245 3.5238 11.5728C3.37819 12.1151 3.66323 13.6965 5.40724 13.4875C5.85929 13.4923 7.18147 12.7994 8.37305 14.3354ZM2.82819 12.3476C2.71408 12.9847 3.17718 13.4825 3.36176 13.5622C3.25635 13.615 2.43389 14.0469 2.92611 14.8601C1.38929 14.0794 2.50294 12.6115 2.82814 12.3476M2.6762 11.7616C2.47282 11.5188 2.35095 11.0847 2.38735 10.651C2.06092 10.8267 0.497774 11.4282 1.50855 12.9542C1.27866 12.0788 2.3824 11.8055 2.6762 11.7616ZM3.36052 8.84073C1.99326 8.70323 0.667126 9.20776 0.914632 10.7534C1.17834 9.65631 2.27201 9.93661 2.52682 9.99143C2.74287 9.27905 3.13836 8.9867 3.36052 8.84073ZM3.76353 8.28134C4.26465 7.75188 4.69278 7.58041 5.12349 7.60028C4.71791 7.39829 2.75909 6.34116 2.23679 8.34439C2.85584 7.66011 3.64185 8.19147 3.76353 8.28126" fill="#990000"/>
</svg>
