<svg width="194" height="170" viewBox="0 0 194 170" fill="none" xmlns="http://www.w3.org/2000/svg">
<g clip-path="url(#clip0_58_534)">
<path d="M28.9615 40.061H0V69.1865H14.9009V60.66H29.31C31.8105 60.66 33.9217 60.414 35.6844 59.9836L43.0016 47.3783C42.0383 43.1765 38.3694 40.061 28.9615 40.061ZM27.9367 49.9608C27.9367 50.9447 27.3423 51.8465 25.3131 51.8465H14.8804V48.0137H25.3131C27.3423 48.0137 27.9367 48.8335 27.9367 49.8993V49.9813V49.9608ZM119.146 60.9674L114.842 68.3667L114.37 69.1865H86.8026V40.061H121.954V48.0137H101.458V50.4732H121.729V56.4992L120.601 58.4464H101.478V60.9469H119.146V60.9674ZM166.78 40.061H178.237V52.5024L168.563 69.166H153.744L162.107 54.757L145.914 69.166H138.823L139.396 54.757L131.034 69.166H116.256L133.166 40.061H152.801L152.145 53.0148L166.78 40.061ZM85.1833 40.3275C84.0355 40.143 82.7238 40.061 81.3095 40.061H49.089L32.1795 69.1865H45.5432C46.8754 66.3375 49.7244 63.304 53.4958 61.1109C59.6447 57.5035 65.8347 57.5035 67.3104 61.0904C68.2328 63.2835 67.1464 66.3375 64.7688 69.1865H76.0419L80.3052 61.8283C82.5188 58.0364 81.8014 55.4129 77.6611 54.511C79.6698 54.1421 82.6623 53.1788 85.1628 51.2726V40.3275H85.1833ZM71.8811 49.8583C71.2662 50.9037 70.1389 51.703 68.1098 51.703H57.2466L59.3783 48.0342H70.2414C72.2501 48.0342 72.5165 48.772 71.8811 49.8788V49.8583Z" fill="black"/>
<path d="M9.12093 100.219H0V71.134H23.448C33.1428 71.134 36.0738 74.4955 36.0738 78.6767V79.1482C36.0738 83.2884 32.5894 84.9282 30.6832 85.5226C33.6552 86.3014 36.1968 88.4945 36.1968 92.2044V96.4677C36.1968 98.8043 36.5042 99.5626 36.7502 100.034V100.239H27.4858C27.2193 99.8906 27.0553 99.4192 27.0553 98.3943V95.0329C27.0553 91.4665 25.4976 89.9088 20.9884 89.9088H9.10043V100.239L9.12093 100.219ZM9.12093 83.4524H22.9151C25.4976 83.4524 26.5839 82.2021 26.5839 80.6034V80.5624C26.5839 79.0457 25.5591 77.7544 22.9151 77.7544H9.12093V83.4524Z" fill="black"/>
<path d="M55.9758 100.649C40.378 100.649 37.8364 90.7079 37.8364 85.2353V71.1133H46.9778V84.6819C46.9778 88.4328 48.6586 93.0855 56.5907 93.0855C64.5228 93.0855 66.1216 88.4328 66.1216 84.6819V71.1133H75.222V85.2353C75.222 90.7079 72.291 100.649 57.3491 100.649H55.9348H55.9758Z" fill="black"/>
<path d="M96.1079 100.731C80.3461 100.731 76.7183 91.9377 76.7183 86.1167V85.0304C76.7183 79.3528 79.6903 70.6418 96.4154 70.6418H98.0961C114.391 70.6418 117.178 77.7131 117.363 81.6689V81.7099H107.668C107.442 81.0541 106.418 77.5697 97.3172 77.5697C88.2168 77.5697 86.2491 81.4025 86.2491 85.4198V85.8502C86.2491 89.6421 89.2211 93.6594 97.2352 93.6594C105.249 93.6594 108.488 90.298 108.488 89.5191V89.4371H97.0713V83.9236H117.568V100.218H112.095C111.972 99.1524 111.439 96.8978 110.927 95.6885C109.718 97.1643 105.926 100.731 96.9278 100.731H96.1079Z" fill="black"/>
<path d="M119.863 71.134H144.766C153.088 71.134 155.404 74.3315 155.404 77.7749V78.3283C155.404 82.0791 152.207 83.6164 150.792 84.0058C152.781 84.5182 157.044 86.2399 157.044 91.3231V91.8765C157.044 96.4882 154.42 100.239 144.992 100.239H119.843V71.1545L119.863 71.134ZM128.964 77.283V82.0177H143.188C145.73 82.0177 146.365 80.8494 146.365 79.6811V79.5991C146.365 78.3898 145.73 77.283 143.188 77.283H128.964ZM128.964 88.1871V93.8851H143.967C147.021 93.8851 147.554 92.2044 147.554 91.0361V90.8721C147.554 89.6219 146.96 88.1666 143.967 88.1666H128.964V88.1871Z" fill="black"/>
<path d="M169.362 88.966L153.805 71.134H165.099L174.138 81.8537L183.32 71.134H193.61L178.483 88.966V100.219H169.383V88.966H169.362Z" fill="black"/>
<path d="M2.31607 128.011C1.33224 126.679 0.819824 124.752 0.819824 122.211V122.17C0.819824 119.628 1.31174 117.702 2.31607 116.369C3.2999 115.037 4.75515 114.381 6.68181 114.381C8.60848 114.381 10.0432 115.037 11.0476 116.369C12.0519 117.702 12.5438 119.628 12.5438 122.17V122.211C12.5438 124.752 12.0519 126.679 11.0476 128.011C10.0432 129.344 8.58799 129.999 6.68181 129.999C4.77564 129.999 3.32039 129.344 2.31607 128.011ZM9.44884 126.904C10.0637 125.962 10.3507 124.527 10.3507 122.58V121.842C10.3507 119.895 10.0432 118.439 9.44884 117.476C8.83394 116.513 7.9321 116.041 6.68181 116.041C5.43153 116.041 4.52969 116.513 3.91479 117.476C3.32039 118.439 3.01295 119.895 3.01295 121.842V122.58C3.01295 124.527 3.32039 125.962 3.91479 126.904C4.50919 127.847 5.43153 128.319 6.68181 128.319C7.9321 128.319 8.83394 127.847 9.44884 126.904Z" fill="black"/>
<path d="M17.1351 129.753H15.0034V114.627H23.202V116.349H17.1351V121.104H22.6691V122.744H17.1351V129.774V129.753Z" fill="black"/>
<path d="M27.5472 129.753H25.4155V114.627H33.6141V116.349H27.5472V121.104H33.0812V122.744H27.5472V129.774V129.753Z" fill="black"/>
<path d="M37.939 129.753H35.8074V114.627H37.939V129.753Z" fill="black"/>
<path d="M41.8332 128.032C40.8698 126.72 40.3779 124.773 40.3779 122.231V122.19C40.3779 119.648 40.8493 117.722 41.8127 116.39C42.776 115.057 44.1698 114.401 46.0145 114.401C47.8591 114.401 48.843 114.873 49.7448 115.836C50.6262 116.779 51.1386 118.173 51.2616 119.997L49.2119 120.489C49.1709 118.993 48.884 117.865 48.3511 117.148C47.8181 116.431 47.0393 116.082 46.0145 116.082C44.9896 116.082 43.9648 116.553 43.4114 117.496C42.8375 118.439 42.5711 119.894 42.5711 121.862V122.6C42.5711 124.568 42.858 126.002 43.4319 126.945C44.0058 127.888 44.8872 128.359 46.0759 128.359C47.2647 128.359 47.9001 127.991 48.433 127.273C48.966 126.556 49.2734 125.428 49.3554 123.912L51.4665 124.465C51.2821 126.289 50.7286 127.663 49.8268 128.605C48.9045 129.548 47.6542 130.02 46.0555 130.02C44.4567 130.02 42.7965 129.364 41.8127 128.032H41.8332Z" fill="black"/>
<path d="M56.0374 129.753H53.9058V114.627H56.0374V129.753Z" fill="black"/>
<path d="M59.8702 129.753H57.759L62.3093 114.627H64.8303L69.401 129.753H67.1464L66.1831 126.433H60.8335L59.8702 129.753ZM61.2434 124.834H65.7732L64.5434 120.53C64.1949 119.341 63.8875 118.091 63.6005 116.759H63.3751C63.1291 118.07 62.8217 119.321 62.4732 120.53L61.2434 124.834Z" fill="black"/>
<path d="M79.1984 129.753H71.1228V114.627H73.2544V128.011H79.1779V129.733L79.1984 129.753Z" fill="black"/>
<path d="M84.9988 129.753V114.627H89.6925C91.2502 114.627 92.439 115.016 93.2589 115.775C94.0787 116.554 94.4886 117.66 94.4886 119.136V119.177C94.4886 120.653 94.0787 121.76 93.2589 122.518C92.439 123.276 91.2502 123.666 89.6925 123.666H87.1509V129.733H85.0193L84.9988 129.753ZM89.4055 122.047C90.3894 122.047 91.1272 121.821 91.6191 121.35C92.1111 120.878 92.3365 120.161 92.3365 119.218V119.177C92.3365 118.214 92.0906 117.476 91.6191 117.005C91.1477 116.533 90.3894 116.287 89.4055 116.287H87.1304V122.047H89.4055Z" fill="black"/>
<path d="M96.5589 129.753H94.4478L98.998 114.627H101.519L106.09 129.753H103.835L102.872 126.433H97.5222L96.5589 129.753ZM97.9527 124.834H102.482L101.253 120.53C100.904 119.341 100.597 118.091 100.31 116.759H100.084C99.8383 118.07 99.5309 119.321 99.1824 120.53L97.9527 124.834Z" fill="black"/>
<path d="M107.832 129.753V114.627H112.587C114.145 114.627 115.313 114.975 116.133 115.652C116.953 116.328 117.363 117.291 117.363 118.562V118.603C117.363 119.567 117.076 120.366 116.523 120.96C115.969 121.555 115.149 121.903 114.124 122.006V122.231C114.534 122.354 114.883 122.518 115.149 122.703C115.416 122.887 115.621 123.153 115.805 123.502C115.99 123.85 116.174 124.322 116.338 124.916L116.85 126.699C117.096 127.54 117.322 128.175 117.568 128.585C117.793 128.995 118.06 129.302 118.367 129.507L118.326 129.753H115.785C115.58 129.466 115.416 129.097 115.252 128.667C115.108 128.237 114.903 127.581 114.678 126.699L114.227 125.019C114.083 124.445 113.919 123.994 113.735 123.686C113.551 123.379 113.325 123.153 113.018 123.031C112.731 122.908 112.321 122.826 111.849 122.826H109.984V129.753H107.853H107.832ZM112.341 121.206C113.305 121.206 114.022 121.001 114.493 120.612C114.965 120.222 115.211 119.608 115.211 118.788V118.747C115.211 117.927 114.965 117.312 114.493 116.923C114.022 116.533 113.305 116.328 112.321 116.328H109.964V121.206H112.321H112.341Z" fill="black"/>
<path d="M124.496 129.753H122.364V116.349H118.367V114.627H128.492V116.349H124.496V129.753Z" fill="black"/>
<path d="M130.235 129.753V114.627H132.715L137.306 124.342C137.531 124.834 137.736 125.244 137.88 125.634C138.023 126.002 138.187 126.433 138.331 126.904H138.556C138.433 125.736 138.372 124.691 138.372 123.768V114.627H140.421V129.753H137.982L133.453 120.202C133.043 119.321 132.674 118.398 132.346 117.435L132.12 117.476C132.243 118.624 132.305 119.649 132.305 120.571V129.753H130.255H130.235Z" fill="black"/>
<path d="M151.879 129.753H143.311V114.627H151.653V116.349H145.463V121.001H151.141V122.559H145.463V128.032H151.899V129.753H151.879Z" fill="black"/>
<path d="M154.154 129.753V114.627H158.909C160.467 114.627 161.635 114.975 162.455 115.652C163.275 116.328 163.685 117.291 163.685 118.562V118.603C163.685 119.567 163.398 120.366 162.844 120.96C162.27 121.555 161.471 121.903 160.446 122.006V122.231C160.856 122.354 161.205 122.518 161.471 122.703C161.738 122.887 161.942 123.153 162.127 123.502C162.311 123.85 162.496 124.322 162.66 124.916L163.172 126.699C163.418 127.54 163.644 128.175 163.89 128.585C164.136 128.995 164.382 129.302 164.689 129.507L164.648 129.753H162.106C161.901 129.466 161.738 129.097 161.574 128.667C161.43 128.237 161.225 127.581 161 126.699L160.549 125.019C160.405 124.445 160.241 123.994 160.057 123.686C159.872 123.379 159.647 123.153 159.339 123.031C159.052 122.908 158.643 122.826 158.171 122.826H156.306V129.753H154.174H154.154ZM158.663 121.206C159.626 121.206 160.344 121.001 160.815 120.612C161.287 120.222 161.533 119.608 161.533 118.788V118.747C161.533 117.927 161.287 117.312 160.815 116.923C160.344 116.533 159.626 116.328 158.643 116.328H156.285V121.206H158.643H158.663Z" fill="black"/>
</g>
<defs>
<clipPath id="clip0_58_534">
<rect width="193.61" height="170" fill="white" transform="translate(0.175049)"/>
</clipPath>
</defs>
</svg>
