<svg width="78" height="62" viewBox="0 0 78 62" fill="none" xmlns="http://www.w3.org/2000/svg">
<g clip-path="url(#clip0_929_2549)">
<path d="M71.542 27.318L73.8561 20.2128L67.7887 24.6026L61.7182 20.2128L64.0339 27.3196L57.9788 31.7018H65.4623L67.7872 38.8424L70.1136 31.7018H77.6002L71.542 27.318Z" fill="#ED1B2F"/>
<path d="M66.0989 19.0058L67.1276 18.2616H65.8575L65.4623 17.0499L65.0672 18.2616H63.7971L64.8258 19.0058L64.4322 20.2128L65.4623 19.467L66.4925 20.2128L66.0989 19.0058Z" fill="#D0AD67"/>
<path d="M70.7535 19.006L71.7821 18.2618H70.5121L70.1169 17.0502L69.7217 18.2618H68.4517L69.4803 19.006L69.0867 20.213L70.1169 19.4673L71.1471 20.213L70.7535 19.006Z" fill="#D0AD67"/>
<path d="M7.63745 24.8454V27.1073C6.5888 26.0417 5.29413 25.4528 4.13017 25.4528C2.9662 25.4528 2.31118 25.911 2.31118 26.6813C2.31118 27.3364 2.7048 27.73 3.62276 28.0575L5.22802 28.6141C7.24382 29.303 8.09565 30.3024 8.09565 31.9892C8.09565 34.0695 6.35816 35.4626 3.86723 35.4626C2.26197 35.4626 0.933481 34.7584 0.16314 33.9219V31.6109C1.29328 32.8733 2.67098 33.5283 3.89952 33.5283C5.12807 33.5283 5.88304 33.004 5.88304 32.1029C5.88304 31.3495 5.42483 30.9559 4.39156 30.5961L2.90008 30.0718C0.936556 29.3675 0.100098 28.4019 0.100098 26.7798C0.100098 24.8454 1.77148 23.5354 4.16399 23.5354C5.44174 23.5354 6.8179 24.0597 7.63745 24.847V24.8454Z" fill="#ED1B2F"/>
<path d="M9.71632 25.4022L8.97827 23.7308H11.8459V33.3163H16.86L16.1389 35.266H9.71632V25.4022Z" fill="#ED1B2F"/>
<path d="M23.9084 23.7308L29.1025 35.2675H26.71L25.8904 33.3993H20.7117L19.8922 35.2675H17.5166L22.154 24.9117L21.6297 23.7324H23.9069L23.9084 23.7308ZM25.0232 31.4496L23.2857 27.501L21.5651 31.4496H25.0232Z" fill="#ED1B2F"/>
<path d="M39.3293 23.7308L34.5119 35.2675H32.267L27.4497 23.7308H29.7761L33.3972 32.4491L37.0352 23.7308H39.3293Z" fill="#ED1B2F"/>
<path d="M43.1484 35.2675H41.1004V25.4022L40.3623 23.7308H43.1484V35.2675Z" fill="#ED1B2F"/>
<path d="M50.9148 23.7308L56.1088 35.2675H53.7163L52.8968 33.3993H47.7181L46.8985 35.2675H44.5229L49.1604 24.9117L48.636 23.7324H50.9132L50.9148 23.7308ZM52.0295 31.4496L50.292 27.501L48.5715 31.4496H52.0295Z" fill="#ED1B2F"/>
</g>
<defs>
<clipPath id="clip0_929_2549">
<rect width="77.5" height="21.7925" fill="white" transform="translate(0.100098 17.0499)"/>
</clipPath>
</defs>
</svg>
