<svg width="212" height="212" viewBox="0 0 212 212" fill="none" xmlns="http://www.w3.org/2000/svg">
<g opacity="0.86">
<rect width="211.848" height="211.848" rx="7.5" fill="#4EBA3A"/>
<path d="M34.2542 160.776V132.853L27.1758 139.004V132.169L34.2542 126.019H40.6003V160.776H34.2542ZM63.431 160.776V155.845H49.2254V149.841L61.1366 126.019H68.0685L56.1573 149.841H63.431V143.348H69.4842V149.841H72.7061V155.845H69.4842V160.776H63.431ZM78.5744 160.776L87.2839 142.375H89.9199L81.2105 160.776H78.5744ZM78.3677 151.86C76.3518 151.86 74.6203 150.671 74.6203 148.319V145.761C74.6203 143.409 76.3518 142.22 78.3677 142.22C80.3835 142.22 82.1151 143.409 82.1151 145.761V148.319C82.1151 150.671 80.3835 151.86 78.3677 151.86ZM78.3677 149.689C79.1688 149.689 79.6857 149.198 79.6857 148.19V145.89C79.6857 144.882 79.1688 144.417 78.3677 144.417C77.5924 144.417 77.0755 144.882 77.0755 145.89V148.19C77.0755 149.198 77.5924 149.689 78.3677 149.689ZM90.1008 160.931C88.085 160.931 86.3535 159.742 86.3535 157.39V154.832C86.3535 152.48 88.085 151.291 90.1008 151.291C92.1167 151.291 93.8482 152.48 93.8482 154.832V157.39C93.8482 159.742 92.1167 160.931 90.1008 160.931ZM90.1008 158.734C90.902 158.734 91.4189 158.269 91.4189 157.261V154.961C91.4189 153.953 90.902 153.462 90.1008 153.462C89.3255 153.462 88.7828 153.953 88.7828 154.961V157.261C88.7828 158.269 89.3255 158.734 90.1008 158.734Z" fill="white"/>
<rect opacity="0.6" x="22.1478" y="177.182" width="73.1839" height="12.5183" rx="6.25915" fill="white"/>
<path fill-rule="evenodd" clip-rule="evenodd" d="M33.2049 38.2079H38.5974C38.5974 38.2079 39.4155 32.1891 30.1235 31.2747C30.1235 31.2747 20.9755 30.6006 20.1088 38.2079C20.1088 38.2079 19.4825 43.1667 27.8124 44.3707C27.8124 44.3707 33.349 44.9485 33.2049 47.4522C33.2049 47.4522 33.3012 50.2925 28.5828 49.7632C28.5828 49.7632 25.5013 49.4258 25.5013 46.6818H20.1088C20.1088 46.6818 19.9163 53.1336 29.3531 53.615C29.3531 53.615 37.4419 54.5294 38.5974 47.4522C38.5974 47.4522 38.9826 42.3486 33.9753 41.2893C33.9753 41.2893 31.4231 40.663 30.1235 40.519C28.8231 40.3741 26.3942 39.261 26.2717 38.2079C26.0853 36.6048 28.0528 35.8968 29.3531 35.8968C30.8045 35.8968 32.6271 36.1372 33.2049 38.2079Z" fill="white"/>
<path fill-rule="evenodd" clip-rule="evenodd" d="M40.9085 32.0449H46.301V53.6149H40.9085V32.0449Z" fill="white"/>
<path fill-rule="evenodd" clip-rule="evenodd" d="M52.0787 45.1411L46.6862 45.1411C39.2337 45.1411 39.2337 32.045 46.6862 32.045H52.0787C55.6947 32.045 58.6267 34.977 58.6267 38.5931C58.6267 42.2091 55.6947 45.1411 52.0787 45.1411ZM50.538 35.8968H47.4565C45.9674 35.8968 44.7603 37.1039 44.7603 38.593C44.7603 40.0821 45.9674 41.2893 47.4565 41.2893H50.538C52.0271 41.2893 53.2342 40.0821 53.2342 38.593C53.2342 37.1039 52.0271 35.8968 50.538 35.8968Z" fill="white"/>
<path fill-rule="evenodd" clip-rule="evenodd" d="M81.7374 32.045H87.1299V53.615H81.7374V32.045Z" fill="white"/>
<path fill-rule="evenodd" clip-rule="evenodd" d="M92.9076 45.141L87.5151 45.141C80.0627 45.141 80.0627 32.0449 87.5151 32.0449L92.9076 32.0449C96.5237 32.0449 99.4557 34.9769 99.4557 38.593C99.4557 42.209 96.5237 45.141 92.9076 45.141ZM91.3669 35.8967H88.2855C86.7964 35.8967 85.5893 37.1039 85.5893 38.593C85.5893 40.0821 86.7964 41.2892 88.2855 41.2892H91.3669C92.856 41.2892 94.0632 40.0821 94.0632 38.593C94.0632 37.1039 92.856 35.8967 91.3669 35.8967Z" fill="white"/>
<path fill-rule="evenodd" clip-rule="evenodd" d="M90.9817 45.1411L94.0631 53.615H100.226L96.3742 43.6003L90.9817 45.1411Z" fill="white"/>
<path fill-rule="evenodd" clip-rule="evenodd" d="M60.9378 32.0449H66.3303V53.6149H60.9378V32.0449Z" fill="white"/>
<path fill-rule="evenodd" clip-rule="evenodd" d="M71.7228 53.615H64.0192V48.9151C64.2681 48.9659 64.5254 48.9929 64.7896 48.9929H70.1821C72.309 48.9929 74.0339 47.2681 74.0339 45.1411V40.519C74.0339 38.392 72.309 36.6672 70.1821 36.6672H64.7896C64.5254 36.6672 64.2681 36.6941 64.0192 36.745V32.045H71.7228C75.9775 32.045 79.4264 35.4939 79.4264 39.7486V45.9115C79.4264 50.1662 75.9775 53.615 71.7228 53.615Z" fill="white"/>
<path opacity="0.8" d="M25.1212 73.3276C23.6465 73.3276 22.3772 72.8143 21.3132 71.7876L22.2652 70.5976C23.1145 71.4376 24.0758 71.8576 25.1492 71.8576C25.5785 71.8576 25.9472 71.797 26.2552 71.6756C26.5632 71.545 26.7965 71.363 26.9552 71.1296C27.1232 70.887 27.2072 70.607 27.2072 70.2896C27.2072 69.9536 27.1045 69.6876 26.8992 69.4916C26.7032 69.2863 26.4558 69.1323 26.1572 69.0296C25.8678 68.9176 25.4572 68.7916 24.9252 68.6516C24.2345 68.4836 23.6745 68.311 23.2452 68.1336C22.8158 67.947 22.4472 67.6576 22.1392 67.2656C21.8312 66.8736 21.6772 66.3416 21.6772 65.6696C21.6772 65.0816 21.8312 64.559 22.1392 64.1016C22.4472 63.635 22.8812 63.271 23.4412 63.0096C24.0012 62.7483 24.6452 62.6176 25.3732 62.6176C26.0732 62.6176 26.7032 62.739 27.2632 62.9816C27.8232 63.215 28.3038 63.5276 28.7052 63.9196L27.8092 65.0676C27.1185 64.3956 26.3065 64.0596 25.3732 64.0596C24.9438 64.0596 24.5705 64.125 24.2532 64.2556C23.9358 64.3863 23.6932 64.573 23.5252 64.8156C23.3572 65.049 23.2732 65.3196 23.2732 65.6276C23.2732 65.945 23.3712 66.2063 23.5672 66.4116C23.7725 66.6076 24.0245 66.7616 24.3232 66.8736C24.6218 66.9856 25.0372 67.1116 25.5692 67.2516C26.2598 67.429 26.8198 67.611 27.2492 67.7976C27.6785 67.975 28.0472 68.255 28.3552 68.6376C28.6632 69.011 28.8172 69.5196 28.8172 70.1636C28.8172 70.7983 28.6632 71.3536 28.3552 71.8296C28.0472 72.3056 27.6132 72.6743 27.0532 72.9356C26.4932 73.197 25.8492 73.3276 25.1212 73.3276ZM39.4038 72.1796L38.4518 73.2016L37.2618 72.0816C36.8231 72.4736 36.3191 72.7723 35.7498 72.9776C35.1898 73.183 34.5645 73.2856 33.8738 73.2856C33.1271 73.2856 32.4785 73.1783 31.9278 72.9636C31.3771 72.749 30.9571 72.441 30.6678 72.0396C30.3784 71.629 30.2338 71.1483 30.2338 70.5976C30.2338 69.9163 30.4344 69.3563 30.8358 68.9176C31.2371 68.4696 31.8438 68.087 32.6558 67.7696C32.2078 67.303 31.8811 66.869 31.6758 66.4676C31.4798 66.057 31.3818 65.6323 31.3818 65.1936C31.3818 64.755 31.4938 64.3396 31.7178 63.9476C31.9418 63.5556 32.2778 63.2383 32.7258 62.9956C33.1738 62.7436 33.7198 62.6176 34.3638 62.6176C34.9425 62.6176 35.4465 62.7296 35.8758 62.9536C36.3145 63.1776 36.6458 63.4856 36.8698 63.8776C37.1031 64.2603 37.2198 64.685 37.2198 65.1516C37.2198 65.7956 37.0145 66.3323 36.6038 66.7616C36.1931 67.191 35.5818 67.5596 34.7698 67.8676L37.1078 70.0376C37.3878 69.403 37.5138 68.689 37.4858 67.8956H38.9558C38.9185 69.0996 38.6478 70.1356 38.1438 71.0036L39.4038 72.1796ZM34.3218 63.9336C34.0325 63.9336 33.7758 63.9943 33.5518 64.1156C33.3371 64.2276 33.1691 64.3863 33.0478 64.5916C32.9358 64.7876 32.8798 65.0116 32.8798 65.2636C32.8798 65.469 32.9125 65.6603 32.9778 65.8376C33.0431 66.015 33.1598 66.211 33.3278 66.4256C33.4958 66.6403 33.7338 66.897 34.0418 67.1956C34.6485 66.897 35.0918 66.603 35.3718 66.3136C35.6611 66.0243 35.8058 65.6743 35.8058 65.2636C35.8058 65.0116 35.7498 64.7876 35.6378 64.5916C35.5258 64.3863 35.3578 64.2276 35.1338 64.1156C34.9098 63.9943 34.6391 63.9336 34.3218 63.9336ZM33.9858 71.9836C34.4431 71.9836 34.8631 71.9183 35.2458 71.7876C35.6378 71.6476 35.9831 71.4423 36.2818 71.1716L33.3978 68.4836C32.8751 68.7543 32.4831 69.053 32.2218 69.3796C31.9605 69.697 31.8298 70.075 31.8298 70.5136C31.8298 70.971 32.0118 71.3303 32.3758 71.5916C32.7491 71.853 33.2858 71.9836 33.9858 71.9836ZM44.5584 62.7996C45.3517 62.7996 46.0377 62.9303 46.6164 63.1916C47.2044 63.4436 47.6524 63.8123 47.9604 64.2976C48.2777 64.7736 48.4364 65.3476 48.4364 66.0196C48.4364 67.1116 48.0771 67.933 47.3584 68.4836C46.6491 69.0343 45.6411 69.3096 44.3344 69.3096H42.8224V73.1456H41.2404V62.7996H44.5584ZM44.3344 67.9096C45.1651 67.9096 45.7811 67.7603 46.1824 67.4616C46.5931 67.1536 46.7984 66.673 46.7984 66.0196C46.7984 64.825 46.0377 64.2276 44.5164 64.2276H42.8224V67.9096H44.3344ZM56.7042 66.4536C57.4508 66.4536 58.0902 66.603 58.6222 66.9016C59.1635 67.191 59.5695 67.5923 59.8402 68.1056C60.1202 68.6096 60.2602 69.179 60.2602 69.8136C60.2602 70.439 60.1062 71.0176 59.7982 71.5496C59.4995 72.0816 59.0608 72.5063 58.4822 72.8236C57.9035 73.141 57.2175 73.2996 56.4242 73.2996C55.6775 73.2996 55.0195 73.1736 54.4502 72.9216C53.8902 72.6696 53.3908 72.3196 52.9522 71.8716L53.8342 70.7516C54.2075 71.1156 54.5902 71.3956 54.9822 71.5916C55.3835 71.7783 55.8502 71.8716 56.3822 71.8716C56.8208 71.8716 57.2128 71.7923 57.5582 71.6336C57.9035 71.4656 58.1695 71.2323 58.3562 70.9336C58.5522 70.6256 58.6502 70.2663 58.6502 69.8556C58.6502 69.4356 58.5568 69.067 58.3702 68.7496C58.1835 68.4323 57.9082 68.185 57.5442 68.0076C57.1895 67.8303 56.7695 67.7416 56.2842 67.7416C55.7802 67.7416 55.3182 67.8116 54.8982 67.9516C54.4875 68.0823 54.0908 68.269 53.7082 68.5116L53.4562 68.3436V62.7996H59.6582V64.2276H54.9262V66.7756C55.4675 66.561 56.0602 66.4536 56.7042 66.4536ZM66.2131 73.2996C65.3358 73.2996 64.5705 73.0756 63.9171 72.6276C63.2731 72.1703 62.7738 71.5403 62.4191 70.7376C62.0738 69.9256 61.9011 69.0063 61.9011 67.9796C61.9011 66.953 62.0738 66.0383 62.4191 65.2356C62.7738 64.4236 63.2731 63.789 63.9171 63.3316C64.5705 62.8743 65.3358 62.6456 66.2131 62.6456C67.0811 62.6456 67.8371 62.8743 68.4811 63.3316C69.1345 63.789 69.6338 64.4236 69.9791 65.2356C70.3338 66.0383 70.5111 66.953 70.5111 67.9796C70.5111 69.0063 70.3338 69.9256 69.9791 70.7376C69.6338 71.5403 69.1345 72.1703 68.4811 72.6276C67.8371 73.0756 67.0811 73.2996 66.2131 73.2996ZM66.2131 71.8576C66.7545 71.8576 67.2258 71.7036 67.6271 71.3956C68.0378 71.0876 68.3505 70.6443 68.5651 70.0656C68.7891 69.4776 68.9011 68.7823 68.9011 67.9796C68.9011 67.1676 68.7891 66.4723 68.5651 65.8936C68.3505 65.3056 68.0378 64.8623 67.6271 64.5636C67.2258 64.2556 66.7545 64.1016 66.2131 64.1016C65.6625 64.1016 65.1818 64.2556 64.7711 64.5636C64.3698 64.8623 64.0571 65.3056 63.8331 65.8936C63.6091 66.4723 63.4971 67.1676 63.4971 67.9796C63.4971 68.7823 63.6091 69.4776 63.8331 70.0656C64.0571 70.6443 64.3745 71.0876 64.7851 71.3956C65.1958 71.7036 65.6718 71.8576 66.2131 71.8576ZM76.6311 73.2996C75.7538 73.2996 74.9884 73.0756 74.3351 72.6276C73.6911 72.1703 73.1918 71.5403 72.8371 70.7376C72.4918 69.9256 72.3191 69.0063 72.3191 67.9796C72.3191 66.953 72.4918 66.0383 72.8371 65.2356C73.1918 64.4236 73.6911 63.789 74.3351 63.3316C74.9884 62.8743 75.7538 62.6456 76.6311 62.6456C77.4991 62.6456 78.2551 62.8743 78.8991 63.3316C79.5524 63.789 80.0518 64.4236 80.3971 65.2356C80.7518 66.0383 80.9291 66.953 80.9291 67.9796C80.9291 69.0063 80.7518 69.9256 80.3971 70.7376C80.0518 71.5403 79.5524 72.1703 78.8991 72.6276C78.2551 73.0756 77.4991 73.2996 76.6311 73.2996ZM76.6311 71.8576C77.1724 71.8576 77.6438 71.7036 78.0451 71.3956C78.4558 71.0876 78.7684 70.6443 78.9831 70.0656C79.2071 69.4776 79.3191 68.7823 79.3191 67.9796C79.3191 67.1676 79.2071 66.4723 78.9831 65.8936C78.7684 65.3056 78.4558 64.8623 78.0451 64.5636C77.6438 64.2556 77.1724 64.1016 76.6311 64.1016C76.0804 64.1016 75.5998 64.2556 75.1891 64.5636C74.7878 64.8623 74.4751 65.3056 74.2511 65.8936C74.0271 66.4723 73.9151 67.1676 73.9151 67.9796C73.9151 68.7823 74.0271 69.4776 74.2511 70.0656C74.4751 70.6443 74.7924 71.0876 75.2031 71.3956C75.6138 71.7036 76.0898 71.8576 76.6311 71.8576ZM88.0346 68.5396V71.7036H92.8366V73.1456H86.4806V62.7996H92.6826V64.2276H88.0346V67.1116H92.4726V68.5396H88.0346ZM98.8225 73.1456H97.2405V64.2276H94.0765V62.7996H101.987V64.2276H98.8225V73.1456ZM109.793 62.7996V64.2276H105.481V67.2236H109.597V68.6376H105.481V73.1456H103.899V62.7996H109.793Z" fill="white"/>
</g>
</svg>
