<svg width="37" height="36" viewBox="0 0 37 36" fill="none" xmlns="http://www.w3.org/2000/svg">
<path fill-rule="evenodd" clip-rule="evenodd" d="M0 0V36H37V0H0ZM6.62735 6.8755H8.57505V25.0629C8.57505 27.3074 9.14072 27.7956 9.9828 27.7956C10.8185 27.7956 11.3713 27.3074 11.3713 25.0629V6.8755H13.319V24.5112C13.319 27.8146 11.6541 28.9115 9.9828 28.9115C8.30507 28.9115 6.62735 27.8146 6.62735 24.5112V6.8755ZM15.7488 6.8755H15.5495V28.9115H16.0702H17.5165H18.86C20.5377 28.9115 22.254 27.8146 22.254 25.0629V20.371C22.254 18.6274 21.5598 17.4417 20.6277 16.8014C21.4955 16.2307 22.1126 15.1655 22.1126 13.4929V11.0164C22.1126 8.26151 20.4349 6.8755 18.7636 6.8755H17.5165H15.7488ZM24.4845 6.8755H24.8702H26.458H27.66C29.3313 6.8755 31.054 8.26151 31.054 11.0164V15.6918C31.054 18.4499 29.3313 19.5341 27.66 19.5341H26.458V28.9115H24.4845V6.8755ZM17.5165 16.2497V7.96541H18.2172C19.0528 7.96541 20.1649 8.52653 20.1649 10.9967V13.4929C20.1649 15.9708 19.0592 16.2497 18.2172 16.2497H17.5165ZM26.458 7.98506V18.4689H27.1393C27.975 18.4689 29.1063 18.1709 29.1063 15.6918V11.0164C29.1063 8.53351 27.975 7.98506 27.1393 7.98506H26.458ZM17.5165 27.8399V17.3593H18.3393C19.1749 17.3593 20.3063 17.8919 20.3063 20.371V25.0629C20.3063 27.5419 19.1749 27.8399 18.3393 27.8399H17.5165Z" fill="#00573C"/>
</svg>
